<?xml version="1.0" encoding="UTF-8" standalone="no"?>
<svg
   id="svg"
   version="1.1"
   width="96.007217"
   height="83.270927"
   viewBox="0 0 96.007217 83.270925"
   sodipodi:docname="axisbank.svg"
   inkscape:version="1.1.2 (0a00cf5339, 2022-02-04)"
   xmlns:inkscape="http://www.inkscape.org/namespaces/inkscape"
   xmlns:sodipodi="http://sodipodi.sourceforge.net/DTD/sodipodi-0.dtd"
   xmlns="http://www.w3.org/2000/svg"
   xmlns:svg="http://www.w3.org/2000/svg">
  <defs
     id="defs8" />
  <sodipodi:namedview
     id="namedview6"
     pagecolor="#ffffff"
     bordercolor="#666666"
     borderopacity="1.0"
     inkscape:pageshadow="2"
     inkscape:pageopacity="0.0"
     inkscape:pagecheckerboard="0"
     showgrid="false"
     inkscape:zoom="1.8912034"
     inkscape:cx="11.368423"
     inkscape:cy="41.772343"
     inkscape:window-width="1920"
     inkscape:window-height="1016"
     inkscape:window-x="0"
     inkscape:window-y="27"
     inkscape:window-maximized="1"
     inkscape:current-layer="svg" />
  <g
     id="svgg"
     transform="scale(0.24)">
    <path
       id="path0"
       d="m 199.494,0.253 c 0.086,0.139 0.036,0.253 -0.112,0.253 -0.147,0 -0.268,0.171 -0.268,0.38 0,0.208 -0.095,0.379 -0.212,0.379 -0.233,0 -0.914,1.277 -0.844,1.581 0.025,0.105 -0.088,0.19 -0.251,0.19 -0.162,0 -0.221,0.074 -0.131,0.163 0.089,0.09 -0.172,0.62 -0.582,1.177 -0.41,0.557 -0.693,1.098 -0.629,1.202 0.064,0.103 -0.061,0.256 -0.278,0.339 -0.216,0.083 -0.323,0.266 -0.236,0.406 0.086,0.14 0.058,0.255 -0.064,0.255 -0.24,0 -1.194,1.778 -1.119,2.087 0.025,0.105 -0.068,0.19 -0.208,0.19 -0.139,0 -0.253,0.161 -0.253,0.359 0,0.197 -0.089,0.396 -0.199,0.442 -0.319,0.136 -1.572,2.412 -1.572,2.857 0,0.224 -0.157,0.466 -0.349,0.54 -0.192,0.074 -0.731,0.896 -1.197,1.827 -0.466,0.93 -0.963,1.775 -1.105,1.878 -0.142,0.102 -0.165,0.187 -0.05,0.189 0.114,0.003 0.028,0.184 -0.192,0.404 -0.22,0.22 -0.325,0.522 -0.232,0.672 0.099,0.161 0.049,0.198 -0.125,0.091 -0.26,-0.161 -0.405,0.141 -0.322,0.672 0.017,0.104 -0.084,0.189 -0.223,0.189 -0.139,0 -0.253,0.171 -0.253,0.38 0,0.209 -0.085,0.38 -0.189,0.381 -0.105,10e-4 -0.387,0.348 -0.628,0.771 -0.257,0.451 -0.309,0.696 -0.127,0.594 0.172,-0.097 0.056,0.073 -0.257,0.377 -0.314,0.304 -0.57,0.719 -0.57,0.923 0,0.203 -0.114,0.369 -0.253,0.369 -0.139,0 -0.253,0.125 -0.253,0.278 0,0.152 -0.25,0.628 -0.556,1.057 -0.334,0.47 -0.409,0.705 -0.189,0.59 0.201,-0.105 0.168,-0.029 -0.073,0.169 -0.241,0.198 -0.365,0.434 -0.274,0.525 0.09,0.09 0.05,0.164 -0.09,0.164 -0.246,0 -0.761,0.899 -0.785,1.369 -0.006,0.127 -0.195,0.333 -0.419,0.459 -0.224,0.125 -0.341,0.334 -0.261,0.465 0.081,0.131 0.054,0.237 -0.059,0.237 -0.113,0 -0.369,0.371 -0.569,0.823 -0.199,0.452 -0.512,0.972 -0.694,1.156 -0.183,0.184 -0.332,0.573 -0.332,0.865 0,0.291 -0.078,0.452 -0.173,0.357 -0.175,-0.175 -0.953,1.314 -0.876,1.677 0.023,0.108 -0.129,0.262 -0.339,0.343 -0.209,0.08 -0.317,0.248 -0.24,0.372 0.077,0.125 0.019,0.227 -0.128,0.227 -0.147,0 -0.268,0.156 -0.268,0.348 0,0.192 -0.169,0.489 -0.377,0.661 -0.207,0.172 -0.314,0.414 -0.238,0.537 0.077,0.124 0.043,0.225 -0.074,0.225 -0.118,0 -0.416,0.341 -0.662,0.759 -0.247,0.417 -0.363,0.759 -0.259,0.759 0.104,0 -0.032,0.167 -0.302,0.371 -0.27,0.204 -0.392,0.375 -0.272,0.38 0.121,0.004 -0.085,0.407 -0.457,0.896 -0.373,0.489 -0.723,1.121 -0.778,1.405 -0.054,0.284 -0.442,0.983 -0.861,1.553 -0.42,0.571 -0.692,1.151 -0.606,1.291 0.089,0.144 0.03,0.176 -0.135,0.073 -0.261,-0.161 -0.406,0.142 -0.322,0.672 0.017,0.104 -0.084,0.19 -0.223,0.19 -0.139,0 -0.253,0.157 -0.253,0.348 0,0.192 -0.169,0.49 -0.377,0.661 -0.207,0.172 -0.321,0.402 -0.254,0.511 0.067,0.109 -0.055,0.266 -0.272,0.349 -0.217,0.083 -0.323,0.266 -0.237,0.406 0.087,0.14 0.031,0.255 -0.125,0.255 -0.156,0 -0.226,0.092 -0.156,0.205 0.07,0.113 -0.151,0.53 -0.491,0.925 -0.34,0.396 -0.632,0.816 -0.65,0.933 -0.017,0.118 -0.06,0.328 -0.095,0.467 -0.034,0.139 -0.077,0.373 -0.094,0.521 -0.018,0.147 -0.163,0.186 -0.324,0.087 -0.165,-0.102 -0.224,-0.07 -0.135,0.074 0.086,0.139 -0.191,0.726 -0.616,1.304 -0.424,0.577 -0.677,1.052 -0.56,1.054 0.116,0.002 0.049,0.107 -0.15,0.233 -0.199,0.125 -0.391,0.425 -0.426,0.666 -0.035,0.241 -0.214,0.533 -0.397,0.649 -0.184,0.116 -0.244,0.213 -0.134,0.215 0.11,0.002 -0.032,0.253 -0.316,0.558 -0.284,0.304 -0.53,0.646 -0.548,0.759 -0.017,0.113 -0.046,0.298 -0.063,0.413 -0.017,0.114 -0.231,0.407 -0.474,0.65 -0.244,0.244 -0.443,0.568 -0.443,0.721 0,0.153 -0.179,0.477 -0.399,0.719 -0.349,0.386 -0.526,0.855 -0.594,1.575 -0.01,0.113 -0.133,0.135 -0.272,0.049 -0.139,-0.086 -0.253,-0.006 -0.253,0.179 0,0.185 -0.28,0.747 -0.621,1.249 -0.341,0.503 -0.55,0.985 -0.464,1.071 0.087,0.086 0.018,0.157 -0.153,0.157 -0.17,0 -0.24,0.114 -0.154,0.253 0.086,0.139 0.036,0.253 -0.111,0.253 -0.148,0 -0.268,0.124 -0.268,0.276 0,0.152 -0.226,0.564 -0.503,0.916 -0.276,0.351 -0.429,0.757 -0.34,0.901 0.089,0.145 0.04,0.187 -0.11,0.094 -0.159,-0.098 -0.392,0.199 -0.564,0.72 -0.162,0.489 -0.391,0.888 -0.51,0.888 -0.232,0 -0.64,1.003 -0.547,1.347 0.031,0.115 -0.06,0.137 -0.203,0.049 -0.143,-0.089 -0.268,-0.069 -0.279,0.044 -0.068,0.725 -0.263,1.163 -0.871,1.96 -0.378,0.496 -0.588,0.905 -0.467,0.909 0.12,0.004 0.018,0.125 -0.229,0.268 -0.246,0.144 -0.382,0.368 -0.301,0.499 0.081,0.13 0.019,0.237 -0.136,0.237 -0.156,0 -0.221,0.101 -0.144,0.225 0.076,0.123 -0.039,0.371 -0.255,0.55 -0.367,0.305 -1.136,1.59 -1.124,1.879 0.021,0.538 -0.022,0.649 -0.207,0.535 -0.212,-0.132 -1.184,1.58 -1.099,1.935 0.025,0.104 -0.068,0.189 -0.207,0.189 -0.139,0 -0.24,0.086 -0.223,0.19 0.083,0.531 -0.062,0.833 -0.322,0.672 -0.166,-0.102 -0.224,-0.071 -0.136,0.073 0.087,0.14 -0.178,0.71 -0.588,1.267 -0.409,0.558 -0.671,1.087 -0.581,1.177 0.089,0.09 0.023,0.163 -0.147,0.163 -0.171,0 -0.244,0.107 -0.163,0.238 0.08,0.13 0.002,0.33 -0.175,0.443 -0.485,0.309 -1.22,1.75 -1.011,1.981 0.101,0.111 0.057,0.131 -0.096,0.043 -0.263,-0.149 -0.999,0.996 -0.904,1.407 0.025,0.104 -0.088,0.189 -0.251,0.189 -0.162,0 -0.218,0.077 -0.124,0.171 0.094,0.095 -0.061,0.418 -0.344,0.72 -0.283,0.302 -0.562,0.791 -0.619,1.088 -0.057,0.296 -0.339,0.791 -0.626,1.099 -0.287,0.308 -0.521,0.652 -0.521,0.765 0,0.113 0,0.262 0,0.332 0,0.07 -0.232,0.358 -0.516,0.642 -0.283,0.283 -0.447,0.625 -0.364,0.759 0.083,0.134 0.03,0.244 -0.117,0.244 -0.148,0 -0.268,0.17 -0.268,0.379 0,0.209 -0.096,0.38 -0.213,0.38 -0.233,0 -0.914,1.277 -0.844,1.581 0.025,0.104 -0.088,0.19 -0.251,0.19 -0.162,0 -0.221,0.073 -0.131,0.163 0.09,0.09 -0.172,0.619 -0.582,1.177 -0.41,0.557 -0.693,1.098 -0.629,1.201 0.064,0.104 -0.061,0.257 -0.277,0.34 -0.217,0.083 -0.324,0.266 -0.237,0.406 0.087,0.14 0.058,0.255 -0.064,0.255 -0.24,0 -1.193,1.778 -1.119,2.087 0.025,0.104 -0.068,0.19 -0.208,0.19 -0.139,0 -0.253,0.161 -0.253,0.358 0,0.197 -0.089,0.397 -0.199,0.443 -0.311,0.132 -1.572,2.407 -1.572,2.837 0,0.211 -0.162,0.476 -0.36,0.587 -0.198,0.111 -0.718,0.883 -1.155,1.715 -0.437,0.831 -0.915,1.657 -1.062,1.834 -0.147,0.177 -0.189,0.322 -0.092,0.322 0.097,0 -0.004,0.18 -0.224,0.4 -0.22,0.22 -0.325,0.522 -0.232,0.671 0.099,0.161 0.049,0.199 -0.125,0.092 -0.256,-0.159 -0.334,-0.017 -0.275,0.504 0.01,0.083 -0.19,0.307 -0.443,0.498 -0.252,0.192 -0.345,0.354 -0.206,0.361 0.164,0.007 0.162,0.077 -0.006,0.198 -0.439,0.314 -1.224,1.661 -0.843,1.444 0.189,-0.107 0.087,0.054 -0.226,0.359 -0.313,0.304 -0.57,0.719 -0.57,0.922 0,0.204 -0.113,0.37 -0.253,0.37 -0.139,0 -0.253,0.125 -0.253,0.277 0,0.153 -0.25,0.629 -0.555,1.058 -0.335,0.469 -0.41,0.704 -0.19,0.589 0.201,-0.105 0.168,-0.029 -0.073,0.17 -0.241,0.198 -0.365,0.434 -0.274,0.524 0.091,0.091 0.05,0.165 -0.09,0.165 -0.234,0 -0.701,0.787 -0.825,1.392 -0.029,0.139 -0.218,0.345 -0.419,0.458 -0.202,0.113 -0.301,0.312 -0.221,0.443 0.081,0.13 0.054,0.237 -0.059,0.237 -0.113,0 -0.369,0.37 -0.569,0.822 -0.199,0.453 -0.511,0.973 -0.694,1.157 -0.182,0.184 -0.332,0.573 -0.332,0.864 0,0.292 -0.078,0.453 -0.173,0.358 -0.175,-0.176 -0.953,1.314 -0.876,1.676 0.023,0.109 -0.129,0.263 -0.338,0.343 -0.21,0.08 -0.318,0.248 -0.241,0.373 0.077,0.124 0.02,0.226 -0.128,0.226 -0.147,0 -0.268,0.157 -0.268,0.349 0,0.191 -0.169,0.489 -0.376,0.661 -0.208,0.172 -0.315,0.413 -0.239,0.537 0.077,0.123 0.043,0.224 -0.074,0.224 -0.118,0 -0.415,0.342 -0.662,0.759 -0.247,0.418 -0.363,0.759 -0.259,0.759 0.104,0 -0.032,0.167 -0.302,0.372 -0.27,0.204 -0.398,0.375 -0.283,0.379 0.114,0.005 -0.026,0.306 -0.313,0.67 -0.287,0.365 -0.448,0.781 -0.359,0.925 0.094,0.152 0.039,0.186 -0.13,0.082 -0.16,-0.099 -0.301,-0.088 -0.311,0.024 -0.071,0.748 -0.279,1.211 -0.962,2.14 -0.425,0.578 -0.702,1.165 -0.616,1.305 0.089,0.143 0.031,0.175 -0.135,0.073 -0.261,-0.161 -0.406,0.141 -0.322,0.672 0.017,0.104 -0.065,0.189 -0.182,0.189 -0.213,0 -0.721,0.937 -0.743,1.369 -0.006,0.127 -0.195,0.333 -0.419,0.458 -0.224,0.126 -0.341,0.335 -0.261,0.466 0.081,0.131 0.02,0.237 -0.136,0.237 -0.155,0 -0.226,0.093 -0.156,0.206 0.07,0.113 -0.151,0.529 -0.491,0.925 -0.34,0.395 -0.627,0.787 -0.637,0.87 -0.095,0.738 -0.305,1.16 -1.09,2.187 -0.499,0.653 -0.852,1.275 -0.786,1.383 0.067,0.107 -0.056,0.264 -0.273,0.347 -0.217,0.083 -0.329,0.256 -0.249,0.385 0.08,0.129 -0.035,0.415 -0.255,0.635 -0.22,0.22 -0.331,0.4 -0.246,0.4 0.085,0 -0.073,0.244 -0.352,0.544 -0.279,0.299 -0.448,0.641 -0.375,0.759 0.073,0.118 0.006,0.215 -0.15,0.215 -0.156,0 -0.212,0.114 -0.125,0.254 0.086,0.14 -0.017,0.322 -0.229,0.403 -0.212,0.082 -0.46,0.394 -0.552,0.694 -0.091,0.3 -0.332,0.735 -0.535,0.967 -0.323,0.368 -0.497,0.848 -0.564,1.555 -0.01,0.112 -0.133,0.134 -0.272,0.048 -0.139,-0.086 -0.253,-0.005 -0.253,0.179 0,0.185 -0.279,0.747 -0.621,1.25 -0.341,0.502 -0.55,0.984 -0.464,1.071 0.087,0.086 0.018,0.157 -0.153,0.157 -0.17,0 -0.247,0.102 -0.17,0.226 0.077,0.125 -0.046,0.298 -0.274,0.386 -0.228,0.087 -0.345,0.228 -0.26,0.313 0.085,0.085 -0.068,0.437 -0.34,0.783 -0.272,0.345 -0.421,0.746 -0.332,0.891 0.09,0.144 0.04,0.187 -0.11,0.094 -0.159,-0.099 -0.392,0.198 -0.564,0.72 -0.161,0.488 -0.391,0.888 -0.51,0.888 -0.232,0 -0.64,1.003 -0.547,1.347 0.031,0.115 -0.06,0.136 -0.203,0.048 -0.142,-0.088 -0.268,-0.068 -0.278,0.045 -0.069,0.724 -0.264,1.162 -0.872,1.96 -0.378,0.495 -0.588,0.903 -0.467,0.905 0.12,0.002 0.057,0.107 -0.142,0.232 -0.199,0.126 -0.388,0.409 -0.421,0.629 -0.032,0.22 -0.353,0.75 -0.713,1.178 -0.36,0.428 -0.669,0.884 -0.687,1.012 -0.017,0.129 -0.06,0.348 -0.095,0.487 -0.034,0.139 -0.077,0.373 -0.095,0.521 -0.017,0.147 -0.126,0.209 -0.242,0.137 -0.213,-0.131 -1.185,1.58 -1.1,1.935 0.025,0.105 -0.049,0.19 -0.165,0.19 -0.116,0 -0.211,0.144 -0.211,0.32 0,0.176 -0.416,0.899 -0.924,1.606 -0.508,0.708 -0.849,1.36 -0.759,1.451 0.091,0.091 0.026,0.165 -0.145,0.165 -0.171,0 -0.244,0.107 -0.163,0.237 0.08,0.131 0.002,0.33 -0.175,0.443 -0.485,0.31 -1.22,1.75 -1.011,1.982 0.101,0.111 0.049,0.125 -0.115,0.031 -0.188,-0.107 -0.418,0.159 -0.62,0.719 -0.177,0.489 -0.432,0.889 -0.566,0.889 -0.135,0 -0.174,0.071 -0.088,0.157 0.086,0.086 -0.01,0.323 -0.213,0.526 -0.204,0.203 -0.294,0.492 -0.202,0.642 0.1,0.161 0.049,0.198 -0.124,0.091 -0.161,-0.1 -0.301,-0.089 -0.312,0.024 -0.068,0.718 -0.246,1.125 -0.715,1.628 -0.491,0.528 -0.568,0.701 -0.508,1.147 0.013,0.092 -0.158,0.268 -0.379,0.392 -0.221,0.124 -0.402,0.447 -0.402,0.719 0,0.271 -0.114,0.493 -0.253,0.493 -0.139,0 -0.253,0.171 -0.253,0.38 0,0.208 -0.096,0.379 -0.213,0.379 -0.233,0 -0.914,1.277 -0.844,1.581 0.025,0.105 -0.088,0.19 -0.251,0.19 -0.162,0 -0.221,0.074 -0.131,0.164 0.09,0.089 -0.172,0.619 -0.582,1.176 -0.41,0.558 -0.693,1.098 -0.629,1.202 0.064,0.103 -0.061,0.256 -0.277,0.339 -0.217,0.084 -0.324,0.266 -0.237,0.406 0.087,0.141 0.058,0.255 -0.064,0.255 -0.24,0 -1.193,1.778 -1.119,2.088 0.025,0.104 -0.068,0.189 -0.207,0.189 -0.14,0 -0.253,0.171 -0.253,0.38 0,0.209 -0.093,0.379 -0.207,0.379 -0.229,0 -1.176,1.789 -1.104,2.088 0.025,0.104 -0.068,0.189 -0.207,0.189 -0.14,0 -0.253,0.222 -0.253,0.494 0,0.271 -0.163,0.584 -0.361,0.696 -0.198,0.111 -0.718,0.882 -1.155,1.714 -0.437,0.832 -0.915,1.657 -1.062,1.834 -0.147,0.178 -0.188,0.322 -0.092,0.322 0.097,0 -0.004,0.18 -0.224,0.4 -0.22,0.22 -0.325,0.523 -0.232,0.672 0.099,0.161 0.049,0.198 -0.124,0.091 -0.261,-0.161 -0.406,0.141 -0.322,0.672 0.016,0.104 -0.084,0.189 -0.224,0.189 -0.139,0 -0.253,0.171 -0.253,0.38 0,0.209 -0.085,0.38 -0.189,0.381 -0.105,0.001 -0.387,0.348 -0.628,0.771 -0.257,0.451 -0.309,0.697 -0.126,0.594 0.171,-0.097 0.055,0.073 -0.258,0.377 -0.313,0.304 -0.57,0.71 -0.57,0.902 0,0.192 -0.089,0.386 -0.198,0.433 -0.109,0.046 -0.45,0.518 -0.759,1.048 -0.309,0.53 -0.419,0.892 -0.245,0.804 0.174,-0.089 0.119,0.001 -0.122,0.199 -0.241,0.198 -0.365,0.434 -0.274,0.525 0.091,0.09 0.05,0.165 -0.09,0.165 -0.235,0 -0.946,1.261 -0.842,1.495 0.025,0.057 -0.138,0.206 -0.362,0.332 -0.224,0.125 -0.341,0.335 -0.26,0.465 0.08,0.131 0.053,0.238 -0.06,0.238 -0.113,0 -0.369,0.37 -0.569,0.822 -0.199,0.452 -0.511,0.973 -0.694,1.156 -0.182,0.184 -0.332,0.561 -0.332,0.838 0,0.276 -0.113,0.432 -0.253,0.346 -0.139,-0.086 -0.253,0.006 -0.253,0.204 0,0.198 -0.254,0.683 -0.564,1.078 -0.325,0.413 -0.406,0.635 -0.19,0.522 0.206,-0.108 0.177,-0.035 -0.064,0.163 -0.241,0.198 -0.365,0.434 -0.274,0.525 0.091,0.091 0.032,0.165 -0.13,0.165 -0.163,0 -0.296,0.157 -0.296,0.348 0,0.192 -0.169,0.489 -0.376,0.661 -0.208,0.172 -0.315,0.414 -0.238,0.537 0.076,0.124 0.042,0.225 -0.075,0.225 -0.304,0 -1.101,1.414 -0.906,1.609 0.089,0.089 0.029,0.162 -0.134,0.162 -0.162,0 -0.295,0.124 -0.295,0.276 0,0.152 -0.226,0.564 -0.502,0.915 -0.277,0.352 -0.43,0.757 -0.341,0.902 0.094,0.152 0.04,0.186 -0.13,0.082 -0.16,-0.1 -0.306,-0.06 -0.323,0.087 -0.018,0.147 -0.046,0.363 -0.064,0.479 -0.017,0.116 -0.373,0.756 -0.79,1.423 -0.418,0.666 -0.728,1.32 -0.69,1.452 0.039,0.132 -0.047,0.168 -0.189,0.08 -0.233,-0.144 -0.37,0.184 -0.29,0.692 0.017,0.105 -0.065,0.19 -0.182,0.19 -0.2,0 -0.668,0.832 -0.784,1.391 -0.028,0.14 -0.217,0.346 -0.419,0.459 -0.201,0.113 -0.3,0.312 -0.22,0.443 0.081,0.13 0.02,0.237 -0.136,0.237 -0.155,0 -0.225,0.092 -0.156,0.206 0.07,0.113 -0.151,0.529 -0.491,0.924 -0.34,0.396 -0.627,0.787 -0.637,0.87 -0.095,0.738 -0.305,1.16 -1.09,2.188 -0.499,0.653 -0.852,1.275 -0.786,1.382 0.067,0.108 -0.056,0.264 -0.273,0.347 -0.217,0.083 -0.329,0.257 -0.249,0.386 0.08,0.129 -0.035,0.414 -0.255,0.634 -0.22,0.22 -0.331,0.4 -0.246,0.4 0.085,0 -0.073,0.245 -0.352,0.544 -0.279,0.3 -0.448,0.641 -0.375,0.759 0.073,0.119 0.006,0.215 -0.15,0.215 -0.155,0 -0.217,0.107 -0.136,0.238 0.081,0.13 -0.011,0.329 -0.204,0.442 -0.48,0.282 -1.199,1.74 -0.978,1.985 0.099,0.11 0.037,0.117 -0.137,0.017 -0.174,-0.1 -0.33,-0.061 -0.348,0.086 -0.017,0.148 -0.06,0.382 -0.094,0.521 -0.035,0.139 -0.078,0.374 -0.095,0.521 -0.018,0.147 -0.146,0.198 -0.285,0.112 -0.139,-0.086 -0.253,-0.001 -0.253,0.189 0,0.19 -0.281,0.726 -0.624,1.191 -0.343,0.465 -0.564,0.943 -0.491,1.061 0.073,0.118 0.006,0.215 -0.15,0.215 -0.156,0 -0.212,0.114 -0.126,0.253 0.086,0.139 0.054,0.253 -0.071,0.253 -0.244,0 -0.932,1.267 -0.859,1.582 0.024,0.104 -0.076,0.189 -0.222,0.189 -0.146,0 -0.439,0.415 -0.651,0.923 -0.212,0.507 -0.548,1.084 -0.746,1.283 -0.344,0.344 -0.464,0.708 -0.385,1.165 0.02,0.115 -0.08,0.137 -0.223,0.049 -0.142,-0.088 -0.259,-0.04 -0.259,0.107 0,0.511 -0.066,0.653 -0.803,1.723 -0.406,0.592 -0.648,1.077 -0.537,1.079 0.111,0.002 0.039,0.107 -0.16,0.233 -0.199,0.126 -0.388,0.409 -0.421,0.629 -0.032,0.22 -0.353,0.75 -0.713,1.178 -0.36,0.428 -0.669,0.883 -0.687,1.012 -0.017,0.128 -0.046,0.351 -0.063,0.496 -0.017,0.144 -0.158,0.343 -0.313,0.442 -0.337,0.217 -1.236,1.873 -1.162,2.142 0.028,0.104 -0.069,0.189 -0.216,0.189 -0.147,0 -0.206,0.1 -0.131,0.223 0.076,0.122 -0.266,0.75 -0.759,1.396 -0.494,0.646 -0.946,1.429 -1.005,1.739 -0.06,0.31 -0.252,0.678 -0.427,0.818 -0.513,0.407 -1.209,1.807 -1.009,2.028 0.101,0.112 0.049,0.126 -0.115,0.032 -0.188,-0.108 -0.418,0.159 -0.62,0.718 -0.177,0.489 -0.42,0.89 -0.539,0.89 -0.119,0 -0.147,0.113 -0.061,0.253 0.086,0.139 0.064,0.253 -0.05,0.253 -0.114,0 -0.357,0.239 -0.54,0.532 -0.275,0.441 -0.275,0.503 0.002,0.361 0.198,-0.101 0.18,-0.034 -0.044,0.164 -0.209,0.185 -0.411,0.485 -0.448,0.668 -0.038,0.182 -0.294,0.573 -0.57,0.869 -0.464,0.498 -0.538,0.671 -0.478,1.115 0.013,0.092 -0.158,0.268 -0.379,0.392 -0.221,0.124 -0.402,0.447 -0.402,0.718 0,0.272 -0.093,0.494 -0.207,0.494 -0.244,0 -1.453,2.065 -1.369,2.34 0.032,0.104 -0.075,0.19 -0.237,0.19 -0.163,0 -0.222,0.073 -0.132,0.163 0.09,0.09 -0.172,0.62 -0.582,1.177 -0.41,0.557 -0.693,1.098 -0.629,1.201 0.064,0.104 -0.061,0.257 -0.277,0.34 -0.217,0.083 -0.324,0.266 -0.237,0.406 0.087,0.14 0.045,0.255 -0.093,0.255 -0.234,0 -0.685,1.013 -0.553,1.242 0.033,0.057 -0.123,0.207 -0.347,0.332 -0.225,0.125 -0.342,0.335 -0.261,0.465 0.081,0.131 0.026,0.238 -0.121,0.238 -0.148,0 -0.268,0.171 -0.268,0.379 0,0.209 -0.093,0.38 -0.206,0.38 -0.23,0 -1.177,1.789 -1.105,2.087 0.025,0.105 -0.068,0.19 -0.207,0.19 -0.14,0 -0.253,0.163 -0.253,0.361 0,0.199 -0.175,0.536 -0.388,0.75 -0.214,0.213 -0.734,1.044 -1.156,1.846 -0.422,0.803 -0.887,1.604 -1.034,1.781 -0.147,0.177 -0.188,0.322 -0.092,0.322 0.097,0 -0.004,0.18 -0.224,0.4 -0.22,0.22 -0.324,0.522 -0.232,0.672 0.099,0.161 0.049,0.198 -0.124,0.091 -0.261,-0.161 -0.406,0.141 -0.322,0.671 0.016,0.105 -0.084,0.19 -0.223,0.19 -0.14,0 -0.253,0.171 -0.253,0.38 0,0.208 -0.086,0.38 -0.19,0.381 -0.105,0.001 -0.387,0.347 -0.628,0.771 -0.256,0.451 -0.309,0.696 -0.126,0.593 0.171,-0.096 0.055,0.074 -0.258,0.378 -0.313,0.304 -0.569,0.67 -0.569,0.814 0,0.144 -0.177,0.438 -0.392,0.653 -0.216,0.216 -0.46,0.73 -0.542,1.142 -0.083,0.413 -0.304,0.81 -0.493,0.882 -0.188,0.072 -0.279,0.233 -0.202,0.358 0.077,0.124 0.038,0.226 -0.087,0.226 -0.216,0 -0.912,1.277 -0.815,1.495 0.025,0.058 -0.138,0.207 -0.362,0.332 -0.224,0.126 -0.341,0.335 -0.26,0.466 0.08,0.13 0.054,0.237 -0.06,0.237 -0.113,0 -0.369,0.37 -0.568,0.822 -0.2,0.453 -0.512,0.973 -0.695,1.157 -0.182,0.184 -0.332,0.497 -0.332,0.696 0,0.199 -0.113,0.361 -0.253,0.361 -0.139,0 -0.253,0.156 -0.253,0.346 0,0.19 -0.254,0.668 -0.564,1.063 -0.325,0.413 -0.405,0.634 -0.19,0.521 0.206,-0.108 0.177,-0.034 -0.064,0.164 -0.241,0.198 -0.365,0.434 -0.274,0.525 0.091,0.09 0.032,0.164 -0.13,0.164 -0.163,0 -0.296,0.157 -0.296,0.349 0,0.192 -0.169,0.489 -0.376,0.661 -0.207,0.172 -0.315,0.414 -0.238,0.537 0.076,0.123 0.021,0.224 -0.123,0.224 -0.328,0 -1.069,1.398 -0.855,1.613 0.087,0.087 0.026,0.158 -0.136,0.158 -0.163,0 -0.296,0.125 -0.296,0.277 0,0.152 -0.226,0.564 -0.502,0.915 -0.277,0.351 -0.43,0.757 -0.341,0.901 0.094,0.152 0.04,0.187 -0.13,0.082 -0.16,-0.099 -0.306,-0.06 -0.323,0.087 -0.018,0.148 -0.046,0.363 -0.064,0.479 -0.017,0.116 -0.373,0.757 -0.79,1.423 -0.418,0.667 -0.728,1.32 -0.69,1.453 0.039,0.132 -0.047,0.168 -0.189,0.08 -0.233,-0.144 -0.37,0.183 -0.29,0.692 0.017,0.104 -0.065,0.189 -0.182,0.189 -0.211,0 -0.72,0.933 -0.744,1.364 -0.007,0.123 -0.156,0.313 -0.333,0.422 -0.176,0.109 -0.346,0.378 -0.378,0.598 -0.033,0.22 -0.354,0.75 -0.714,1.178 -0.36,0.428 -0.663,0.855 -0.674,0.949 -0.084,0.735 -0.299,1.171 -1.09,2.208 -0.499,0.652 -0.852,1.274 -0.786,1.382 0.067,0.108 -0.056,0.264 -0.273,0.347 -0.216,0.083 -0.329,0.257 -0.249,0.385 0.08,0.129 -0.035,0.415 -0.255,0.635 -0.22,0.22 -0.33,0.4 -0.245,0.4 0.084,0 -0.074,0.245 -0.353,0.544 -0.279,0.299 -0.448,0.641 -0.375,0.759 0.073,0.118 0.006,0.215 -0.15,0.215 -0.155,0 -0.217,0.107 -0.136,0.237 0.081,0.131 -0.003,0.33 -0.186,0.443 -0.445,0.274 -1.538,2.178 -1.133,1.973 0.174,-0.089 0.089,0.023 -0.189,0.248 -0.279,0.225 -0.461,0.473 -0.406,0.552 0.098,0.139 -0.044,0.373 -1.167,1.921 -0.309,0.425 -0.501,0.87 -0.428,0.989 0.073,0.118 0.006,0.215 -0.15,0.215 -0.155,0 -0.212,0.114 -0.126,0.253 0.086,0.139 0.054,0.253 -0.071,0.253 -0.244,0 -0.932,1.266 -0.859,1.581 0.024,0.104 -0.076,0.19 -0.222,0.19 -0.146,0 -0.439,0.415 -0.651,0.922 -0.212,0.508 -0.548,1.085 -0.746,1.283 -0.344,0.344 -0.464,0.708 -0.385,1.166 0.02,0.115 -0.08,0.136 -0.223,0.048 -0.142,-0.088 -0.259,-0.039 -0.259,0.108 0,0.535 -0.061,0.663 -0.775,1.634 -0.399,0.543 -0.673,1.072 -0.609,1.176 0.064,0.103 -0.061,0.256 -0.278,0.339 -0.217,0.083 -0.332,0.252 -0.255,0.376 0.076,0.124 -0.201,0.652 -0.617,1.175 -0.415,0.523 -0.769,1.049 -0.787,1.169 -0.017,0.12 -0.045,0.336 -0.063,0.48 -0.017,0.144 -0.158,0.344 -0.312,0.443 C 0.844,344.963 0,346.435 0,346.73 c 0,0.491 124.196,0.124 124.352,-0.367 0.088,-0.278 0.259,-0.506 0.379,-0.506 0.201,0 0.525,-0.709 0.656,-1.437 0.029,-0.165 0.461,-0.833 0.96,-1.486 0.498,-0.653 0.844,-1.287 0.769,-1.409 -0.076,-0.122 -0.017,-0.222 0.13,-0.222 0.148,0 0.268,-0.157 0.268,-0.349 0,-0.191 0.17,-0.489 0.377,-0.661 0.207,-0.172 0.322,-0.401 0.254,-0.51 -0.067,-0.109 0.055,-0.266 0.272,-0.349 0.217,-0.083 0.323,-0.266 0.237,-0.406 -0.087,-0.14 -0.018,-0.255 0.152,-0.255 0.171,0 0.238,-0.073 0.149,-0.162 -0.089,-0.089 0.121,-0.497 0.466,-0.907 0.344,-0.41 0.562,-0.849 0.484,-0.977 -0.079,-0.127 -0.004,-0.231 0.167,-0.231 0.17,0 0.236,-0.074 0.146,-0.164 -0.09,-0.089 0.172,-0.619 0.582,-1.176 0.41,-0.557 0.674,-1.128 0.588,-1.267 -0.089,-0.144 -0.03,-0.176 0.135,-0.074 0.261,0.161 0.406,-0.141 0.322,-0.671 -0.016,-0.105 0.084,-0.19 0.223,-0.19 0.139,0 0.253,-0.157 0.253,-0.349 0,-0.191 0.17,-0.489 0.377,-0.661 0.207,-0.172 0.322,-0.402 0.254,-0.51 -0.067,-0.109 0.056,-0.266 0.272,-0.349 0.217,-0.084 0.332,-0.253 0.256,-0.376 -0.077,-0.124 0.199,-0.651 0.612,-1.171 0.414,-0.52 0.69,-1.046 0.614,-1.168 -0.076,-0.123 0.002,-0.223 0.173,-0.223 0.17,0 0.236,-0.074 0.146,-0.164 -0.09,-0.09 0.172,-0.619 0.582,-1.176 0.41,-0.558 0.675,-1.128 0.588,-1.268 -0.089,-0.143 -0.03,-0.175 0.135,-0.073 0.261,0.161 0.406,-0.141 0.322,-0.672 -0.016,-0.104 0.066,-0.189 0.183,-0.189 0.203,0 0.895,-1.286 0.801,-1.49 -0.025,-0.054 0.099,-0.187 0.275,-0.296 0.176,-0.109 0.349,-0.39 0.383,-0.625 0.034,-0.235 0.302,-0.682 0.594,-0.993 0.292,-0.311 0.58,-0.817 0.639,-1.124 0.059,-0.308 0.451,-1.026 0.87,-1.596 0.419,-0.57 0.692,-1.151 0.605,-1.291 -0.089,-0.143 -0.03,-0.175 0.135,-0.073 0.161,0.099 0.292,0.06 0.292,-0.088 0,-0.459 0.085,-0.632 0.556,-1.137 0.418,-0.449 0.488,-0.618 0.44,-1.051 -0.01,-0.082 0.19,-0.306 0.442,-0.498 0.253,-0.192 0.361,-0.352 0.24,-0.356 -0.121,-0.005 0.085,-0.408 0.458,-0.897 0.373,-0.489 0.724,-1.127 0.78,-1.419 0.056,-0.291 0.391,-0.909 0.744,-1.371 0.353,-0.463 0.642,-1.027 0.642,-1.253 0,-0.226 0.113,-0.341 0.253,-0.255 0.139,0.086 0.253,0.036 0.253,-0.112 0,-0.46 0.084,-0.632 0.555,-1.138 0.418,-0.448 0.488,-0.617 0.44,-1.05 -0.01,-0.082 0.19,-0.307 0.442,-0.498 0.253,-0.192 0.361,-0.352 0.24,-0.357 -0.121,-0.004 0.09,-0.413 0.468,-0.909 0.378,-0.495 0.71,-1.036 0.738,-1.201 0.072,-0.43 0.679,-1.496 1.078,-1.895 0.187,-0.187 0.34,-0.566 0.34,-0.843 0,-0.276 0.113,-0.432 0.253,-0.346 0.215,0.133 0.375,-0.246 0.189,-0.449 -0.034,-0.038 0.193,-0.344 0.506,-0.68 0.534,-0.573 0.672,-0.881 0.6,-1.338 -0.017,-0.104 0.084,-0.19 0.223,-0.19 0.139,0 0.253,-0.124 0.253,-0.276 0,-0.152 0.226,-0.564 0.502,-0.915 0.277,-0.352 0.43,-0.757 0.341,-0.902 -0.094,-0.152 -0.04,-0.186 0.13,-0.081 0.16,0.099 0.306,0.059 0.323,-0.088 0.089,-0.751 0.743,-2.039 1.036,-2.039 0.125,0 0.157,-0.114 0.071,-0.253 -0.086,-0.139 -0.036,-0.253 0.112,-0.253 0.147,0 0.268,-0.157 0.268,-0.348 0,-0.192 0.169,-0.49 0.376,-0.662 0.208,-0.172 0.315,-0.413 0.239,-0.537 -0.077,-0.123 -0.043,-0.224 0.074,-0.224 0.304,0 1.101,-1.414 0.906,-1.609 -0.089,-0.089 -0.029,-0.162 0.134,-0.162 0.162,0 0.295,-0.121 0.295,-0.27 0,-0.148 0.284,-0.643 0.632,-1.099 0.348,-0.456 0.633,-1.004 0.633,-1.217 0,-0.213 0.171,-0.53 0.379,-0.703 0.209,-0.173 0.38,-0.472 0.38,-0.663 0,-0.192 0.12,-0.349 0.268,-0.349 0.147,0 0.197,-0.114 0.111,-0.253 -0.086,-0.139 -0.035,-0.253 0.112,-0.253 0.147,0 0.268,-0.157 0.268,-0.349 0,-0.191 0.173,-0.492 0.385,-0.668 0.213,-0.176 0.336,-0.37 0.275,-0.432 -0.062,-0.061 0.106,-0.329 0.373,-0.596 0.267,-0.267 0.485,-0.713 0.485,-0.991 0,-0.278 0.114,-0.506 0.253,-0.506 0.139,0 0.253,-0.122 0.253,-0.27 0,-0.148 0.284,-0.643 0.632,-1.099 0.348,-0.456 0.633,-1.004 0.633,-1.217 0,-0.214 0.169,-0.529 0.377,-0.701 0.207,-0.172 0.313,-0.414 0.237,-0.539 -0.077,-0.124 0.037,-0.294 0.254,-0.377 0.217,-0.083 0.331,-0.253 0.254,-0.378 -0.077,-0.124 -0.019,-0.226 0.128,-0.226 0.147,0 0.268,-0.157 0.268,-0.349 0,-0.191 0.173,-0.492 0.386,-0.668 0.212,-0.176 0.335,-0.37 0.274,-0.432 -0.062,-0.061 0.106,-0.33 0.373,-0.596 0.267,-0.267 0.485,-0.713 0.485,-0.991 0,-0.279 0.114,-0.506 0.253,-0.506 0.139,0 0.253,-0.157 0.253,-0.349 0,-0.191 0.171,-0.49 0.379,-0.663 0.209,-0.173 0.38,-0.536 0.38,-0.805 0,-0.27 0.114,-0.42 0.253,-0.334 0.139,0.086 0.253,-0.006 0.253,-0.204 0,-0.198 0.254,-0.683 0.565,-1.078 0.324,-0.413 0.405,-0.634 0.189,-0.521 -0.206,0.108 -0.177,0.034 0.064,-0.164 0.242,-0.198 0.365,-0.434 0.274,-0.525 -0.09,-0.09 -0.032,-0.164 0.131,-0.164 0.162,0 0.295,-0.157 0.295,-0.349 0,-0.192 0.169,-0.489 0.377,-0.661 0.207,-0.172 0.321,-0.402 0.254,-0.51 -0.067,-0.109 0.055,-0.266 0.272,-0.35 0.217,-0.083 0.323,-0.265 0.237,-0.406 -0.087,-0.14 -0.065,-0.254 0.048,-0.254 0.114,0 0.37,-0.37 0.569,-0.823 0.199,-0.452 0.512,-0.972 0.694,-1.156 0.183,-0.184 0.332,-0.561 0.332,-0.837 0,-0.277 0.114,-0.433 0.253,-0.347 0.139,0.086 0.253,-0.006 0.253,-0.204 0,-0.198 0.254,-0.683 0.565,-1.078 0.324,-0.413 0.405,-0.634 0.189,-0.521 -0.206,0.108 -0.177,0.034 0.064,-0.164 0.242,-0.198 0.365,-0.434 0.274,-0.525 -0.09,-0.09 -0.031,-0.164 0.131,-0.164 0.162,0 0.295,-0.157 0.295,-0.349 0,-0.192 0.17,-0.489 0.377,-0.661 0.207,-0.172 0.321,-0.402 0.254,-0.511 -0.067,-0.108 0.055,-0.266 0.272,-0.349 0.217,-0.083 0.323,-0.266 0.237,-0.406 -0.087,-0.14 -0.065,-0.255 0.048,-0.255 0.114,0 0.37,-0.37 0.569,-0.822 0.199,-0.452 0.512,-0.972 0.694,-1.156 0.183,-0.184 0.332,-0.497 0.332,-0.696 0,-0.199 0.114,-0.362 0.253,-0.362 0.139,0 0.253,-0.124 0.253,-0.277 0,-0.152 0.25,-0.628 0.556,-1.057 0.334,-0.47 0.41,-0.705 0.19,-0.59 -0.202,0.105 -0.169,0.029 0.072,-0.169 0.242,-0.198 0.365,-0.434 0.275,-0.525 -0.091,-0.09 -0.032,-0.165 0.13,-0.165 0.162,0 0.295,-0.156 0.295,-0.348 0,-0.192 0.17,-0.489 0.377,-0.661 0.207,-0.172 0.322,-0.402 0.254,-0.511 -0.067,-0.109 0.055,-0.266 0.272,-0.349 0.217,-0.083 0.323,-0.266 0.237,-0.406 -0.087,-0.14 -0.065,-0.255 0.048,-0.255 0.114,0 0.37,-0.37 0.569,-0.822 0.199,-0.452 0.512,-0.973 0.694,-1.157 0.183,-0.183 0.332,-0.496 0.332,-0.695 0,-0.199 0.114,-0.362 0.253,-0.362 0.139,0 0.253,-0.124 0.253,-0.277 0,-0.152 0.25,-0.628 0.556,-1.058 0.334,-0.469 0.41,-0.704 0.19,-0.589 -0.202,0.105 -0.169,0.029 0.073,-0.169 0.241,-0.198 0.364,-0.434 0.274,-0.525 -0.091,-0.091 -0.051,-0.165 0.089,-0.165 0.246,0 0.762,-0.898 0.785,-1.369 0.007,-0.126 0.195,-0.332 0.419,-0.458 0.225,-0.125 0.342,-0.335 0.261,-0.465 -0.081,-0.131 -0.039,-0.238 0.092,-0.238 0.196,0 0.468,-0.543 0.643,-1.283 0.018,-0.079 0.233,-0.344 0.477,-0.587 0.243,-0.244 0.442,-0.606 0.442,-0.804 0,-0.199 0.114,-0.362 0.253,-0.362 0.139,0 0.253,-0.125 0.253,-0.277 0,-0.153 0.25,-0.628 0.556,-1.058 0.334,-0.469 0.41,-0.704 0.19,-0.589 -0.202,0.105 -0.169,0.029 0.073,-0.169 0.241,-0.198 0.364,-0.435 0.274,-0.525 -0.091,-0.091 -0.05,-0.165 0.09,-0.165 0.246,0 0.761,-0.898 0.784,-1.369 0.007,-0.126 0.195,-0.333 0.419,-0.458 0.225,-0.125 0.342,-0.335 0.261,-0.465 -0.08,-0.131 -0.026,-0.238 0.121,-0.238 0.148,0 0.268,-0.133 0.268,-0.296 0,-0.163 0.2,-0.524 0.443,-0.803 0.321,-0.367 0.338,-0.449 0.063,-0.299 -0.208,0.114 -0.123,-0.041 0.19,-0.346 0.313,-0.304 0.569,-0.67 0.569,-0.814 0,-0.144 0.171,-0.432 0.379,-0.64 0.209,-0.209 0.45,-0.685 0.537,-1.057 0.086,-0.373 0.336,-0.821 0.555,-0.995 0.218,-0.174 0.31,-0.316 0.204,-0.316 -0.106,0 -0.013,-0.18 0.207,-0.4 0.22,-0.22 0.324,-0.522 0.232,-0.672 -0.099,-0.161 -0.049,-0.198 0.124,-0.091 0.161,0.1 0.292,0.06 0.292,-0.087 0,-0.556 0.046,-0.653 0.403,-0.853 0.202,-0.113 0.301,-0.312 0.22,-0.443 -0.08,-0.13 -0.026,-0.237 0.121,-0.237 0.148,0 0.268,-0.133 0.268,-0.296 0,-0.163 0.2,-0.525 0.443,-0.803 0.321,-0.367 0.338,-0.449 0.063,-0.299 -0.208,0.114 -0.123,-0.042 0.19,-0.346 0.313,-0.304 0.569,-0.67 0.569,-0.814 0,-0.144 0.171,-0.432 0.38,-0.64 0.208,-0.209 0.449,-0.685 0.536,-1.058 0.086,-0.373 0.336,-0.82 0.555,-0.994 0.218,-0.174 0.31,-0.316 0.204,-0.316 -0.106,0 -0.013,-0.18 0.207,-0.4 0.22,-0.22 0.325,-0.522 0.232,-0.672 -0.099,-0.161 -0.049,-0.198 0.124,-0.091 0.261,0.161 0.406,-0.141 0.322,-0.671 -0.016,-0.105 0.084,-0.19 0.223,-0.19 0.14,0 0.253,-0.164 0.253,-0.364 0,-0.205 0.216,-0.348 0.496,-0.326 0.272,0.02 0.446,0.086 0.386,0.146 -0.155,0.155 0.699,1.642 1.085,1.888 0.176,0.113 0.255,0.312 0.174,0.442 -0.08,0.131 -0.019,0.238 0.137,0.238 0.155,0 0.212,0.114 0.125,0.255 -0.087,0.14 0.02,0.322 0.237,0.406 0.216,0.083 0.339,0.24 0.271,0.349 -0.067,0.108 0.046,0.337 0.252,0.508 0.206,0.171 0.314,0.407 0.241,0.525 -0.073,0.119 0.099,0.447 0.382,0.731 0.284,0.283 0.517,0.6 0.519,0.705 0.007,0.461 0.304,1.075 0.52,1.075 0.129,0 0.236,0.171 0.236,0.379 0,0.209 0.132,0.38 0.295,0.38 0.162,0 0.22,0.075 0.127,0.167 -0.092,0.092 0.123,0.548 0.477,1.012 0.354,0.465 0.56,0.845 0.457,0.845 -0.104,0 0.033,0.179 0.303,0.398 0.27,0.219 0.32,0.325 0.112,0.234 -0.209,-0.09 -0.159,0.016 0.111,0.235 0.27,0.219 0.399,0.398 0.286,0.398 -0.112,0 0.089,0.384 0.447,0.854 0.359,0.47 0.581,0.926 0.494,1.012 -0.087,0.087 -0.018,0.158 0.152,0.158 0.171,0 0.251,0.097 0.178,0.215 -0.073,0.118 0.119,0.485 0.428,0.816 0.308,0.331 0.525,0.636 0.483,0.678 -0.136,0.134 1.035,2.322 1.524,2.846 0.259,0.278 0.387,0.505 0.286,0.505 -0.102,0 0.036,0.179 0.306,0.398 0.27,0.219 0.32,0.325 0.112,0.235 -0.209,-0.091 -0.159,0.015 0.111,0.234 0.27,0.219 0.405,0.398 0.299,0.398 -0.105,0 0.044,0.331 0.331,0.735 0.288,0.404 0.524,0.859 0.524,1.012 0,0.152 0.12,0.277 0.268,0.277 0.147,0 0.203,0.104 0.124,0.232 -0.078,0.127 0.14,0.567 0.484,0.977 0.345,0.41 0.555,0.818 0.466,0.907 -0.089,0.088 -0.01,0.161 0.176,0.161 0.185,0 0.262,0.076 0.17,0.168 -0.092,0.092 0.116,0.54 0.463,0.995 0.348,0.455 0.632,0.949 0.632,1.097 0,0.149 0.12,0.27 0.268,0.27 0.147,0 0.197,0.114 0.111,0.253 -0.086,0.139 -0.017,0.253 0.154,0.253 0.171,0 0.238,0.073 0.149,0.161 -0.089,0.089 0.063,0.477 0.337,0.862 0.274,0.385 0.499,0.825 0.499,0.977 0,0.153 0.12,0.277 0.268,0.277 0.147,0 0.197,0.115 0.11,0.255 -0.086,0.14 0.02,0.323 0.237,0.406 0.217,0.083 0.331,0.253 0.254,0.378 -0.077,0.124 -0.013,0.226 0.143,0.226 0.155,0 0.212,0.114 0.126,0.253 -0.086,0.139 -0.029,0.253 0.127,0.253 0.155,0 0.212,0.115 0.125,0.255 -0.086,0.14 0.02,0.323 0.237,0.406 0.217,0.083 0.333,0.249 0.26,0.369 -0.074,0.119 0.097,0.449 0.381,0.732 0.283,0.283 0.516,0.601 0.518,0.705 0.007,0.461 0.304,1.075 0.52,1.075 0.13,0 0.236,0.171 0.236,0.38 0,0.209 0.12,0.379 0.268,0.379 0.147,0 0.197,0.114 0.111,0.253 -0.086,0.14 -0.045,0.253 0.091,0.253 0.136,0 0.442,0.51 0.68,1.134 0.262,0.687 0.544,1.07 0.717,0.971 0.156,-0.089 0.201,-0.071 0.1,0.041 -0.209,0.231 0.526,1.672 1.011,1.981 0.177,0.113 0.256,0.312 0.175,0.443 -0.081,0.131 -0.026,0.237 0.121,0.237 0.147,0 0.247,0.086 0.222,0.19 -0.074,0.31 0.879,2.088 1.12,2.088 0.121,0 0.15,0.114 0.063,0.254 -0.086,0.14 0.02,0.323 0.237,0.406 0.217,0.084 0.339,0.241 0.272,0.349 -0.067,0.109 0.046,0.338 0.251,0.509 0.206,0.17 0.312,0.411 0.236,0.534 -0.077,0.124 -0.018,0.225 0.129,0.225 0.147,0 0.268,0.153 0.268,0.341 0,0.188 0.334,0.803 0.742,1.366 0.408,0.564 0.674,1.093 0.591,1.177 -0.084,0.083 -0.001,0.152 0.185,0.152 0.186,0 0.264,0.073 0.174,0.163 -0.09,0.09 0.261,0.741 0.78,1.448 0.519,0.707 0.915,1.317 0.88,1.355 -0.203,0.224 -0.014,0.576 0.229,0.425 0.173,-0.107 0.224,-0.07 0.124,0.091 -0.092,0.15 -0.001,0.438 0.202,0.642 0.204,0.203 0.299,0.44 0.213,0.526 -0.086,0.086 -0.017,0.157 0.154,0.157 0.17,0 0.247,0.102 0.17,0.226 -0.077,0.125 0.031,0.292 0.24,0.373 0.21,0.08 0.357,0.234 0.328,0.342 -0.083,0.312 0.316,1.336 0.52,1.336 0.102,0 0.33,0.4 0.507,0.889 0.19,0.525 0.434,0.82 0.596,0.72 0.152,-0.094 0.202,-0.053 0.112,0.093 -0.089,0.144 0.06,0.545 0.332,0.891 0.272,0.345 0.425,0.698 0.34,0.782 -0.085,0.085 0.032,0.226 0.26,0.314 0.228,0.087 0.357,0.252 0.287,0.365 -0.07,0.113 0.044,0.378 0.254,0.588 0.21,0.21 0.382,0.504 0.382,0.653 0,0.149 0.121,0.271 0.268,0.271 0.147,0 0.198,0.114 0.112,0.253 -0.086,0.139 -0.017,0.253 0.153,0.253 0.171,0 0.236,0.074 0.146,0.165 -0.091,0.09 0.032,0.326 0.274,0.524 0.241,0.198 0.299,0.29 0.127,0.203 -0.188,-0.095 -0.137,0.148 0.127,0.612 0.241,0.424 0.53,0.77 0.642,0.771 0.113,10e-4 0.134,0.117 0.048,0.257 -0.087,0.14 0.019,0.323 0.236,0.406 0.217,0.083 0.331,0.253 0.254,0.377 -0.077,0.125 -0.019,0.227 0.128,0.227 0.148,0 0.245,0.085 0.216,0.19 -0.058,0.211 0.787,1.889 1.051,2.087 0.092,0.07 0.318,0.496 0.501,0.949 0.183,0.452 0.433,0.822 0.555,0.822 0.122,0 0.222,0.171 0.222,0.379 0,0.209 0.133,0.38 0.295,0.38 0.163,0 0.221,0.074 0.131,0.165 -0.091,0.09 0.033,0.326 0.274,0.524 0.268,0.22 0.291,0.287 0.059,0.172 -0.281,-0.14 -0.265,-0.058 0.063,0.317 0.244,0.279 0.443,0.632 0.443,0.785 0,0.153 0.199,0.477 0.443,0.721 0.243,0.243 0.457,0.536 0.474,0.65 0.018,0.115 0.046,0.304 0.064,0.422 0.017,0.117 0.309,0.537 0.649,0.933 0.34,0.395 0.561,0.812 0.491,0.925 -0.069,0.113 0.001,0.205 0.156,0.205 0.156,0 0.221,0.101 0.144,0.224 -0.076,0.124 0.031,0.365 0.239,0.537 0.207,0.172 0.376,0.47 0.376,0.662 0,0.191 0.121,0.348 0.268,0.348 0.148,0 0.197,0.115 0.111,0.255 -0.087,0.14 0.02,0.323 0.236,0.406 0.217,0.083 0.342,0.236 0.278,0.34 -0.064,0.103 0.219,0.644 0.629,1.201 0.409,0.557 0.671,1.087 0.581,1.177 -0.089,0.09 -0.023,0.163 0.147,0.163 0.171,0 0.244,0.107 0.163,0.238 -0.08,0.13 0.037,0.34 0.261,0.465 0.224,0.126 0.391,0.307 0.371,0.402 -0.084,0.396 1.103,2.405 1.335,2.262 0.139,-0.086 0.177,-0.034 0.085,0.115 -0.092,0.149 0.128,0.622 0.49,1.051 0.361,0.429 0.677,0.924 0.703,1.101 0.026,0.176 0.326,0.772 0.667,1.324 0.341,0.552 0.643,1.157 0.671,1.346 0.028,0.188 0.23,0.541 0.449,0.783 0.219,0.242 0.398,0.574 0.398,0.737 0,0.163 0.121,0.296 0.268,0.296 0.148,0 0.198,0.114 0.112,0.253 -0.086,0.14 -0.036,0.253 0.111,0.253 0.148,0 0.268,0.145 0.268,0.321 0,0.177 0.31,0.774 0.688,1.328 0.379,0.555 0.709,1.143 0.735,1.309 0.025,0.165 0.355,0.706 0.733,1.202 0.378,0.495 0.589,0.904 0.468,0.908 -0.121,0.004 -0.018,0.125 0.228,0.269 0.246,0.143 0.382,0.367 0.301,0.498 -0.08,0.131 -0.019,0.237 0.136,0.237 0.156,0 0.224,0.097 0.151,0.215 -0.073,0.118 0.119,0.486 0.427,0.816 0.309,0.331 0.533,0.633 0.498,0.671 -0.204,0.224 -0.015,0.575 0.229,0.425 0.172,-0.107 0.223,-0.07 0.125,0.089 -0.177,0.286 0.59,1.828 0.911,1.831 0.104,0.001 0.19,0.172 0.19,0.381 0,0.209 0.132,0.38 0.295,0.38 0.162,0 0.221,0.074 0.13,0.164 -0.09,0.091 0.033,0.327 0.274,0.525 0.268,0.22 0.291,0.287 0.06,0.171 -0.315,-0.156 -0.31,-0.105 0.026,0.298 0.223,0.267 0.572,0.828 0.775,1.245 0.613,1.256 1.078,1.999 1.426,2.279 0.182,0.146 0.356,0.437 0.387,0.648 0.031,0.211 0.331,0.834 0.667,1.385 0.336,0.55 0.617,1.091 0.625,1.2 0.009,0.11 0.186,0.307 0.395,0.439 0.208,0.132 0.29,0.242 0.18,0.244 -0.109,0.002 0.09,0.429 0.443,0.948 0.353,0.519 0.642,1.08 0.642,1.246 0,0.165 0.281,0.635 0.625,1.044 0.344,0.409 0.553,0.816 0.464,0.905 -0.089,0.089 -0.022,0.162 0.148,0.162 0.171,0 0.24,0.114 0.153,0.255 -0.087,0.14 0.02,0.322 0.237,0.406 0.216,0.083 0.335,0.246 0.263,0.362 -0.071,0.116 0.072,0.324 0.318,0.461 0.247,0.138 0.416,0.288 0.376,0.332 -0.196,0.22 0.535,1.704 0.768,1.56 0.15,-0.093 0.194,-0.046 0.1,0.106 -0.092,0.15 0.012,0.452 0.232,0.672 0.22,0.22 0.33,0.4 0.245,0.4 -0.085,0 0.065,0.235 0.334,0.523 0.268,0.288 0.556,0.865 0.639,1.282 0.103,0.516 0.254,0.7 0.471,0.575 0.176,-0.101 0.242,-0.098 0.147,0.008 -0.208,0.231 0.76,2.166 1.083,2.166 0.125,0 0.208,0.085 0.184,0.19 -0.074,0.314 0.614,1.581 0.858,1.581 0.125,0 0.163,0.105 0.084,0.233 -0.079,0.128 0.028,0.404 0.238,0.614 0.21,0.21 0.382,0.504 0.382,0.653 0,0.149 0.133,0.271 0.295,0.271 0.162,0 0.218,0.077 0.124,0.171 -0.094,0.094 0.086,0.454 0.401,0.8 0.314,0.346 0.427,0.545 0.251,0.444 -0.177,-0.102 -0.007,0.335 0.377,0.971 l 0.699,1.156 h 62.177 c 65.404,0 63.064,0.038 61.798,-1.012 -0.208,-0.173 -0.379,-0.472 -0.379,-0.663 0,-0.192 -0.121,-0.349 -0.268,-0.349 -0.147,0 -0.203,-0.105 -0.124,-0.233 0.079,-0.128 -0.028,-0.404 -0.238,-0.614 -0.21,-0.21 -0.382,-0.504 -0.382,-0.653 0,-0.149 -0.133,-0.271 -0.295,-0.271 -0.163,0 -0.221,-0.074 -0.131,-0.165 0.091,-0.09 -0.032,-0.326 -0.274,-0.525 -0.268,-0.219 -0.291,-0.286 -0.059,-0.171 0.325,0.162 0.323,0.119 -0.014,-0.297 -0.217,-0.268 -0.528,-0.8 -0.691,-1.182 -0.163,-0.383 -0.419,-0.696 -0.57,-0.696 -0.15,0 -0.208,-0.105 -0.129,-0.233 0.079,-0.128 -0.023,-0.399 -0.226,-0.602 -0.204,-0.203 -0.3,-0.44 -0.213,-0.526 0.086,-0.087 0.023,-0.157 -0.139,-0.157 -0.162,0 -0.295,-0.171 -0.295,-0.38 0,-0.208 -0.133,-0.379 -0.295,-0.379 -0.163,0 -0.223,-0.073 -0.134,-0.161 0.088,-0.089 -0.092,-0.516 -0.4,-0.949 -0.309,-0.433 -0.562,-0.877 -0.562,-0.987 0,-0.109 -0.153,-0.293 -0.338,-0.407 -0.186,-0.115 -0.332,-0.253 -0.324,-0.307 0.051,-0.347 -0.324,-1.237 -0.522,-1.237 -0.131,0 -0.178,-0.097 -0.105,-0.215 0.073,-0.118 -0.085,-0.447 -0.35,-0.732 -0.265,-0.284 -0.413,-0.586 -0.328,-0.671 0.084,-0.084 0.014,-0.153 -0.157,-0.153 -0.17,0 -0.239,-0.115 -0.153,-0.255 0.087,-0.14 -0.019,-0.323 -0.236,-0.406 -0.217,-0.083 -0.336,-0.246 -0.264,-0.362 0.072,-0.116 -0.071,-0.329 -0.318,-0.472 -0.246,-0.143 -0.345,-0.264 -0.219,-0.269 0.126,-0.004 0.012,-0.247 -0.253,-0.54 -0.265,-0.293 -0.453,-0.577 -0.418,-0.632 0.184,-0.291 0.023,-0.611 -0.229,-0.456 -0.173,0.107 -0.224,0.07 -0.124,-0.091 0.092,-0.149 -0.012,-0.451 -0.232,-0.671 -0.22,-0.22 -0.314,-0.4 -0.207,-0.4 0.106,0 -0.006,-0.146 -0.249,-0.323 -0.378,-0.277 -0.557,-0.69 -0.648,-1.493 -0.01,-0.095 -0.218,-0.371 -0.462,-0.615 -0.243,-0.243 -0.457,-0.536 -0.474,-0.651 -0.018,-0.114 -0.046,-0.303 -0.064,-0.421 -0.017,-0.117 -0.309,-0.537 -0.649,-0.933 -0.34,-0.396 -0.561,-0.812 -0.491,-0.925 0.069,-0.113 -10e-4,-0.205 -0.156,-0.205 -0.156,0 -0.221,-0.101 -0.144,-0.225 0.076,-0.123 -0.031,-0.365 -0.239,-0.537 -0.207,-0.172 -0.376,-0.428 -0.376,-0.57 0,-0.141 -0.2,-0.42 -0.443,-0.62 -0.29,-0.237 -0.312,-0.306 -0.063,-0.199 0.208,0.09 0.158,-0.015 -0.112,-0.234 -0.27,-0.219 -0.407,-0.398 -0.303,-0.398 0.103,0 -0.102,-0.38 -0.457,-0.845 -0.354,-0.464 -0.569,-0.92 -0.476,-1.012 0.092,-0.092 0.027,-0.167 -0.143,-0.167 -0.171,0 -0.25,-0.097 -0.177,-0.215 0.072,-0.118 -0.063,-0.436 -0.302,-0.706 -0.239,-0.27 -0.469,-0.657 -0.511,-0.86 -0.042,-0.204 -0.224,-0.484 -0.405,-0.623 -0.18,-0.139 -0.346,-0.367 -0.368,-0.506 -0.107,-0.655 -0.344,-1.139 -0.558,-1.139 -0.13,0 -0.236,-0.17 -0.236,-0.379 0,-0.209 -0.121,-0.38 -0.268,-0.38 -0.148,0 -0.198,-0.113 -0.112,-0.253 0.086,-0.139 0.045,-0.253 -0.09,-0.253 -0.136,0 -0.442,-0.51 -0.68,-1.133 -0.263,-0.687 -0.545,-1.07 -0.717,-0.971 -0.156,0.089 -0.203,0.072 -0.104,-0.038 0.207,-0.229 -0.368,-1.428 -1.228,-2.56 -0.327,-0.43 -0.521,-0.854 -0.432,-0.943 0.088,-0.089 -0.025,-0.233 -0.253,-0.321 -0.228,-0.087 -0.357,-0.251 -0.287,-0.365 0.07,-0.113 -0.045,-0.378 -0.255,-0.588 -0.21,-0.21 -0.381,-0.504 -0.381,-0.653 0,-0.149 -0.121,-0.271 -0.268,-0.271 -0.148,0 -0.198,-0.114 -0.112,-0.253 0.086,-0.139 0.017,-0.253 -0.154,-0.253 -0.17,0 -0.239,-0.071 -0.152,-0.157 0.087,-0.087 -0.121,-0.524 -0.463,-0.971 -0.341,-0.448 -0.545,-0.889 -0.453,-0.981 0.093,-0.092 0.028,-0.168 -0.142,-0.168 -0.171,0 -0.244,-0.107 -0.164,-0.237 0.081,-0.131 -0.018,-0.33 -0.22,-0.443 -0.201,-0.113 -0.368,-0.294 -0.37,-0.402 -0.008,-0.388 -1.138,-2.46 -1.342,-2.46 -0.115,0 -0.208,-0.171 -0.208,-0.379 0,-0.209 -0.133,-0.38 -0.296,-0.38 -0.162,0 -0.221,-0.074 -0.13,-0.165 0.091,-0.09 -0.033,-0.326 -0.274,-0.524 -0.268,-0.22 -0.291,-0.287 -0.06,-0.172 0.315,0.157 0.31,0.105 -0.026,-0.297 -0.223,-0.268 -0.572,-0.828 -0.775,-1.245 -0.599,-1.228 -1.078,-2.012 -1.349,-2.205 -0.139,-0.099 -0.253,-0.275 -0.253,-0.39 0,-0.358 -1.254,-2.592 -1.454,-2.592 -0.105,0 -0.191,-0.171 -0.191,-0.379 0,-0.209 -0.12,-0.38 -0.268,-0.38 -0.147,0 -0.197,-0.114 -0.111,-0.253 0.086,-0.139 0.017,-0.253 -0.154,-0.253 -0.17,0 -0.236,-0.074 -0.145,-0.165 0.09,-0.09 -0.033,-0.326 -0.274,-0.524 -0.242,-0.198 -0.285,-0.281 -0.097,-0.184 0.378,0.194 -0.39,-1.138 -0.842,-1.463 -0.168,-0.121 -0.17,-0.19 -0.006,-0.198 0.139,-0.007 0.071,-0.151 -0.152,-0.32 -0.222,-0.17 -0.437,-0.422 -0.476,-0.562 -0.252,-0.882 -1.146,-2.353 -1.353,-2.225 -0.136,0.084 -0.173,0.031 -0.081,-0.118 0.092,-0.148 -0.128,-0.621 -0.489,-1.051 -0.361,-0.429 -0.679,-0.934 -0.707,-1.121 -0.027,-0.188 -0.245,-0.64 -0.483,-1.004 -0.239,-0.364 -0.434,-0.779 -0.434,-0.923 0,-0.144 -0.12,-0.262 -0.268,-0.262 -0.147,0 -0.206,-0.099 -0.132,-0.22 0.075,-0.121 -0.139,-0.541 -0.476,-0.933 -0.337,-0.392 -0.565,-0.791 -0.505,-0.887 0.059,-0.096 -0.233,-0.644 -0.649,-1.218 -0.416,-0.574 -0.67,-1.047 -0.565,-1.051 0.106,-0.005 -0.029,-0.175 -0.299,-0.38 -0.27,-0.204 -0.405,-0.371 -0.298,-0.371 0.106,0 -0.043,-0.3 -0.331,-0.667 -0.289,-0.367 -0.525,-0.805 -0.525,-0.974 0,-0.169 -0.363,-0.808 -0.806,-1.421 -0.444,-0.612 -0.771,-1.151 -0.728,-1.197 0.044,-0.046 -0.194,-0.501 -0.528,-1.012 -0.334,-0.51 -0.761,-1.298 -0.948,-1.75 -0.187,-0.452 -0.44,-0.822 -0.563,-0.822 -0.122,0 -0.222,-0.171 -0.222,-0.38 0,-0.209 -0.12,-0.379 -0.268,-0.379 -0.147,0 -0.202,-0.107 -0.121,-0.238 0.081,-0.13 -0.055,-0.355 -0.301,-0.498 -0.247,-0.144 -0.349,-0.264 -0.228,-0.269 0.122,-0.004 0.07,-0.19 -0.115,-0.412 -0.185,-0.223 -0.361,-0.575 -0.391,-0.782 -0.031,-0.207 -0.235,-0.574 -0.454,-0.816 -0.219,-0.243 -0.399,-0.574 -0.399,-0.737 0,-0.163 -0.12,-0.296 -0.268,-0.296 -0.147,0 -0.197,-0.114 -0.111,-0.253 0.086,-0.14 0.064,-0.255 -0.049,-0.256 -0.112,-0.002 -0.422,-0.457 -0.688,-1.012 -0.266,-0.555 -0.586,-1.009 -0.711,-1.009 -0.125,0 -0.156,-0.114 -0.07,-0.253 0.086,-0.14 0.016,-0.254 -0.154,-0.254 -0.171,0 -0.238,-0.072 -0.15,-0.16 0.088,-0.088 -0.063,-0.445 -0.337,-0.793 -0.274,-0.348 -0.498,-0.788 -0.498,-0.978 0,-0.19 -0.12,-0.346 -0.268,-0.346 -0.147,0 -0.207,-0.098 -0.132,-0.219 0.074,-0.12 -0.087,-0.42 -0.359,-0.666 -0.272,-0.246 -0.433,-0.546 -0.359,-0.666 0.075,-0.121 0.009,-0.22 -0.147,-0.22 -0.156,0 -0.217,-0.106 -0.136,-0.237 0.081,-0.131 -0.055,-0.355 -0.301,-0.498 -0.247,-0.144 -0.357,-0.265 -0.246,-0.269 0.112,-0.004 -0.096,-0.4 -0.462,-0.879 -0.365,-0.479 -0.655,-0.934 -0.645,-1.012 0.067,-0.499 -0.018,-0.654 -0.273,-0.496 -0.173,0.107 -0.224,0.07 -0.124,-0.091 0.092,-0.15 -0.012,-0.452 -0.232,-0.672 -0.22,-0.22 -0.313,-0.4 -0.207,-0.4 0.106,0 -0.028,-0.179 -0.298,-0.398 -0.27,-0.219 -0.321,-0.324 -0.112,-0.234 0.209,0.09 0.152,-0.02 -0.126,-0.245 -0.279,-0.225 -0.478,-0.461 -0.443,-0.525 0.154,-0.283 0.031,-0.618 -0.38,-1.028 -0.243,-0.244 -0.457,-0.537 -0.474,-0.651 -0.018,-0.114 -0.046,-0.304 -0.063,-0.421 -0.018,-0.118 -0.312,-0.54 -0.654,-0.938 -0.343,-0.399 -0.571,-0.776 -0.508,-0.84 0.064,-0.063 -0.174,-0.495 -0.529,-0.959 -0.354,-0.465 -0.559,-0.845 -0.456,-0.845 0.103,0 -0.033,-0.179 -0.303,-0.398 -0.271,-0.219 -0.321,-0.31 -0.112,-0.203 0.209,0.108 0.061,-0.225 -0.329,-0.74 -0.39,-0.515 -0.618,-0.939 -0.506,-0.944 0.111,-0.004 10e-4,-0.125 -0.246,-0.268 -0.246,-0.144 -0.382,-0.368 -0.301,-0.498 0.081,-0.131 0.019,-0.238 -0.136,-0.238 -0.156,0 -0.223,-0.096 -0.15,-0.215 0.073,-0.118 -0.063,-0.435 -0.302,-0.705 -0.238,-0.27 -0.471,-0.657 -0.517,-0.861 -0.046,-0.203 -0.231,-0.54 -0.413,-0.749 -0.181,-0.209 -0.408,-0.637 -0.504,-0.952 -0.096,-0.315 -0.28,-0.508 -0.409,-0.428 -0.129,0.08 -0.235,-0.089 -0.235,-0.376 0,-0.286 -0.133,-0.521 -0.295,-0.521 -0.163,0 -0.229,-0.066 -0.148,-0.148 0.082,-0.081 -0.042,-0.369 -0.274,-0.641 -0.232,-0.271 -0.427,-0.574 -0.434,-0.674 -0.034,-0.502 -0.429,-1.32 -0.637,-1.32 -0.13,0 -0.236,-0.158 -0.236,-0.351 0,-0.193 -0.392,-0.921 -0.871,-1.617 -0.479,-0.696 -0.804,-1.333 -0.723,-1.414 0.082,-0.082 -0.038,-0.22 -0.266,-0.307 -0.228,-0.088 -0.357,-0.252 -0.287,-0.365 0.07,-0.114 -0.044,-0.378 -0.254,-0.588 -0.21,-0.21 -0.382,-0.504 -0.382,-0.653 0,-0.149 -0.121,-0.271 -0.268,-0.271 -0.148,0 -0.208,-0.097 -0.135,-0.215 0.073,-0.118 -0.212,-0.683 -0.632,-1.255 -0.421,-0.571 -0.73,-1.097 -0.687,-1.168 0.042,-0.071 -0.145,-0.389 -0.417,-0.706 -0.272,-0.318 -0.455,-0.578 -0.406,-0.578 0.049,0 0.007,-0.257 -0.093,-0.573 -0.1,-0.315 -0.29,-0.505 -0.423,-0.424 -0.132,0.082 -0.215,0.056 -0.184,-0.059 0.096,-0.358 -0.32,-1.347 -0.567,-1.347 -0.13,0 -0.236,-0.171 -0.236,-0.38 0,-0.208 -0.121,-0.379 -0.268,-0.379 -0.148,0 -0.205,-0.102 -0.128,-0.227 0.077,-0.124 -0.031,-0.292 -0.241,-0.372 -0.209,-0.08 -0.358,-0.235 -0.331,-0.343 0.027,-0.108 -0.136,-0.624 -0.364,-1.145 l -0.413,-0.949 h -62.126 c -34.169,0 -62.125,-0.091 -62.125,-0.203 0,-0.111 0.142,-0.355 0.316,-0.543 0.257,-0.277 0.245,-0.303 -0.063,-0.14 -0.209,0.111 -0.124,-0.048 0.189,-0.352 0.313,-0.304 0.57,-0.719 0.57,-0.923 0,-0.203 0.104,-0.369 0.232,-0.369 0.127,0 0.427,-0.513 0.666,-1.139 0.24,-0.626 0.553,-1.138 0.696,-1.138 0.144,0 0.19,-0.071 0.104,-0.157 -0.086,-0.086 0.01,-0.323 0.213,-0.526 0.204,-0.204 0.295,-0.492 0.202,-0.642 -0.099,-0.161 -0.049,-0.198 0.124,-0.091 0.261,0.161 0.406,-0.141 0.323,-0.672 -0.017,-0.104 0.083,-0.189 0.223,-0.189 0.139,0 0.253,-0.171 0.253,-0.38 0,-0.209 0.085,-0.38 0.189,-0.381 0.105,-10e-4 0.387,-0.348 0.628,-0.771 0.257,-0.451 0.309,-0.697 0.126,-0.594 -0.171,0.097 -0.066,-0.062 0.233,-0.353 0.299,-0.292 0.863,-1.191 1.253,-1.998 0.39,-0.808 0.829,-1.553 0.974,-1.655 0.146,-0.102 0.172,-0.187 0.057,-0.19 -0.114,-0.002 -0.028,-0.183 0.192,-0.403 0.22,-0.22 0.325,-0.523 0.232,-0.672 -0.099,-0.161 -0.049,-0.198 0.125,-0.091 0.258,0.16 0.34,0.004 0.27,-0.517 -0.012,-0.089 0.085,-0.231 0.215,-0.316 0.405,-0.265 1.639,-2.371 1.282,-2.188 -0.185,0.095 -0.141,0.012 0.098,-0.184 0.239,-0.196 0.787,-1.027 1.218,-1.847 0.431,-0.82 0.904,-1.635 1.051,-1.813 0.147,-0.177 0.189,-0.322 0.092,-0.322 -0.096,0 0.005,-0.18 0.224,-0.4 0.22,-0.219 0.325,-0.522 0.232,-0.671 -0.099,-0.161 -0.049,-0.198 0.125,-0.091 0.256,0.158 0.309,0.068 0.286,-0.487 -0.002,-0.072 0.23,-0.383 0.516,-0.691 0.287,-0.307 0.588,-0.846 0.668,-1.197 0.081,-0.35 0.301,-0.761 0.488,-0.912 0.188,-0.151 0.694,-0.946 1.125,-1.765 0.431,-0.82 0.89,-1.618 1.018,-1.773 0.129,-0.155 0.16,-0.357 0.068,-0.448 -0.092,-0.092 -0.034,-0.167 0.129,-0.167 0.162,0 0.295,-0.246 0.295,-0.548 0,-0.301 0.076,-0.472 0.168,-0.38 0.201,0.201 1.603,-2.178 1.603,-2.719 0,-0.207 0.145,-0.467 0.322,-0.578 0.378,-0.237 1.278,-1.594 1.057,-1.594 -0.083,0 0.029,-0.179 0.247,-0.397 0.219,-0.219 0.398,-0.547 0.398,-0.728 0,-0.182 0.169,-0.472 0.377,-0.644 0.207,-0.172 0.314,-0.413 0.238,-0.537 -0.077,-0.123 -0.018,-0.224 0.129,-0.224 0.147,0 0.268,-0.234 0.268,-0.521 0,-0.286 0.095,-0.462 0.211,-0.39 0.213,0.131 1.185,-1.58 1.1,-1.935 -0.026,-0.105 0.068,-0.19 0.207,-0.19 0.139,0 0.253,-0.163 0.253,-0.361 0,-0.199 0.144,-0.512 0.319,-0.696 0.481,-0.503 1.232,-1.726 1.06,-1.726 -0.083,0 0.029,-0.179 0.247,-0.398 0.219,-0.218 0.398,-0.546 0.398,-0.728 0,-0.181 0.169,-0.471 0.377,-0.643 0.207,-0.172 0.314,-0.413 0.238,-0.537 -0.076,-0.123 -0.018,-0.224 0.129,-0.224 0.147,0 0.268,-0.171 0.268,-0.38 0,-0.208 0.093,-0.379 0.206,-0.379 0.23,0 1.176,-1.789 1.105,-2.087 -0.025,-0.105 0.068,-0.19 0.207,-0.19 0.139,0 0.253,-0.163 0.253,-0.362 0,-0.198 0.144,-0.511 0.32,-0.695 0.541,-0.566 1.221,-1.726 1.014,-1.73 -0.107,-0.002 -0.069,-0.088 0.085,-0.19 0.34,-0.224 1.236,-1.88 1.163,-2.146 -0.029,-0.105 0.062,-0.19 0.201,-0.19 0.139,0 0.253,-0.171 0.253,-0.38 0,-0.208 0.088,-0.379 0.196,-0.379 0.214,0 1.158,-1.644 1.086,-1.892 -0.025,-0.084 0.299,-0.621 0.719,-1.193 0.421,-0.572 0.712,-1.124 0.648,-1.228 -0.064,-0.104 0.061,-0.256 0.278,-0.34 0.217,-0.083 0.323,-0.265 0.237,-0.406 -0.087,-0.14 -0.045,-0.254 0.093,-0.254 0.219,0 0.647,-0.913 0.593,-1.265 -0.01,-0.07 0.146,-0.219 0.348,-0.332 0.202,-0.113 0.301,-0.312 0.22,-0.443 -0.081,-0.131 -0.026,-0.237 0.121,-0.237 0.148,0 0.268,-0.171 0.268,-0.38 0,-0.209 0.088,-0.379 0.196,-0.379 0.215,0 1.093,-1.526 1.061,-1.845 -0.011,-0.11 0.324,-0.668 0.744,-1.24 0.421,-0.572 0.713,-1.124 0.649,-1.228 -0.065,-0.104 0.06,-0.256 0.277,-0.34 0.217,-0.083 0.323,-0.266 0.237,-0.406 -0.087,-0.14 -0.045,-0.254 0.093,-0.254 0.259,0 0.682,-0.979 0.582,-1.348 -0.031,-0.114 0.06,-0.136 0.203,-0.048 0.233,0.144 0.37,-0.183 0.289,-0.692 -0.016,-0.104 0.084,-0.19 0.223,-0.19 0.139,0 0.253,-0.17 0.253,-0.379 0,-0.209 0.096,-0.38 0.213,-0.38 0.233,0 0.914,-1.277 0.843,-1.581 -0.024,-0.104 0.089,-0.19 0.251,-0.19 0.163,0 0.222,-0.073 0.132,-0.163 -0.09,-0.09 0.172,-0.619 0.582,-1.177 0.41,-0.557 0.693,-1.098 0.629,-1.201 -0.064,-0.104 0.061,-0.257 0.277,-0.34 0.217,-0.083 0.324,-0.266 0.237,-0.406 -0.087,-0.14 -0.045,-0.255 0.093,-0.255 0.259,0 0.682,-0.978 0.582,-1.347 -0.031,-0.114 0.06,-0.136 0.203,-0.048 0.233,0.144 0.37,-0.183 0.289,-0.692 -0.016,-0.104 0.084,-0.19 0.223,-0.19 0.139,0 0.253,-0.17 0.253,-0.379 0,-0.209 0.096,-0.38 0.213,-0.38 0.233,0 0.914,-1.277 0.843,-1.581 -0.024,-0.104 0.089,-0.19 0.252,-0.19 0.162,0 0.221,-0.073 0.131,-0.163 -0.09,-0.09 0.172,-0.619 0.582,-1.177 0.41,-0.557 0.685,-1.11 0.612,-1.228 -0.073,-0.118 -0.012,-0.215 0.135,-0.215 0.148,0 0.268,-0.171 0.268,-0.379 0,-0.209 0.107,-0.38 0.236,-0.38 0.248,0 0.664,-0.989 0.567,-1.347 -0.031,-0.115 0.061,-0.136 0.203,-0.048 0.233,0.144 0.37,-0.183 0.289,-0.692 -0.016,-0.104 0.084,-0.19 0.223,-0.19 0.14,0 0.253,-0.171 0.253,-0.379 0,-0.209 0.096,-0.38 0.213,-0.38 0.233,0 0.914,-1.277 0.844,-1.581 -0.025,-0.104 0.088,-0.19 0.251,-0.19 0.162,0 0.224,-0.071 0.137,-0.158 -0.087,-0.086 0.121,-0.523 0.463,-0.971 0.341,-0.447 0.545,-0.888 0.453,-0.98 -0.093,-0.093 -0.028,-0.168 0.142,-0.168 0.171,0 0.24,-0.114 0.154,-0.253 -0.086,-0.139 -0.036,-0.253 0.112,-0.253 0.147,0 0.267,-0.122 0.267,-0.271 0,-0.149 0.172,-0.443 0.382,-0.653 0.21,-0.21 0.325,-0.474 0.255,-0.588 -0.07,-0.113 0.042,-0.271 0.25,-0.351 0.208,-0.08 0.378,-0.376 0.378,-0.659 0,-0.283 0.093,-0.514 0.207,-0.514 0.245,0 1.453,-2.065 1.369,-2.34 -0.031,-0.105 0.056,-0.19 0.196,-0.19 0.139,0 0.227,-0.085 0.196,-0.19 -0.031,-0.104 0.164,-0.52 0.434,-0.923 0.269,-0.404 0.511,-0.88 0.537,-1.06 0.027,-0.179 0.287,-0.581 0.579,-0.895 0.292,-0.313 0.531,-0.662 0.531,-0.775 0,-0.486 0.055,-0.595 0.397,-0.787 0.199,-0.111 0.362,-0.424 0.362,-0.696 0,-0.271 0.092,-0.493 0.206,-0.493 0.114,0 0.462,-0.455 0.774,-1.011 l 0.568,-1.01 -0.701,-1.248 c -0.386,-0.687 -0.809,-1.182 -0.94,-1.101 -0.131,0.081 -0.167,0.03 -0.078,-0.112 0.088,-0.143 -0.125,-0.587 -0.474,-0.988 -0.348,-0.401 -0.7,-0.985 -0.781,-1.298 -0.081,-0.313 -0.238,-0.569 -0.348,-0.569 -0.11,0 -0.411,-0.512 -0.668,-1.138 -0.257,-0.625 -0.553,-1.138 -0.658,-1.138 -0.104,-0.001 -0.189,-0.207 -0.189,-0.46 0,-0.252 -0.2,-0.683 -0.443,-0.958 -0.244,-0.275 -0.468,-0.627 -0.498,-0.781 -0.096,-0.495 -1.625,-2.958 -2.057,-3.314 -0.31,-0.256 -0.32,-0.302 -0.039,-0.181 0.254,0.11 0.234,0.044 -0.059,-0.196 -0.241,-0.198 -0.365,-0.434 -0.274,-0.525 0.091,-0.09 0.013,-0.164 -0.173,-0.164 -0.185,0 -0.263,-0.075 -0.172,-0.165 0.09,-0.091 -0.011,-0.293 -0.225,-0.45 -0.338,-0.247 -0.521,-0.706 -0.595,-1.488 -0.011,-0.112 -0.135,-0.133 -0.276,-0.046 -0.142,0.088 -0.324,-0.187 -0.411,-0.618 -0.085,-0.426 -0.241,-0.775 -0.347,-0.775 -0.105,0 -0.258,-0.2 -0.34,-0.443 -0.082,-0.244 -0.256,-0.614 -0.388,-0.822 -0.131,-0.209 -0.881,-1.547 -1.666,-2.973 -0.785,-1.427 -1.535,-2.594 -1.666,-2.594 -0.131,0 -0.239,-0.227 -0.239,-0.506 0,-0.278 -0.12,-0.506 -0.268,-0.506 -0.147,0 -0.202,-0.106 -0.121,-0.237 0.081,-0.131 -0.018,-0.33 -0.22,-0.443 -0.357,-0.2 -0.403,-0.296 -0.403,-0.853 0,-0.147 -0.114,-0.197 -0.253,-0.111 -0.139,0.086 -0.253,-0.069 -0.253,-0.344 0,-0.275 -0.1,-0.537 -0.222,-0.584 -0.122,-0.046 -0.629,-0.896 -1.126,-1.888 -0.498,-0.993 -1.089,-1.989 -1.314,-2.214 -0.226,-0.225 -0.342,-0.41 -0.259,-0.41 0.083,0 -0.025,-0.341 -0.241,-0.759 -0.216,-0.417 -0.504,-0.759 -0.639,-0.759 -0.136,0 -0.233,-0.085 -0.217,-0.189 0.084,-0.531 -0.061,-0.833 -0.322,-0.672 -0.173,0.107 -0.224,0.07 -0.124,-0.091 0.092,-0.15 0.001,-0.438 -0.202,-0.642 -0.203,-0.203 -0.299,-0.44 -0.213,-0.526 0.086,-0.086 0.017,-0.157 -0.154,-0.157 -0.17,0 -0.248,-0.1 -0.172,-0.222 0.075,-0.123 -0.124,-0.493 -0.442,-0.822 -0.661,-0.684 -1.703,-2.414 -1.82,-3.022 -0.092,-0.478 -1.638,-3.073 -1.966,-3.299 -0.123,-0.085 -0.198,-0.199 -0.165,-0.253 0.126,-0.21 -1.053,-2.249 -1.301,-2.249 -0.144,0 -0.192,-0.114 -0.106,-0.253 0.086,-0.139 0.029,-0.253 -0.127,-0.253 -0.155,0 -0.212,-0.114 -0.126,-0.253 0.086,-0.139 0.035,-0.253 -0.112,-0.253 -0.147,0 -0.239,-0.088 -0.205,-0.195 0.035,-0.107 -0.2,-0.477 -0.523,-0.822 -0.323,-0.345 -0.65,-0.941 -0.727,-1.323 -0.078,-0.383 -0.241,-0.696 -0.363,-0.696 -0.121,0 -0.221,-0.171 -0.221,-0.38 0,-0.208 -0.095,-0.379 -0.211,-0.379 -0.116,0 -0.214,-0.142 -0.219,-0.316 -0.012,-0.477 -3.143,-5.756 -3.413,-5.756 -0.129,0 -0.169,-0.107 -0.088,-0.238 0.081,-0.131 -0.091,-0.46 -0.383,-0.732 -0.462,-0.431 -0.653,-0.861 -0.727,-1.638 -0.01,-0.113 -0.133,-0.135 -0.272,-0.049 -0.139,0.086 -0.253,-0.078 -0.253,-0.364 0,-0.287 -0.105,-0.521 -0.233,-0.521 -0.129,0 -0.365,-0.399 -0.526,-0.886 -0.161,-0.487 -0.374,-0.885 -0.475,-0.885 -0.1,0 -0.326,-0.399 -0.503,-0.886 -0.176,-0.487 -0.426,-0.885 -0.556,-0.885 -0.131,0 -0.212,-0.086 -0.181,-0.19 0.091,-0.306 -1.847,-3.605 -2.117,-3.605 -0.135,0 -0.176,-0.114 -0.09,-0.253 0.086,-0.139 0.029,-0.253 -0.126,-0.253 -0.156,0 -0.223,-0.097 -0.15,-0.215 0.073,-0.118 -0.091,-0.455 -0.365,-0.748 -0.273,-0.294 -0.497,-0.716 -0.497,-0.939 0,-0.223 -0.098,-0.345 -0.218,-0.271 -0.12,0.074 -0.429,-0.346 -0.689,-0.934 -0.259,-0.587 -0.555,-1.129 -0.657,-1.203 -0.103,-0.074 -0.474,-0.786 -0.826,-1.581 -0.352,-0.796 -0.736,-1.446 -0.854,-1.446 -0.118,0 -0.216,-0.143 -0.219,-0.317 -0.006,-0.396 -1.535,-2.989 -1.971,-3.342 -0.179,-0.145 -0.398,-0.579 -0.488,-0.965 -0.09,-0.386 -0.359,-0.908 -0.599,-1.16 -0.24,-0.251 -0.472,-0.611 -0.516,-0.799 -0.043,-0.188 -0.244,-0.463 -0.445,-0.612 -0.202,-0.148 -0.422,-0.553 -0.488,-0.901 -0.067,-0.347 -0.236,-0.67 -0.377,-0.717 -0.14,-0.046 -0.255,-0.211 -0.255,-0.365 0,-0.395 -2.033,-3.783 -2.513,-4.187 -0.325,-0.275 -0.328,-0.306 -0.017,-0.171 0.208,0.09 0.151,-0.02 -0.127,-0.245 -0.278,-0.225 -0.477,-0.462 -0.443,-0.525 0.152,-0.278 0.044,-0.64 -0.154,-0.517 -0.12,0.074 -0.431,-0.346 -0.691,-0.934 -0.261,-0.587 -0.619,-1.22 -0.797,-1.405 -0.178,-0.185 -0.269,-0.424 -0.203,-0.531 0.066,-0.107 -0.104,-0.434 -0.377,-0.728 -0.274,-0.293 -0.497,-0.709 -0.497,-0.924 0,-0.214 -0.095,-0.39 -0.21,-0.39 -0.116,0 -0.477,-0.569 -0.802,-1.265 -0.326,-0.696 -0.687,-1.265 -0.803,-1.265 -0.115,0 -0.186,-0.085 -0.158,-0.19 0.085,-0.317 -1.057,-2.34 -1.322,-2.34 -0.136,0 -0.234,-0.085 -0.217,-0.19 0.079,-0.506 -0.056,-0.836 -0.286,-0.694 -0.143,0.088 -0.325,-0.186 -0.412,-0.617 -0.085,-0.427 -0.254,-0.776 -0.376,-0.776 -0.122,0 -0.221,-0.153 -0.221,-0.34 0,-0.187 -0.228,-0.547 -0.506,-0.798 -0.279,-0.252 -0.506,-0.624 -0.506,-0.827 0,-0.493 -1.047,-2.336 -1.327,-2.336 -0.122,0 -0.151,0.114 -0.065,0.253"
       stroke="none"
       fill="#840404"
       fill-rule="evenodd" />
    <path
       id="path1"
       d="m 208.244,14.801 c 0,0.139 0.218,0.651 0.485,1.138 0.266,0.487 0.484,0.772 0.484,0.633 0,-0.139 -0.218,-0.652 -0.484,-1.139 -0.267,-0.487 -0.485,-0.771 -0.485,-0.632 m 11.638,19.987 c 0,0.139 0.218,0.652 0.485,1.139 0.266,0.487 0.485,0.771 0.485,0.632 0,-0.139 -0.219,-0.651 -0.485,-1.138 -0.267,-0.487 -0.485,-0.772 -0.485,-0.633 m -43.694,5.756 c -0.871,1.478 -0.928,1.604 -0.485,1.075 0.514,-0.612 0.957,-1.391 0.791,-1.391 -0.066,0 -0.204,0.142 -0.306,0.316 m -5.061,8.855 c -0.87,1.478 -0.927,1.604 -0.484,1.075 0.514,-0.612 0.957,-1.391 0.791,-1.391 -0.066,0 -0.204,0.142 -0.307,0.316 m 61.893,8.16 c 0,0.139 0.227,0.594 0.503,1.012 0.277,0.417 0.503,0.645 0.503,0.506 0,-0.14 -0.226,-0.595 -0.503,-1.012 -0.276,-0.418 -0.503,-0.646 -0.503,-0.506 m 5.589,9.75 c 0.223,0.342 0.601,1.003 0.841,1.468 0.239,0.466 0.486,0.796 0.547,0.735 0.153,-0.153 -1.13,-2.417 -1.497,-2.643 -0.163,-0.101 -0.114,0.097 0.109,0.44 m -83.674,10.174 c -0.871,1.477 -0.928,1.603 -0.484,1.075 0.514,-0.612 0.957,-1.392 0.791,-1.392 -0.066,0 -0.204,0.143 -0.307,0.317 m 102.877,22.53 c 0,0.345 0.864,1.948 1.05,1.948 0.109,0 -0.047,-0.427 -0.346,-0.949 -0.641,-1.121 -0.704,-1.21 -0.704,-0.999 m 1.268,2.327 c 0,0.139 0.226,0.595 0.503,1.012 0.276,0.418 0.502,0.645 0.502,0.506 0,-0.139 -0.226,-0.594 -0.502,-1.012 -0.277,-0.417 -0.503,-0.645 -0.503,-0.506 m -134.758,28.274 c -0.871,1.477 -0.928,1.603 -0.484,1.075 0.513,-0.612 0.956,-1.392 0.791,-1.392 -0.067,0 -0.205,0.143 -0.307,0.317 m 20.746,179.633 c -0.871,1.477 -0.928,1.603 -0.484,1.075 0.514,-0.612 0.957,-1.392 0.791,-1.392 -0.066,0 -0.204,0.143 -0.307,0.317 m -4.807,8.349 c -0.871,1.477 -0.928,1.604 -0.484,1.075 0.514,-0.612 0.957,-1.391 0.791,-1.391 -0.066,0 -0.205,0.142 -0.307,0.316"
       stroke="none"
       fill="#7c0404"
       fill-rule="evenodd" />
  </g>
</svg>
