<?xml version="1.0" encoding="UTF-8" standalone="no"?>
<svg
   id="svg"
   version="1.1"
   width="96.029533"
   height="103.70712"
   viewBox="0 0 96.029533 103.70711"
   sodipodi:docname="icici.svg"
   inkscape:version="1.1.2 (0a00cf5339, 2022-02-04)"
   xmlns:inkscape="http://www.inkscape.org/namespaces/inkscape"
   xmlns:sodipodi="http://sodipodi.sourceforge.net/DTD/sodipodi-0.dtd"
   xmlns="http://www.w3.org/2000/svg"
   xmlns:svg="http://www.w3.org/2000/svg">
  <defs
     id="defs8" />
  <sodipodi:namedview
     id="namedview6"
     pagecolor="#ffffff"
     bordercolor="#666666"
     borderopacity="1.0"
     inkscape:pageshadow="2"
     inkscape:pageopacity="0.0"
     inkscape:pagecheckerboard="0"
     showgrid="false"
     inkscape:zoom="1.7634277"
     inkscape:cx="47.918039"
     inkscape:cy="51.604043"
     inkscape:window-width="1920"
     inkscape:window-height="1016"
     inkscape:window-x="0"
     inkscape:window-y="27"
     inkscape:window-maximized="1"
     inkscape:current-layer="svg" />
  <g
     id="svgg"
     transform="matrix(0.24,0,0,0.24,-0.01275321,-0.01447752)">
    <path
       id="path0"
       d="M 292.508,0.313 C 181.595,6.326 47.726,130.454 9.551,262.68 c -26.675,92.396 4.145,160.955 76.04,169.149 3.787,0.431 4.323,0.445 4.323,0.111 0,-0.132 0.486,-0.242 1.08,-0.244 12.618,-0.05 27.865,-15.477 40.724,-41.206 3.538,-7.078 10.933,-24.1 10.933,-25.164 0,-0.062 -3.209,-0.19 -7.132,-0.285 C 38.131,362.703 18.637,250.49 95.083,132.283 119.023,95.265 155.761,56.382 182.709,39.542 232.773,8.256 285.266,-5.345 324.64,2.767 c 1.902,0.392 3.847,0.773 4.323,0.846 l 0.864,0.134 -0.864,-0.287 C 325.14,2.193 314.543,0.705 306.43,0.296 300.136,-0.022 298.642,-0.02 292.508,0.313 m 38.04,3.698 c 0.396,0.142 2.471,0.802 4.611,1.467 2.139,0.665 4.983,1.649 6.318,2.186 1.335,0.537 2.478,0.926 2.54,0.864 0.305,-0.305 -10.777,-4.169 -13.181,-4.596 -0.803,-0.142 -0.862,-0.126 -0.288,0.079 m 14.697,5.211 c 0.555,0.304 1.138,0.552 1.297,0.552 0.158,0 -0.166,-0.248 -0.721,-0.552 -0.554,-0.304 -1.138,-0.552 -1.297,-0.552 -0.158,0 0.166,0.248 0.721,0.552 m 1.753,0.686 c 0.294,0.269 3.722,1.901 3.722,1.772 0,-0.162 -3.329,-1.882 -3.642,-1.882 -0.11,0 -0.146,0.05 -0.08,0.11 m 4.587,2.293 c 0,0.075 0.746,0.556 1.657,1.07 0.911,0.514 1.981,1.125 2.378,1.358 l 0.72,0.425 -0.669,-0.556 c -0.767,-0.636 -4.086,-2.502 -4.086,-2.297 m 4.899,2.869 c 0,0.066 0.908,0.723 2.017,1.461 1.11,0.737 2.018,1.28 2.018,1.205 0,-0.074 -0.746,-0.636 -1.657,-1.249 -2.019,-1.356 -2.378,-1.57 -2.378,-1.417 m 5.476,3.758 c 0,0.079 0.518,0.555 1.152,1.057 0.634,0.502 1.153,0.848 1.153,0.769 0,-0.08 -0.519,-0.555 -1.153,-1.057 -0.634,-0.503 -1.152,-0.849 -1.152,-0.769 m 5.187,4.371 c 0.538,0.555 1.042,1.008 1.122,1.008 0.079,0 -0.296,-0.453 -0.834,-1.008 -0.538,-0.555 -1.042,-1.009 -1.122,-1.009 -0.079,0 0.296,0.454 0.834,1.009 m 3.89,3.602 c 1.261,1.268 2.357,2.306 2.437,2.306 0.079,0 -0.888,-1.038 -2.148,-2.306 -1.261,-1.268 -2.357,-2.305 -2.436,-2.305 -0.08,0 0.887,1.037 2.147,2.305 m 11.331,14.121 c 0.315,0.555 0.987,1.717 1.494,2.583 11.436,19.541 17.073,48.259 15.275,77.821 -0.15,2.456 -0.336,5.698 -0.414,7.204 l -0.141,2.738 0.403,-3.314 C 402.772,96.865 397.41,65.632 384.6,44.159 c -1.758,-2.946 -3.514,-5.492 -2.232,-3.237 m 15.903,90.978 c 0,3.397 -8.26,27.006 -13.996,40.002 -33.004,74.777 -105.831,148.328 -175.629,177.375 -4.229,1.76 -3.835,0.827 -3.924,9.285 -0.248,23.659 6.481,33.027 20.863,29.045 l 1.937,-0.536 -1.009,0.864 c -5.589,4.79 18.245,-12.45 27.089,-19.594 71.828,-58.017 125.321,-139.992 141.772,-217.256 1.556,-7.308 3.426,-19.24 3.071,-19.595 -0.096,-0.096 -0.174,0.089 -0.174,0.41"
       stroke="none"
       fill="#f36324"
       fill-rule="evenodd" />
    <path
       id="path1"
       d="M 296.83,0.494 C 262.729,1.256 221.276,15.44 182.709,39.542 155.761,56.382 119.023,95.265 95.083,132.283 18.655,250.462 38.132,362.701 135.475,365.041 l 7.088,0.17 1.378,-3.715 c 4.05,-10.923 6.48,-18.408 10.514,-32.389 1.418,-4.913 4.388,-15.706 4.759,-17.291 0.056,-0.238 0.967,-3.869 2.025,-8.07 1.058,-4.2 1.966,-7.831 2.016,-8.069 6.924,-32.456 9.3,-57.587 6.58,-69.594 -3.24,-14.3 -22.086,-15.438 -45.339,-2.736 -14.224,7.769 -21.894,2.808 -14.701,-9.509 3.195,-5.471 8.953,-11.603 19.6,-20.874 20.488,-17.842 54.501,-41.732 73.85,-51.871 23.283,-12.2 50.266,-7.2 54.7,10.137 1.495,5.846 0.824,9.376 -4.722,24.851 -11.86,33.095 -18.485,52.816 -26.864,79.971 -1.884,6.106 -5.618,19.064 -7.807,27.089 -2.017,7.398 -6.427,25.13 -6.916,27.81 -0.072,0.396 -0.199,0.946 -0.283,1.222 -0.083,0.276 -0.205,0.795 -0.27,1.153 -0.066,0.358 -0.52,2.596 -1.009,4.974 -0.489,2.377 -0.95,4.623 -1.024,4.99 -1.149,5.71 -3.095,19.04 -3.72,25.49 l -0.19,1.951 1.414,-0.558 c 56.854,-22.409 121.833,-80.797 159.477,-143.299 16.473,-27.351 31.307,-63.293 32.692,-79.208 C 402.182,87.912 393.368,51.95 375.03,30.999 356.941,10.332 329.829,-0.245 296.83,0.494 m -7.581,33.497 c 11.36,3.203 16.704,13.366 13.951,26.528 -4.991,23.853 -28.092,47.797 -52.252,54.156 -33.508,8.821 -42.063,-23.622 -14.821,-56.205 11.025,-13.186 28.426,-23.509 42.001,-24.918 1.014,-0.105 1.908,-0.257 1.987,-0.336 0.351,-0.352 7.197,0.228 9.134,0.775"
       stroke="none"
       fill="#ac2c2c"
       fill-rule="evenodd" />
  </g>
</svg>
