<?xml version="1.0" encoding="UTF-8" standalone="no"?>
<svg version="1.0"
    width="24"
    height="24"
    viewBox="0 0 18 18"
    preserveAspectRatio="xMidYMid meet"
    id="svg10"
    xmlns="http://www.w3.org/2000/svg">
  <defs
     id="defs14" />
  <g
     transform="matrix(6.0059938e-4,0,0,-5.9993638e-4,-0.00866132,17.998075)"
     fill="#000000"
     stroke="none"
     id="g8">
    <path
       d="M 7505,26141 15,22283 v -1927 -1927 l 700,-360 c 385,-198 723,-373 752,-389 28,-16 2555,-1319 5615,-2896 3060,-1576 6092,-3139 6737,-3472 1042,-536 1178,-604 1200,-595 21,8 9479,4880 9906,5103 72,37 1014,523 2095,1080 1081,557 2190,1129 2465,1271 l 500,258 v 1927 1928 l -7490,3857 c -4119,2122 -7492,3858 -7495,3858 -3,0 -3375,-1736 -7495,-3858 z"
       id="path2" />
    <path
       d="m 10,14997 v -1925 l 618,-317 c 339,-175 721,-373 847,-440 368,-196 13517,-6958 13529,-6958 14,0 13480,6928 13526,6958 19,13 355,188 745,389 l 710,365 3,1901 c 1,1045 0,1900 -3,1900 -3,0 -3402,-1737 -7555,-3860 l -7549,-3860 -3323,1736 c -1828,955 -3622,1893 -3988,2084 -863,451 -4540,2372 -6110,3192 -674,352 -1276,667 -1337,700 l -113,59 z"
       id="path4" />
    <path
       d="M 10,9643 V 7715 L 7505,3857 15001,0 l 7494,3857 7495,3858 v 1918 1917 l -42,-21 c -44,-22 -1300,-680 -2183,-1144 -275,-144 -3259,-1710 -6632,-3479 L 15001,3690 9773,6439 C 6898,7950 4370,9279 4155,9392 3941,9505 2935,10034 1920,10567 905,11101 60,11545 43,11554 l -33,17 z"
       id="path6" />
  </g>
</svg>
