<?xml version="1.0" encoding="UTF-8" standalone="no"?>
<svg
   id="svg"
   width="95.979256"
   height="34.120392"
   viewBox="0 0 95.979256 34.120391"
   version="1.1"
   sodipodi:docname="slice.svg"
   inkscape:version="1.1.2 (0a00cf5339, 2022-02-04)"
   xmlns:inkscape="http://www.inkscape.org/namespaces/inkscape"
   xmlns:sodipodi="http://sodipodi.sourceforge.net/DTD/sodipodi-0.dtd"
   xmlns="http://www.w3.org/2000/svg"
   xmlns:svg="http://www.w3.org/2000/svg">
  <defs
     id="defs8" />
  <sodipodi:namedview
     id="namedview6"
     pagecolor="#ffffff"
     bordercolor="#666666"
     borderopacity="1.0"
     inkscape:pageshadow="2"
     inkscape:pageopacity="0.0"
     inkscape:pagecheckerboard="0"
     showgrid="false"
     inkscape:zoom="1.504075"
     inkscape:cx="-36.899757"
     inkscape:cy="74.464374"
     inkscape:window-width="1920"
     inkscape:window-height="1016"
     inkscape:window-x="0"
     inkscape:window-y="27"
     inkscape:window-maximized="1"
     inkscape:current-layer="svg" />
  <g
     id="svgg"
     transform="matrix(0.24,0,0,0.24,-0.01992,0)">
    <path
       id="path0"
       d="m 108.5,0.288 c -0.673,0.325 -1.201,0.854 -1.067,1.071 0.05,0.082 0.004,0.129 -0.103,0.103 -0.107,-0.025 -0.251,0.067 -0.32,0.205 -0.068,0.137 -0.212,0.417 -0.317,0.622 -0.106,0.205 -0.193,0.52 -0.193,0.699 0,0.179 -0.075,0.372 -0.167,0.429 -0.23,0.142 -0.229,133.083 0.002,133.083 0.091,0 0.165,0.155 0.165,0.345 0,0.48 1.565,2.655 1.91,2.655 0.067,0 0.333,0.15 0.591,0.334 0.599,0.427 20.773,0.513 20.936,0.09 0.046,-0.121 0.216,-0.186 0.377,-0.144 0.303,0.079 1.472,-0.876 1.394,-1.139 -0.023,-0.077 0.039,-0.141 0.137,-0.141 0.297,0 0.693,-0.493 0.598,-0.742 -0.05,-0.129 0.018,-0.323 0.15,-0.433 0.209,-0.173 0.24,-8.964 0.24,-66.336 0,-45.722 0.054,-66.169 0.174,-66.243 0.206,-0.128 0.129,-1.188 -0.12,-1.663 -0.096,-0.183 -0.142,-0.426 -0.101,-0.54 0.041,-0.114 -0.045,-0.326 -0.191,-0.472 -0.146,-0.145 -0.215,-0.345 -0.154,-0.444 0.065,-0.106 0.032,-0.13 -0.082,-0.06 -0.118,0.073 -0.193,0.003 -0.195,-0.182 -0.002,-0.256 -0.027,-0.264 -0.164,-0.052 -0.137,0.212 -0.162,0.204 -0.164,-0.053 -0.003,-0.344 -0.409,-0.818 -0.566,-0.661 -0.057,0.057 -0.103,-0.014 -0.103,-0.157 0,-0.45 -0.298,-0.462 -11.306,-0.458 -9.759,0.003 -10.833,0.03 -11.361,0.284 m 41.042,1.071 c -0.011,0.949 0.054,1.427 0.214,1.588 0.158,0.157 0.211,0.528 0.171,1.183 -0.033,0.524 0.01,1.038 0.094,1.142 0.085,0.104 0.164,0.479 0.176,0.834 0.012,0.354 0.092,0.691 0.179,0.747 0.086,0.057 0.157,0.376 0.157,0.709 0,0.332 0.05,0.605 0.11,0.605 0.061,0 0.209,0.158 0.329,0.35 0.121,0.193 0.139,0.301 0.04,0.241 -0.098,-0.061 -0.179,-0.036 -0.179,0.056 0,0.091 0.075,0.213 0.167,0.269 0.092,0.057 0.167,0.324 0.167,0.594 0,0.269 0.075,0.49 0.166,0.49 0.092,0 0.167,0.154 0.167,0.343 0,0.189 0.075,0.297 0.167,0.24 0.094,-0.059 0.166,0.083 0.166,0.329 0,0.237 0.102,0.47 0.226,0.518 0.137,0.053 0.195,0.245 0.147,0.495 -0.045,0.236 0,0.408 0.108,0.408 0.102,0 0.186,0.141 0.186,0.314 0,0.173 0.133,0.349 0.296,0.391 0.163,0.043 0.309,0.249 0.325,0.458 0.015,0.209 0.182,0.544 0.37,0.744 0.188,0.201 0.342,0.474 0.342,0.608 0,0.134 0.225,0.49 0.5,0.791 0.275,0.302 0.5,0.622 0.5,0.712 0,0.09 0.182,0.346 0.405,0.568 0.222,0.223 0.53,0.617 0.683,0.877 0.154,0.26 0.434,0.543 0.624,0.63 0.189,0.086 0.426,0.302 0.525,0.479 0.315,0.562 1.597,1.781 1.765,1.677 0.094,-0.058 0.115,0.02 0.051,0.188 -0.086,0.223 -0.046,0.263 0.177,0.177 0.158,-0.061 0.249,-0.048 0.202,0.029 -0.086,0.139 0.782,1.071 0.969,1.04 0.34,-0.056 0.523,0.05 1.071,0.619 0.336,0.349 0.85,0.74 1.141,0.869 0.292,0.128 0.498,0.286 0.458,0.35 -0.04,0.064 0.058,0.097 0.217,0.074 0.159,-0.023 0.432,0.14 0.607,0.362 0.227,0.288 0.354,0.346 0.444,0.201 0.088,-0.143 0.186,-0.091 0.328,0.175 0.148,0.277 0.238,0.322 0.333,0.167 0.093,-0.15 0.164,-0.105 0.248,0.16 0.081,0.255 0.213,0.345 0.424,0.29 0.171,-0.044 0.346,0.023 0.396,0.152 0.049,0.127 0.278,0.231 0.51,0.231 0.232,0 0.422,0.08 0.422,0.178 0,0.102 0.142,0.133 0.334,0.072 0.236,-0.075 0.333,-0.03 0.333,0.156 0,0.348 0.272,0.332 0.501,-0.031 0.121,-0.19 0.163,-0.205 0.121,-0.044 -0.071,0.27 0.563,0.669 1.064,0.669 0.173,0 0.314,0.077 0.314,0.171 0,0.1 0.309,0.148 0.739,0.116 0.418,-0.032 0.726,0.014 0.709,0.106 -0.017,0.089 0.261,0.183 0.619,0.21 0.358,0.027 0.729,0.127 0.825,0.223 0.096,0.096 0.67,0.174 1.275,0.174 0.649,0 1.192,0.086 1.324,0.209 0.18,0.166 0.201,0.166 0.107,0 -0.073,-0.13 -0.015,-0.209 0.152,-0.209 0.148,0 0.223,0.075 0.167,0.167 -0.057,0.092 0.056,0.167 0.25,0.167 0.224,0 0.309,-0.07 0.234,-0.193 -0.082,-0.133 -0.047,-0.146 0.115,-0.041 0.129,0.082 0.589,0.151 1.022,0.152 l 0.788,0.002 0.005,-14.043 L 177.837,0 h -14.139 -14.14 l -0.016,1.359 M 39.181,35.385 c -0.082,0.083 -0.982,0.15 -1.999,0.149 -1.017,0 -1.891,0.067 -1.942,0.149 -0.051,0.083 -0.307,0.15 -0.569,0.15 -0.262,0 -0.508,0.093 -0.545,0.207 -0.052,0.154 -0.17,0.162 -0.473,0.029 -0.294,-0.129 -0.509,-0.122 -0.794,0.026 -0.216,0.111 -0.675,0.164 -1.021,0.118 -0.371,-0.05 -0.675,-0.008 -0.743,0.101 -0.063,0.102 -0.406,0.186 -0.762,0.186 -0.356,0 -0.693,0.075 -0.75,0.167 -0.056,0.091 -0.326,0.166 -0.599,0.166 -0.273,0 -0.662,0.1 -0.865,0.222 -0.203,0.123 -0.482,0.214 -0.619,0.203 -0.137,-0.01 -0.297,0.047 -0.353,0.128 -0.057,0.081 -0.371,0.147 -0.697,0.147 -0.375,0 -0.629,0.093 -0.69,0.251 -0.055,0.143 -0.206,0.208 -0.351,0.153 -0.141,-0.054 -0.384,-0.033 -0.541,0.046 -0.156,0.08 -0.51,0.237 -0.785,0.35 -0.275,0.113 -0.63,0.272 -0.789,0.353 -0.159,0.081 -0.394,0.147 -0.522,0.147 -0.128,0 -0.272,0.15 -0.32,0.334 -0.048,0.183 -0.188,0.332 -0.311,0.33 -0.17,-10e-4 -0.164,-0.041 0.026,-0.164 0.137,-0.089 0.192,-0.162 0.122,-0.164 -0.135,-0.002 -0.356,0.099 -1.289,0.591 -0.321,0.17 -0.602,0.293 -0.625,0.274 -0.023,-0.019 -0.098,-0.033 -0.167,-0.031 -0.068,10e-4 -0.012,0.076 0.125,0.166 0.178,0.117 0.094,0.134 -0.291,0.06 -0.352,-0.068 -0.542,-0.038 -0.542,0.084 0,0.103 -0.133,0.187 -0.297,0.187 -0.163,0 -0.404,0.15 -0.536,0.333 -0.132,0.184 -0.342,0.334 -0.466,0.334 -0.124,0 -0.338,0.113 -0.476,0.251 -0.139,0.139 -0.332,0.202 -0.431,0.141 -0.106,-0.065 -0.13,-0.032 -0.06,0.082 0.071,0.115 0.011,0.192 -0.151,0.192 -0.148,0 -0.233,0.06 -0.188,0.132 0.045,0.073 -0.081,0.145 -0.279,0.16 -0.199,0.015 -0.387,0.105 -0.419,0.201 -0.032,0.096 -0.156,0.174 -0.275,0.174 -0.119,0 -0.344,0.194 -0.499,0.431 -0.156,0.237 -0.325,0.389 -0.376,0.338 -0.121,-0.121 -1.027,0.515 -1.505,1.056 -0.206,0.234 -0.375,0.356 -0.375,0.271 0,-0.085 -0.185,0.019 -0.41,0.23 -0.225,0.212 -0.393,0.469 -0.375,0.571 0.019,0.103 -0.097,0.164 -0.257,0.137 -0.179,-0.03 -0.292,0.057 -0.292,0.224 0,0.15 -0.15,0.312 -0.333,0.36 -0.183,0.048 -0.333,0.194 -0.333,0.323 0,0.13 -0.129,0.286 -0.286,0.346 -0.424,0.162 -1.66,1.446 -1.791,1.859 -0.063,0.197 -0.18,0.318 -0.26,0.268 -0.163,-0.1 -0.53,0.482 -0.407,0.647 0.042,0.058 0.032,0.073 -0.023,0.033 -0.195,-0.14 -1.263,1.087 -1.166,1.34 0.052,0.138 0.027,0.208 -0.056,0.156 -0.159,-0.098 -0.719,0.873 -0.609,1.055 0.066,0.11 -0.203,0.405 -0.485,0.531 -0.091,0.041 -0.144,0.168 -0.117,0.282 0.026,0.115 -0.077,0.209 -0.229,0.209 -0.195,0 -0.251,0.099 -0.19,0.333 0.059,0.225 0.005,0.333 -0.165,0.333 -0.158,0 -0.215,0.096 -0.154,0.257 0.057,0.148 -0.01,0.298 -0.158,0.354 -0.141,0.055 -0.218,0.199 -0.171,0.322 0.047,0.123 0.016,0.266 -0.069,0.319 -0.248,0.153 -0.704,1.216 -0.597,1.389 0.054,0.087 -0.023,0.204 -0.171,0.261 -0.173,0.066 -0.242,0.238 -0.195,0.484 0.04,0.21 -0.029,0.478 -0.154,0.595 -0.128,0.119 -0.183,0.354 -0.126,0.533 0.064,0.203 0.011,0.356 -0.144,0.416 -0.146,0.056 -0.227,0.264 -0.199,0.512 0.025,0.231 -0.054,0.457 -0.176,0.504 -0.153,0.058 -0.211,0.36 -0.187,0.965 0.024,0.621 -0.024,0.858 -0.163,0.805 -0.139,-0.054 -0.192,0.221 -0.181,0.939 0.009,0.571 -0.083,1.202 -0.211,1.441 -0.195,0.365 -0.193,0.448 0.014,0.579 0.151,0.096 0.168,0.155 0.043,0.156 -0.224,0.003 -0.233,4.043 -0.009,4.267 0.069,0.068 0.126,0.693 0.128,1.388 10e-4,0.878 0.051,1.188 0.164,1.014 0.194,-0.3 0.211,-0.191 0.168,1.051 -0.015,0.441 0.065,0.912 0.178,1.049 0.113,0.136 0.22,0.413 0.238,0.616 0.035,0.402 0.188,0.874 0.428,1.324 0.085,0.159 0.154,0.478 0.154,0.708 0,0.23 0.075,0.419 0.167,0.419 0.092,0 0.167,0.193 0.167,0.429 0,0.235 0.113,0.541 0.251,0.68 0.139,0.138 0.202,0.332 0.141,0.43 -0.064,0.103 -0.033,0.131 0.074,0.065 0.101,-0.062 0.27,0.048 0.375,0.245 0.156,0.29 0.149,0.334 -0.033,0.23 -0.181,-0.103 -0.185,-0.084 -0.017,0.097 0.115,0.123 0.209,0.359 0.209,0.524 0,0.165 0.056,0.3 0.126,0.3 0.069,0 0.225,0.225 0.347,0.501 0.122,0.275 0.291,0.459 0.374,0.407 0.139,-0.086 0.224,0.149 0.171,0.472 -0.012,0.072 0.129,0.292 0.313,0.49 0.185,0.198 0.335,0.425 0.335,0.505 0,0.079 0.077,0.097 0.171,0.039 0.094,-0.058 0.16,-0.044 0.147,0.032 -0.061,0.35 0.037,0.554 0.266,0.554 0.137,0 0.231,0.07 0.208,0.155 -0.023,0.085 0.108,0.278 0.292,0.429 C 8.1,83.235 8.137,83.3 8,83.23 c -0.138,-0.071 -0.006,0.117 0.292,0.417 0.298,0.3 0.541,0.623 0.541,0.719 0,0.095 0.135,0.138 0.3,0.095 0.202,-0.053 0.307,0.019 0.322,0.219 0.028,0.366 1.8,2.153 2.136,2.153 0.133,0 0.242,0.08 0.242,0.177 0,0.097 0.064,0.137 0.142,0.089 0.078,-0.048 0.24,0.097 0.361,0.323 0.121,0.226 0.309,0.411 0.417,0.411 0.109,0 0.439,0.231 0.735,0.513 0.298,0.286 0.642,0.473 0.774,0.422 0.131,-0.05 0.238,-0.013 0.238,0.082 0,0.262 0.441,0.65 0.738,0.65 0.144,0 0.262,0.075 0.262,0.167 0,0.091 0.192,0.166 0.427,0.166 0.234,0 0.385,0.067 0.335,0.148 -0.085,0.137 0.494,0.412 0.78,0.37 0.068,-0.01 0.125,0.052 0.125,0.137 0,0.195 0.996,0.701 1.169,0.594 0.071,-0.044 0.173,0.036 0.228,0.177 0.054,0.141 0.193,0.244 0.309,0.229 0.586,-0.077 0.929,0.041 1.009,0.345 0.051,0.196 0.227,0.334 0.426,0.334 0.186,0 0.385,0.075 0.442,0.166 0.057,0.092 0.249,0.167 0.427,0.167 0.177,0 0.323,0.084 0.323,0.186 0,0.103 0.146,0.148 0.327,0.101 0.18,-0.047 0.414,0.018 0.519,0.145 0.106,0.127 0.252,0.194 0.326,0.148 0.074,-0.046 0.248,0.03 0.386,0.168 0.138,0.139 0.44,0.252 0.67,0.252 0.231,0 0.467,0.077 0.525,0.171 0.058,0.094 0.194,0.16 0.301,0.147 0.428,-0.053 0.795,0.022 0.718,0.147 -0.045,0.072 0.112,0.147 0.348,0.166 0.236,0.02 0.528,0.117 0.648,0.217 0.119,0.099 0.29,0.136 0.378,0.081 0.088,-0.054 0.279,0.02 0.424,0.165 0.24,0.24 0.264,0.236 0.266,-0.04 0.002,-0.227 0.038,-0.248 0.141,-0.085 0.149,0.235 0.958,0.698 1.219,0.698 0.086,0 0.115,-0.068 0.064,-0.151 -0.052,-0.084 0.093,-0.065 0.322,0.041 0.228,0.106 0.416,0.249 0.417,0.318 0,0.069 0.259,0.125 0.574,0.125 0.316,0 0.62,0.075 0.677,0.167 0.057,0.091 0.357,0.166 0.667,0.166 0.31,0 0.6,0.059 0.644,0.131 0.044,0.071 0.325,0.148 0.624,0.171 0.298,0.023 0.628,0.113 0.733,0.199 0.104,0.087 0.334,0.131 0.511,0.099 0.177,-0.033 0.509,0.017 0.738,0.11 0.229,0.094 0.627,0.192 0.885,0.218 0.257,0.026 0.557,0.114 0.666,0.194 0.109,0.08 0.461,0.168 0.782,0.195 0.321,0.026 0.658,0.101 0.75,0.166 0.092,0.065 0.429,0.14 0.75,0.167 0.321,0.027 0.658,0.103 0.75,0.169 0.092,0.067 0.38,0.134 0.64,0.15 0.26,0.017 0.557,0.082 0.659,0.145 0.102,0.063 0.407,0.139 0.678,0.169 0.271,0.029 0.574,0.113 0.674,0.186 0.1,0.073 0.445,0.154 0.766,0.181 0.32,0.027 0.676,0.125 0.79,0.219 0.115,0.094 0.353,0.133 0.531,0.086 0.178,-0.046 0.482,0.026 0.675,0.162 0.277,0.194 0.402,0.203 0.594,0.044 0.184,-0.153 0.243,-0.154 0.243,-0.005 0,0.109 0.067,0.156 0.148,0.106 0.081,-0.05 0.234,0.013 0.34,0.141 0.106,0.128 0.321,0.21 0.478,0.183 0.156,-0.027 0.446,0.052 0.643,0.176 0.198,0.124 0.51,0.196 0.694,0.161 0.184,-0.036 0.472,0.04 0.64,0.168 0.169,0.128 0.551,0.234 0.849,0.237 0.298,0.003 0.541,0.07 0.541,0.149 0,0.079 0.193,0.123 0.427,0.097 0.251,-0.027 0.465,0.051 0.518,0.19 0.05,0.13 0.304,0.236 0.563,0.236 0.26,0 0.519,0.075 0.576,0.167 0.056,0.092 0.311,0.167 0.565,0.167 0.254,0 0.519,0.056 0.587,0.125 0.126,0.125 0.213,0.149 0.691,0.187 0.158,0.013 0.213,0.102 0.14,0.229 -0.066,0.115 -0.058,0.152 0.018,0.083 0.076,-0.069 0.295,-0.028 0.485,0.091 0.191,0.119 0.459,0.208 0.597,0.198 0.137,-0.01 0.614,0.235 1.058,0.546 0.445,0.31 0.946,0.574 1.114,0.587 0.168,0.013 0.268,0.082 0.223,0.155 -0.045,0.073 0.029,0.132 0.165,0.132 0.135,0 0.272,0.078 0.304,0.174 0.031,0.096 0.222,0.187 0.423,0.202 0.201,0.015 0.335,0.058 0.297,0.095 -0.122,0.122 0.409,0.553 0.563,0.458 0.083,-0.051 0.274,0.096 0.425,0.328 0.152,0.231 0.348,0.376 0.435,0.322 0.088,-0.054 0.16,0.01 0.16,0.143 0,0.133 0.19,0.29 0.423,0.348 0.233,0.059 0.378,0.18 0.323,0.269 -0.056,0.09 0.017,0.282 0.161,0.426 0.144,0.144 0.222,0.327 0.173,0.406 -0.049,0.08 0.076,0.113 0.278,0.074 0.282,-0.054 0.321,-0.025 0.171,0.126 -0.3,0.299 -0.234,0.594 0.159,0.719 0.25,0.08 0.294,0.151 0.149,0.241 -0.147,0.09 -0.153,0.16 -0.022,0.241 0.102,0.063 0.185,0.293 0.185,0.511 0,0.219 0.075,0.444 0.166,0.5 0.092,0.057 0.167,0.286 0.167,0.51 0,0.224 0.094,0.408 0.208,0.41 0.153,0.001 0.148,0.041 -0.019,0.146 -0.161,0.103 -0.17,0.163 -0.031,0.209 0.231,0.077 0.288,2.962 0.061,3.123 -0.078,0.056 -0.168,0.365 -0.198,0.686 -0.03,0.32 -0.121,0.624 -0.201,0.674 -0.081,0.05 -0.115,0.26 -0.075,0.467 0.044,0.228 -0.023,0.412 -0.17,0.468 -0.133,0.051 -0.242,0.277 -0.242,0.502 0,0.224 -0.059,0.372 -0.132,0.327 -0.072,-0.045 -0.144,0.08 -0.159,0.278 -0.015,0.198 -0.162,0.459 -0.326,0.579 -0.165,0.121 -0.299,0.294 -0.299,0.385 0,0.091 -0.1,0.227 -0.223,0.303 -0.122,0.075 -0.224,0.204 -0.225,0.285 -10e-4,0.082 -0.083,0.125 -0.181,0.097 -0.103,-0.029 -0.089,0.056 0.032,0.202 0.177,0.214 0.156,0.242 -0.135,0.186 -0.195,-0.037 -0.328,0.015 -0.307,0.12 0.021,0.102 -0.186,0.266 -0.461,0.364 -0.574,0.203 -0.917,0.488 -0.917,0.761 0,0.103 -0.086,0.135 -0.192,0.069 -0.106,-0.065 -0.274,-0.013 -0.375,0.116 -0.101,0.128 -0.296,0.233 -0.433,0.233 -0.138,0 -0.232,0.091 -0.21,0.203 0.023,0.117 -0.065,0.162 -0.209,0.107 -0.136,-0.053 -0.248,-0.012 -0.248,0.089 0,0.102 -0.143,0.185 -0.319,0.185 -0.176,0 -0.346,0.079 -0.378,0.175 -0.032,0.097 -0.186,0.195 -0.343,0.218 -0.156,0.023 -0.336,0.094 -0.399,0.157 -0.064,0.064 -0.223,0.116 -0.354,0.116 -0.131,0 -0.47,0.165 -0.753,0.366 -0.282,0.202 -0.458,0.277 -0.391,0.167 0.167,-0.269 -0.074,-0.243 -0.462,0.051 -0.174,0.131 -0.384,0.197 -0.466,0.147 -0.082,-0.051 -0.266,0.004 -0.409,0.123 -0.144,0.12 -0.557,0.193 -0.932,0.166 -0.386,-0.028 -0.724,0.035 -0.794,0.147 -0.073,0.119 -0.574,0.198 -1.269,0.201 -0.631,0.002 -1.229,0.07 -1.329,0.15 -0.256,0.205 -5.378,0.21 -5.624,0.005 -0.11,-0.091 -0.634,-0.166 -1.166,-0.166 -0.531,0 -1.055,-0.068 -1.164,-0.152 -0.109,-0.084 -0.423,-0.141 -0.698,-0.127 -0.275,0.013 -0.605,-0.055 -0.734,-0.152 -0.128,-0.096 -0.391,-0.178 -0.583,-0.181 -0.192,-0.003 -0.462,-0.076 -0.599,-0.162 -0.138,-0.086 -0.361,-0.173 -0.497,-0.194 -0.136,-0.02 -0.274,-0.116 -0.306,-0.213 -0.032,-0.097 -0.277,-0.176 -0.545,-0.176 -0.267,0 -0.486,-0.076 -0.486,-0.17 0,-0.097 -0.176,-0.125 -0.415,-0.065 -0.295,0.074 -0.444,0.027 -0.518,-0.164 -0.056,-0.147 -0.244,-0.267 -0.418,-0.267 -0.173,0 -0.315,-0.075 -0.315,-0.167 0,-0.092 -0.183,-0.167 -0.407,-0.167 -0.224,0 -0.453,-0.075 -0.51,-0.166 -0.057,-0.092 -0.192,-0.166 -0.302,-0.164 -0.122,0.001 -0.102,0.07 0.052,0.179 0.222,0.157 0.222,0.168 0,0.102 -0.138,-0.042 -0.231,-0.16 -0.208,-0.264 0.023,-0.103 -0.258,-0.318 -0.625,-0.476 -0.367,-0.159 -0.667,-0.347 -0.667,-0.417 0,-0.07 -0.138,-0.127 -0.308,-0.127 -0.169,0 -0.445,-0.153 -0.614,-0.339 -0.169,-0.187 -0.405,-0.302 -0.526,-0.255 -0.12,0.046 -0.219,0.007 -0.219,-0.085 0,-0.289 -0.742,-0.929 -1.215,-1.048 -0.248,-0.062 -0.451,-0.19 -0.451,-0.284 0,-0.094 -0.169,-0.338 -0.375,-0.542 -0.525,-0.519 -1.548,-1.227 -1.38,-0.954 0.094,0.151 0.076,0.186 -0.053,0.106 -0.106,-0.065 -0.192,-0.186 -0.192,-0.268 0,-0.259 -0.847,-1.009 -1.085,-0.961 -0.125,0.026 -0.247,-0.028 -0.272,-0.12 -0.091,-0.339 -0.819,-0.931 -1.004,-0.817 -0.117,0.073 -0.145,0.045 -0.074,-0.071 0.152,-0.246 -0.959,-1.362 -1.356,-1.362 -0.166,0 -0.469,-0.117 -0.674,-0.261 -0.443,-0.31 -18.44,-0.401 -18.746,-0.095 -0.09,0.09 -0.263,0.125 -0.384,0.078 -0.122,-0.046 -0.389,0.072 -0.595,0.263 -0.205,0.192 -0.437,0.348 -0.514,0.348 -0.077,0 -0.42,0.279 -0.76,0.62 l -0.62,0.62 0.03,2.588 c 0.016,1.424 0.033,2.804 0.038,3.067 0.005,0.346 0.074,0.452 0.249,0.385 0.18,-0.069 0.222,0.01 0.167,0.318 -0.049,0.265 0.014,0.444 0.178,0.507 0.139,0.053 0.208,0.171 0.152,0.261 -0.182,0.294 0.626,1.656 0.865,1.458 0.162,-0.135 0.199,-0.07 0.16,0.282 -0.051,0.465 0.276,0.974 0.489,0.761 0.064,-0.064 0.102,-0.042 0.083,0.05 -0.085,0.423 0.028,0.75 0.26,0.75 0.15,0 0.296,0.208 0.356,0.509 0.072,0.359 0.175,0.481 0.348,0.415 0.166,-0.064 0.216,-0.016 0.152,0.149 -0.064,0.167 -0.014,0.213 0.161,0.146 0.171,-0.066 0.236,-0.012 0.2,0.166 -0.03,0.145 0.096,0.385 0.279,0.535 0.183,0.149 0.221,0.225 0.083,0.168 -0.137,-0.057 -0.081,0.022 0.125,0.175 0.207,0.153 0.375,0.35 0.375,0.438 0,0.088 0.263,0.416 0.585,0.728 0.322,0.312 0.594,0.625 0.604,0.694 0.044,0.289 0.644,0.897 0.793,0.805 0.089,-0.055 0.216,-0.012 0.283,0.095 0.075,0.122 0.048,0.151 -0.072,0.076 -0.106,-0.065 -0.193,-0.069 -0.193,-0.008 0,0.119 0.851,0.825 0.996,0.826 0.048,0.001 0.489,0.394 0.979,0.875 0.491,0.481 0.96,0.832 1.043,0.78 0.083,-0.051 0.196,0.024 0.251,0.166 0.055,0.143 0.167,0.219 0.249,0.168 0.082,-0.051 0.149,0.016 0.149,0.148 0,0.211 0.412,0.439 0.917,0.507 0.091,0.012 0.241,0.195 0.333,0.405 0.108,0.249 0.269,0.357 0.458,0.308 0.161,-0.042 0.292,0.011 0.292,0.118 0,0.107 0.158,0.293 0.351,0.414 0.221,0.138 0.307,0.148 0.232,0.027 -0.077,-0.125 -10e-4,-0.118 0.222,0.021 0.187,0.117 0.305,0.269 0.263,0.337 -0.042,0.069 0.075,0.096 0.261,0.06 0.203,-0.039 0.338,0.024 0.338,0.157 0,0.199 0.731,0.52 1.035,0.455 0.066,-0.014 0.077,0.086 0.024,0.222 -0.071,0.187 0.033,0.248 0.423,0.248 0.285,0 0.518,0.08 0.518,0.177 0,0.097 0.075,0.13 0.166,0.073 0.092,-0.056 0.167,0.014 0.167,0.157 0,0.149 0.143,0.26 0.333,0.26 0.184,0 0.334,0.075 0.334,0.167 0,0.091 0.145,0.166 0.323,0.166 0.178,0 0.37,0.075 0.427,0.167 0.056,0.092 0.178,0.167 0.269,0.167 0.092,0 0.125,-0.068 0.074,-0.151 -0.052,-0.084 0.063,-0.111 0.254,-0.061 0.257,0.068 0.291,0.126 0.13,0.226 -0.301,0.186 -0.139,0.301 0.49,0.349 0.293,0.023 0.533,0.1 0.533,0.172 0,0.072 0.112,0.131 0.25,0.131 0.137,0 0.25,0.075 0.25,0.167 0,0.092 0.183,0.167 0.406,0.167 0.224,0 0.458,0.081 0.519,0.181 0.062,0.1 0.254,0.144 0.427,0.099 0.198,-0.052 0.314,0.004 0.314,0.152 0,0.149 0.182,0.234 0.5,0.234 0.275,0 0.5,0.075 0.5,0.167 0,0.092 0.146,0.167 0.324,0.167 0.178,0 0.37,0.075 0.426,0.166 0.057,0.092 0.216,0.167 0.353,0.167 0.152,0 0.202,-0.078 0.127,-0.199 -0.068,-0.11 0.115,-0.03 0.406,0.177 0.291,0.207 0.591,0.338 0.667,0.291 0.076,-0.047 0.326,0.012 0.556,0.132 0.23,0.119 0.623,0.195 0.872,0.168 0.279,-0.029 0.49,0.045 0.547,0.193 0.063,0.164 0.274,0.222 0.656,0.18 0.31,-0.034 0.638,0.027 0.728,0.136 0.091,0.109 0.513,0.203 0.939,0.208 0.425,0.006 0.821,0.08 0.878,0.164 0.058,0.084 0.469,0.157 0.914,0.162 0.445,0.004 0.857,0.083 0.916,0.173 0.06,0.091 0.553,0.179 1.097,0.196 0.544,0.016 1.071,0.097 1.171,0.18 0.239,0.198 1.806,0.137 1.962,-0.077 0.077,-0.104 0.124,-0.089 0.125,0.041 0.002,0.115 0.158,0.208 0.347,0.208 0.19,0 0.499,0.083 0.687,0.184 0.249,0.133 0.312,0.133 0.229,0 -0.062,-0.101 -0.034,-0.184 0.063,-0.184 0.098,0 0.177,0.062 0.177,0.138 0,0.243 13.337,0.233 13.638,-0.011 0.204,-0.165 0.233,-0.166 0.134,-0.002 -0.156,0.26 0.415,0.288 0.67,0.033 0.097,-0.097 0.881,-0.184 1.742,-0.194 0.861,-0.01 1.611,-0.086 1.666,-0.168 0.055,-0.083 0.505,-0.158 1,-0.166 0.495,-0.008 0.981,-0.077 1.08,-0.153 0.099,-0.075 0.624,-0.155 1.167,-0.177 0.542,-0.022 1.076,-0.126 1.185,-0.232 0.109,-0.105 0.39,-0.17 0.625,-0.144 0.234,0.026 0.426,-0.021 0.426,-0.105 0,-0.084 0.08,-0.152 0.177,-0.152 0.097,0 0.12,0.094 0.051,0.208 -0.076,0.127 -0.008,0.114 0.174,-0.034 0.164,-0.133 0.525,-0.225 0.801,-0.204 0.277,0.021 0.591,-0.035 0.699,-0.124 0.108,-0.09 0.474,-0.191 0.813,-0.226 0.34,-0.035 0.668,-0.114 0.729,-0.175 0.062,-0.061 0.329,-0.112 0.594,-0.112 0.279,0 0.439,-0.07 0.379,-0.166 -0.057,-0.092 0.07,-0.176 0.282,-0.186 0.75,-0.038 1.492,-0.308 1.373,-0.5 -0.05,-0.081 0.03,-0.148 0.178,-0.148 0.149,0 0.224,0.075 0.167,0.167 -0.057,0.092 0.014,0.167 0.157,0.167 0.143,0 0.26,-0.075 0.26,-0.167 0,-0.092 0.19,-0.167 0.422,-0.167 0.232,0 0.464,-0.112 0.517,-0.249 0.053,-0.137 0.144,-0.22 0.203,-0.186 0.059,0.035 0.295,-0.015 0.524,-0.109 0.23,-0.095 0.539,-0.158 0.688,-0.141 0.149,0.018 0.319,-0.091 0.377,-0.242 0.059,-0.155 0.211,-0.233 0.348,-0.181 0.134,0.052 0.288,0.022 0.342,-0.066 0.054,-0.087 0.281,-0.159 0.505,-0.159 0.224,0 0.407,-0.075 0.407,-0.167 0,-0.091 0.094,-0.168 0.208,-0.17 0.115,-0.002 0.396,-0.15 0.625,-0.33 0.23,-0.179 0.586,-0.327 0.792,-0.329 0.206,-0.002 0.375,-0.07 0.375,-0.151 0,-0.081 0.158,-0.189 0.35,-0.239 0.193,-0.05 0.307,-0.161 0.255,-0.245 -0.053,-0.087 0.098,-0.117 0.344,-0.07 0.361,0.069 0.42,0.033 0.33,-0.2 -0.062,-0.161 -0.04,-0.241 0.049,-0.185 0.187,0.115 0.805,-0.209 1.19,-0.622 0.149,-0.161 0.394,-0.292 0.543,-0.292 0.15,0 0.272,-0.075 0.272,-0.167 0,-0.091 0.123,-0.166 0.272,-0.166 0.15,0 0.394,-0.132 0.542,-0.292 0.403,-0.435 1.645,-1.375 1.817,-1.375 0.25,0 0.713,-0.6 0.578,-0.749 -0.069,-0.076 -0.032,-0.084 0.082,-0.019 0.225,0.13 0.735,-0.32 1.351,-1.192 0.228,-0.324 0.463,-0.496 0.579,-0.427 0.108,0.065 0.092,-0.011 -0.036,-0.168 -0.202,-0.249 -0.198,-0.273 0.034,-0.184 0.284,0.109 0.964,-0.46 1.159,-0.97 0.062,-0.16 0.208,-0.291 0.325,-0.291 0.118,0 0.427,-0.338 0.688,-0.751 0.261,-0.412 0.583,-0.811 0.716,-0.886 0.134,-0.074 0.255,-0.294 0.269,-0.488 0.015,-0.193 0.086,-0.315 0.159,-0.27 0.073,0.045 0.132,-0.033 0.132,-0.173 0,-0.139 0.152,-0.335 0.339,-0.435 0.186,-0.1 0.317,-0.308 0.291,-0.464 -0.027,-0.163 0.047,-0.264 0.174,-0.237 0.132,0.027 0.172,-0.033 0.1,-0.15 -0.067,-0.108 -0.013,-0.279 0.119,-0.38 0.351,-0.266 0.847,-1.404 0.71,-1.627 -0.073,-0.117 -0.044,-0.145 0.075,-0.072 0.122,0.076 0.192,-0.009 0.192,-0.234 0,-0.224 0.07,-0.309 0.192,-0.234 0.122,0.075 0.147,0.046 0.069,-0.081 -0.067,-0.109 -0.026,-0.316 0.092,-0.459 0.119,-0.143 0.233,-0.38 0.255,-0.527 0.022,-0.147 0.134,-0.445 0.25,-0.661 0.174,-0.325 0.168,-0.421 -0.032,-0.555 -0.196,-0.132 -0.182,-0.154 0.074,-0.115 0.24,0.037 0.331,-0.071 0.38,-0.451 0.035,-0.275 0.11,-0.612 0.167,-0.75 0.058,-0.138 0.135,-0.432 0.172,-0.654 0.037,-0.222 0.136,-0.532 0.22,-0.689 0.084,-0.157 0.142,-0.563 0.129,-0.903 -0.013,-0.339 0.058,-0.667 0.157,-0.728 0.111,-0.069 0.177,-0.744 0.17,-1.752 -0.006,-0.903 0.057,-1.69 0.139,-1.749 0.258,-0.187 0.294,-0.915 0.038,-0.761 -0.182,0.109 -0.183,0.086 -0.01,-0.129 0.225,-0.277 0.226,-1.302 0.003,-1.302 -0.073,0 -0.132,-0.079 -0.132,-0.176 0,-0.097 0.075,-0.13 0.167,-0.074 0.219,0.136 0.215,-0.135 -0.005,-0.355 -0.095,-0.095 -0.183,-0.894 -0.195,-1.776 -0.013,-0.882 -0.085,-1.565 -0.162,-1.518 -0.076,0.047 -0.138,-0.325 -0.138,-0.827 0,-0.502 -0.072,-0.938 -0.159,-0.968 -0.088,-0.031 -0.178,-0.332 -0.2,-0.67 -0.023,-0.338 -0.101,-0.577 -0.174,-0.532 -0.074,0.046 -0.142,-0.091 -0.151,-0.302 -0.043,-0.916 -0.076,-1.05 -0.257,-1.016 -0.113,0.021 -0.157,-0.097 -0.107,-0.285 0.046,-0.177 -0.037,-0.443 -0.186,-0.591 -0.148,-0.149 -0.226,-0.339 -0.174,-0.424 0.053,-0.085 -0.059,-0.372 -0.248,-0.638 -0.189,-0.265 -0.344,-0.64 -0.344,-0.832 0,-0.192 -0.075,-0.349 -0.167,-0.349 -0.091,0 -0.166,-0.15 -0.166,-0.333 0,-0.184 -0.075,-0.334 -0.167,-0.334 -0.092,0 -0.167,-0.15 -0.167,-0.333 0,-0.183 -0.106,-0.333 -0.236,-0.333 -0.131,0 -0.287,-0.225 -0.347,-0.5 -0.06,-0.275 -0.161,-0.5 -0.223,-0.5 -0.062,0 -0.212,-0.225 -0.334,-0.5 -0.121,-0.275 -0.327,-0.5 -0.457,-0.5 -0.13,0 -0.228,-0.057 -0.218,-0.125 0.046,-0.317 -0.247,-0.875 -0.459,-0.875 -0.13,0 -0.286,-0.129 -0.346,-0.287 -0.158,-0.41 -1.776,-2.047 -2.024,-2.047 -0.115,0 -0.165,-0.071 -0.111,-0.158 0.054,-0.087 -0.073,-0.248 -0.282,-0.359 -0.515,-0.272 -1.119,-0.934 -0.987,-1.082 0.059,-0.067 0.011,-0.065 -0.108,0.004 -0.273,0.157 -0.709,-0.191 -0.598,-0.478 0.074,-0.193 -0.475,-0.493 -0.811,-0.445 -0.069,0.01 -0.125,-0.081 -0.125,-0.204 0,-0.122 -0.207,-0.327 -0.459,-0.457 -0.252,-0.129 -0.579,-0.367 -0.728,-0.528 -0.148,-0.161 -0.392,-0.293 -0.541,-0.293 -0.15,0 -0.272,-0.062 -0.272,-0.138 0,-0.076 -0.207,-0.245 -0.459,-0.375 -0.252,-0.13 -0.605,-0.37 -0.785,-0.532 -0.181,-0.163 -0.418,-0.262 -0.528,-0.219 -0.111,0.042 -0.246,-0.042 -0.302,-0.187 -0.055,-0.145 -0.149,-0.215 -0.208,-0.155 -0.06,0.059 -0.236,-0.009 -0.392,-0.15 -0.157,-0.142 -0.388,-0.236 -0.514,-0.209 -0.126,0.027 -0.208,-0.051 -0.183,-0.172 0.025,-0.121 -0.025,-0.177 -0.112,-0.124 -0.086,0.054 -0.27,-0.015 -0.409,-0.154 -0.138,-0.138 -0.369,-0.251 -0.513,-0.251 -0.144,0 -0.262,-0.081 -0.262,-0.179 0,-0.099 -0.131,-0.152 -0.292,-0.119 -0.16,0.033 -0.391,-0.055 -0.512,-0.196 -0.187,-0.217 -0.202,-0.218 -0.098,-0.006 0.08,0.164 -0.015,0.135 -0.279,-0.084 -0.592,-0.491 -1.105,-0.75 -1.483,-0.75 -0.185,0 -0.336,-0.083 -0.336,-0.184 0,-0.102 -0.107,-0.144 -0.238,-0.093 -0.131,0.05 -0.333,-0.024 -0.449,-0.163 -0.13,-0.158 -0.391,-0.228 -0.686,-0.185 -0.261,0.038 -0.521,-0.004 -0.577,-0.095 -0.061,-0.099 -0.015,-0.111 0.117,-0.03 0.14,0.087 0.177,0.07 0.105,-0.047 -0.062,-0.1 -0.255,-0.155 -0.429,-0.121 -0.174,0.033 -0.358,-0.046 -0.408,-0.177 -0.05,-0.131 -0.269,-0.238 -0.485,-0.238 -0.217,0 -0.447,-0.052 -0.51,-0.116 -0.064,-0.064 -0.238,-0.134 -0.386,-0.155 -0.646,-0.095 -1.721,-0.481 -1.721,-0.618 0,-0.082 -0.187,-0.114 -0.415,-0.07 -0.237,0.045 -0.497,-0.019 -0.604,-0.148 -0.103,-0.124 -0.441,-0.226 -0.751,-0.226 -0.31,0 -0.563,-0.059 -0.563,-0.132 0,-0.072 -0.239,-0.149 -0.531,-0.171 -0.291,-0.022 -0.629,-0.123 -0.75,-0.223 -0.161,-0.133 -0.294,-0.121 -0.501,0.047 -0.192,0.155 -0.242,0.162 -0.157,0.02 0.084,-0.139 0.014,-0.208 -0.208,-0.208 -0.183,0 -0.38,-0.075 -0.436,-0.167 -0.057,-0.091 -0.384,-0.166 -0.727,-0.166 -0.343,0 -0.724,-0.094 -0.848,-0.209 -0.179,-0.166 -0.201,-0.166 -0.107,0 0.065,0.115 0.039,0.209 -0.058,0.209 -0.098,0 -0.177,-0.08 -0.177,-0.177 0,-0.097 -0.062,-0.138 -0.137,-0.092 -0.075,0.047 -0.332,-0.016 -0.57,-0.14 -0.239,-0.124 -0.704,-0.225 -1.034,-0.225 -0.331,0 -0.726,-0.101 -0.879,-0.225 -0.194,-0.157 -0.24,-0.162 -0.152,-0.016 0.069,0.114 0.046,0.208 -0.051,0.208 C 55.079,79.5 55,79.416 55,79.313 c 0,-0.136 -0.06,-0.137 -0.221,-0.004 -0.161,0.134 -0.273,0.13 -0.416,-0.013 -0.108,-0.108 -0.196,-0.132 -0.196,-0.054 0,0.079 -0.155,0.003 -0.344,-0.168 -0.294,-0.266 -0.366,-0.276 -0.497,-0.067 -0.105,0.166 -0.155,0.177 -0.157,0.035 -10e-4,-0.115 -0.082,-0.209 -0.179,-0.209 -0.097,0 -0.12,0.094 -0.051,0.209 0.089,0.148 0.046,0.144 -0.15,-0.015 -0.151,-0.122 -0.342,-0.181 -0.424,-0.13 -0.082,0.051 -0.291,-0.012 -0.465,-0.139 -0.243,-0.177 -0.371,-0.186 -0.557,-0.036 -0.186,0.151 -0.212,0.148 -0.115,-0.014 0.089,-0.148 -0.019,-0.208 -0.375,-0.208 -0.275,0 -0.537,-0.059 -0.581,-0.132 -0.045,-0.072 -0.365,-0.151 -0.711,-0.174 -0.345,-0.023 -0.725,-0.123 -0.844,-0.221 -0.118,-0.098 -0.417,-0.14 -0.665,-0.093 -0.257,0.049 -0.613,-0.021 -0.833,-0.165 -0.211,-0.139 -0.489,-0.211 -0.618,-0.161 -0.129,0.049 -0.374,-0.015 -0.543,-0.143 -0.169,-0.129 -0.514,-0.236 -0.766,-0.239 -0.252,-0.003 -0.459,-0.089 -0.459,-0.191 0,-0.111 -0.198,-0.156 -0.493,-0.113 -0.328,0.048 -0.525,-0.008 -0.586,-0.167 -0.058,-0.152 -0.242,-0.21 -0.506,-0.16 -0.228,0.044 -0.546,-0.02 -0.706,-0.142 -0.161,-0.122 -0.483,-0.224 -0.717,-0.227 -0.234,-0.003 -0.515,-0.095 -0.625,-0.205 -0.156,-0.156 -0.2,-0.156 -0.2,0 0,0.11 -0.079,0.2 -0.177,0.2 -0.097,0 -0.13,-0.075 -0.073,-0.167 0.057,-0.092 0.02,-0.167 -0.082,-0.167 -0.101,0 -0.48,-0.143 -0.843,-0.318 -0.362,-0.175 -0.658,-0.247 -0.658,-0.161 0,0.092 -0.139,0.083 -0.334,-0.021 -0.183,-0.098 -0.335,-0.119 -0.338,-0.047 -0.003,0.072 -0.082,-0.001 -0.175,-0.161 -0.093,-0.16 -0.349,-0.292 -0.568,-0.292 -0.22,0 -0.445,-0.075 -0.502,-0.166 C 37.193,74.575 37.001,74.5 36.823,74.5 36.646,74.5 36.5,74.416 36.5,74.314 c 0,-0.108 -0.172,-0.153 -0.408,-0.108 -0.261,0.05 -0.442,-0.01 -0.502,-0.165 -0.051,-0.133 -0.201,-0.201 -0.333,-0.15 -0.167,0.064 -0.209,0.011 -0.138,-0.174 0.083,-0.217 0.021,-0.247 -0.331,-0.158 -0.261,0.065 -0.482,0.032 -0.554,-0.084 -0.074,-0.12 -0.046,-0.148 0.074,-0.074 0.105,0.065 0.192,0.031 0.192,-0.077 0,-0.118 -0.162,-0.165 -0.408,-0.118 -0.235,0.045 -0.395,0.003 -0.375,-0.098 0.018,-0.097 -0.063,-0.18 -0.181,-0.184 -0.118,-0.004 -0.268,-0.082 -0.334,-0.174 -0.173,-0.243 -0.824,-0.583 -1.116,-0.583 -0.139,0 -0.253,-0.1 -0.253,-0.221 0,-0.121 -0.375,-0.622 -0.833,-1.113 -0.458,-0.49 -0.833,-0.991 -0.833,-1.112 0,-0.122 -0.075,-0.221 -0.167,-0.221 -0.092,0 -0.167,-0.116 -0.167,-0.257 0,-0.141 -0.15,-0.418 -0.333,-0.615 -0.183,-0.197 -0.332,-0.437 -0.331,-0.534 0.002,-0.098 0.075,-0.065 0.164,0.073 0.089,0.137 0.161,0.175 0.159,0.083 -0.001,-0.092 -0.102,-0.298 -0.224,-0.459 -0.122,-0.16 -0.184,-0.487 -0.139,-0.726 0.046,-0.238 -0.003,-0.487 -0.108,-0.552 -0.25,-0.154 -0.283,-2.317 -0.039,-2.561 0.101,-0.102 0.185,-0.466 0.185,-0.809 0,-0.343 0.075,-0.67 0.166,-0.726 0.092,-0.057 0.167,-0.319 0.167,-0.584 0,-0.264 0.075,-0.526 0.167,-0.583 0.091,-0.057 0.166,-0.237 0.166,-0.401 0,-0.163 0.15,-0.433 0.334,-0.599 0.183,-0.166 0.333,-0.405 0.333,-0.532 0,-0.126 0.119,-0.411 0.264,-0.633 0.146,-0.222 0.221,-0.475 0.167,-0.562 -0.054,-0.088 0.041,-0.122 0.212,-0.077 0.215,0.056 0.339,-0.027 0.402,-0.266 0.05,-0.191 0.201,-0.347 0.337,-0.347 0.135,0 0.285,-0.15 0.333,-0.333 0.048,-0.183 0.211,-0.333 0.363,-0.333 0.151,0 0.234,-0.067 0.184,-0.148 -0.051,-0.081 0.034,-0.25 0.188,-0.375 0.193,-0.156 0.242,-0.162 0.155,-0.019 -0.21,0.351 0.301,0.237 0.562,-0.125 0.132,-0.183 0.34,-0.333 0.463,-0.333 0.126,0 0.171,-0.084 0.104,-0.193 -0.067,-0.109 -0.046,-0.147 0.049,-0.088 0.092,0.057 0.31,-0.004 0.484,-0.136 0.174,-0.132 0.443,-0.242 0.598,-0.245 0.155,-0.003 0.333,-0.088 0.396,-0.19 0.078,-0.125 -0.013,-0.148 -0.282,-0.072 -0.281,0.08 -0.328,0.066 -0.162,-0.05 0.129,-0.088 0.487,-0.141 0.796,-0.117 0.309,0.025 0.602,-0.02 0.651,-0.099 0.049,-0.079 0.268,-0.144 0.486,-0.144 0.218,0 0.443,-0.075 0.5,-0.166 0.057,-0.092 0.384,-0.167 0.727,-0.167 0.342,0 0.708,-0.085 0.812,-0.189 0.11,-0.11 0.738,-0.188 1.492,-0.187 0.716,0.002 1.379,-0.057 1.472,-0.132 0.281,-0.224 2.875,-0.232 3.142,-0.01 0.186,0.155 0.258,0.151 0.326,-0.017 0.067,-0.167 0.089,-0.164 0.099,0.014 0.011,0.194 0.056,0.194 0.295,0 0.192,-0.156 0.242,-0.162 0.157,-0.021 -0.069,0.115 -0.054,0.209 0.034,0.209 0.087,0 0.209,-0.132 0.271,-0.292 0.107,-0.275 0.127,-0.274 0.34,0.017 0.125,0.169 0.308,0.258 0.407,0.197 0.099,-0.061 0.416,0.006 0.704,0.15 0.288,0.143 0.807,0.261 1.154,0.261 0.348,0 0.678,0.075 0.735,0.167 0.056,0.091 0.319,0.166 0.583,0.166 0.264,0 0.527,0.075 0.583,0.167 0.057,0.092 0.319,0.167 0.584,0.167 0.264,0 0.527,0.076 0.585,0.169 0.057,0.093 0.169,0.129 0.248,0.081 0.079,-0.049 0.188,-0.018 0.242,0.07 0.123,0.199 1.074,0.68 1.344,0.68 0.112,0 0.393,0.15 0.626,0.333 0.233,0.183 0.529,0.333 0.658,0.333 0.129,0 0.389,0.145 0.579,0.322 0.19,0.177 0.484,0.301 0.654,0.276 0.179,-0.026 0.382,0.102 0.482,0.303 0.095,0.192 0.345,0.374 0.554,0.404 0.21,0.03 0.429,0.18 0.487,0.333 0.169,0.447 0.53,0.736 0.793,0.635 0.139,-0.054 0.227,-0.007 0.204,0.108 -0.022,0.112 0.054,0.184 0.169,0.161 0.114,-0.023 0.208,0.022 0.208,0.1 0,0.29 1.018,1.201 1.215,1.087 0.111,-0.063 0.155,-0.063 0.097,0.002 -0.139,0.156 0.856,1.269 1.135,1.269 0.121,0 0.22,0.08 0.22,0.177 0,0.097 0.069,0.134 0.153,0.082 0.214,-0.133 0.707,0.396 0.572,0.614 -0.061,0.1 -0.033,0.131 0.065,0.071 0.096,-0.06 0.22,0.008 0.274,0.151 0.055,0.143 0.172,0.215 0.261,0.161 0.088,-0.055 0.284,0.09 0.437,0.322 0.152,0.232 0.392,0.422 0.535,0.422 0.142,0 0.209,0.05 0.148,0.11 -0.155,0.156 0.52,0.598 0.722,0.473 0.091,-0.056 0.166,-0.002 0.166,0.121 0,0.151 0.256,0.235 0.781,0.258 0.43,0.019 0.857,0.11 0.95,0.203 0.217,0.217 14.969,0.233 15.194,0.016 0.087,-0.083 0.346,-0.177 0.575,-0.208 0.229,-0.031 0.472,-0.131 0.539,-0.223 0.077,-0.105 0.124,-0.094 0.125,0.029 0.004,0.325 1.003,-0.265 1.207,-0.712 0.118,-0.258 0.245,-0.345 0.363,-0.249 0.112,0.092 0.266,0.059 0.398,-0.084 0.118,-0.129 0.155,-0.236 0.083,-0.239 -0.072,-0.003 10e-4,-0.082 0.164,-0.177 0.162,-0.094 0.25,-0.244 0.195,-0.332 -0.054,-0.088 -0.037,-0.14 0.039,-0.115 0.075,0.025 0.161,-0.029 0.191,-0.121 0.029,-0.091 0.157,-0.281 0.284,-0.422 0.283,-0.313 0.293,-3.283 0.012,-3.651 -0.139,-0.183 -0.133,-0.211 0.025,-0.115 0.115,0.068 0.208,0.05 0.208,-0.042 0,-0.092 -0.075,-0.213 -0.166,-0.27 -0.092,-0.056 -0.167,-0.361 -0.167,-0.676 0,-0.316 -0.07,-0.574 -0.156,-0.574 -0.085,0 -0.179,-0.206 -0.208,-0.458 -0.029,-0.252 -0.138,-0.442 -0.243,-0.423 -0.105,0.02 -0.229,-0.111 -0.276,-0.292 -0.057,-0.216 -0.02,-0.29 0.107,-0.219 0.121,0.068 0.115,0.024 -0.016,-0.117 C 85.594,55.201 85.5,54.965 85.5,54.8 c 0,-0.165 -0.075,-0.3 -0.167,-0.3 -0.091,0 -0.166,-0.15 -0.166,-0.333 0,-0.186 -0.111,-0.334 -0.25,-0.334 -0.138,0 -0.25,-0.082 -0.25,-0.182 0,-0.1 -0.149,-0.371 -0.331,-0.603 -0.182,-0.231 -0.288,-0.491 -0.235,-0.576 0.053,-0.086 -0.079,-0.309 -0.294,-0.495 -0.215,-0.186 -0.397,-0.388 -0.405,-0.449 -0.049,-0.38 -0.315,-0.695 -0.586,-0.695 -0.208,0 -0.316,-0.117 -0.316,-0.343 0,-0.189 -0.075,-0.297 -0.167,-0.24 -0.091,0.057 -0.166,-0.058 -0.166,-0.256 0,-0.218 -0.131,-0.393 -0.334,-0.446 C 81.65,49.5 81.5,49.361 81.5,49.238 c 0,-0.328 -0.825,-1.096 -1.037,-0.965 -0.112,0.069 -0.133,0.034 -0.054,-0.094 0.138,-0.223 -0.537,-0.799 -0.826,-0.705 -0.091,0.029 -0.119,0.007 -0.062,-0.051 0.174,-0.173 -0.874,-1.238 -1.124,-1.142 -0.127,0.048 -0.23,10e-4 -0.23,-0.106 0,-0.107 -0.077,-0.147 -0.171,-0.089 -0.094,0.058 -0.16,0.044 -0.147,-0.032 0.06,-0.348 -0.036,-0.554 -0.26,-0.554 -0.134,0 -0.324,-0.15 -0.422,-0.333 -0.098,-0.184 -0.323,-0.334 -0.5,-0.334 -0.177,0 -0.405,-0.155 -0.507,-0.346 -0.102,-0.19 -0.287,-0.307 -0.41,-0.26 -0.124,0.047 -0.345,-0.097 -0.491,-0.32 -0.147,-0.224 -0.35,-0.407 -0.452,-0.407 -0.101,0 -0.329,-0.166 -0.505,-0.37 -0.253,-0.292 -0.35,-0.322 -0.46,-0.144 -0.106,0.172 -0.166,0.14 -0.253,-0.135 -0.063,-0.198 -0.214,-0.339 -0.336,-0.314 -0.122,0.026 -0.376,-0.131 -0.565,-0.348 -0.204,-0.234 -0.449,-0.355 -0.6,-0.297 -0.157,0.06 -0.255,0.004 -0.255,-0.147 0,-0.145 -0.157,-0.245 -0.385,-0.245 -0.212,0 -0.553,-0.157 -0.759,-0.348 -0.205,-0.191 -0.479,-0.307 -0.61,-0.257 -0.13,0.05 -0.456,-0.093 -0.724,-0.319 -0.267,-0.225 -0.569,-0.409 -0.671,-0.409 -0.101,0 -0.184,-0.074 -0.184,-0.165 0,-0.091 -0.169,-0.147 -0.375,-0.125 -0.226,0.024 -0.358,-0.043 -0.333,-0.169 0.023,-0.114 -0.015,-0.199 -0.084,-0.188 -0.358,0.056 -0.716,-0.038 -0.636,-0.168 0.05,-0.081 -0.002,-0.144 -0.115,-0.14 -0.653,0.023 -0.967,-0.062 -0.86,-0.234 0.071,-0.115 0.026,-0.156 -0.115,-0.105 -0.128,0.046 -0.457,-0.03 -0.732,-0.169 -0.275,-0.138 -0.639,-0.321 -0.809,-0.407 -0.238,-0.119 -0.279,-0.104 -0.176,0.066 0.104,0.173 0.072,0.171 -0.15,-0.008 -0.155,-0.126 -0.282,-0.174 -0.282,-0.106 0,0.067 -0.187,0 -0.416,-0.15 C 63.188,37.949 63,37.902 63,37.996 c 0,0.094 -0.079,0.171 -0.177,0.171 -0.097,0 -0.137,-0.064 -0.089,-0.142 0.134,-0.215 -0.666,-0.582 -1.05,-0.481 -0.186,0.048 -0.421,-0.011 -0.522,-0.133 -0.101,-0.122 -0.411,-0.215 -0.689,-0.207 -0.278,0.008 -0.565,-0.083 -0.639,-0.202 -0.073,-0.12 -0.244,-0.175 -0.38,-0.123 -0.135,0.052 -0.451,-0.012 -0.702,-0.142 -0.541,-0.281 -0.641,-0.295 -0.502,-0.07 0.057,0.091 0.024,0.166 -0.073,0.166 C 58.079,36.833 58,36.774 58,36.702 58,36.63 57.756,36.553 57.458,36.53 57.16,36.508 56.892,36.417 56.861,36.328 c -0.03,-0.089 -0.42,-0.161 -0.865,-0.161 -0.445,0 -0.856,-0.075 -0.913,-0.167 -0.147,-0.238 -0.872,-0.207 -0.973,0.042 -0.067,0.166 -0.086,0.166 -0.097,0 -0.007,-0.115 -0.196,-0.209 -0.42,-0.209 -0.224,0 -0.451,-0.071 -0.505,-0.158 -0.053,-0.087 -0.801,-0.154 -1.661,-0.148 -0.86,0.006 -1.663,-0.05 -1.784,-0.125 -0.304,-0.188 -10.275,-0.204 -10.462,-0.017 m 198.062,-0.01 c -0.058,0.151 -0.615,0.205 -2.037,0.195 -1.076,-0.007 -1.999,0.052 -2.052,0.13 -0.053,0.079 -0.578,0.153 -1.167,0.164 -0.589,0.011 -1.155,0.086 -1.259,0.166 -0.104,0.08 -0.457,0.155 -0.785,0.168 -0.328,0.012 -0.565,0.073 -0.527,0.134 0.038,0.062 -0.037,0.112 -0.166,0.112 -0.129,0 -0.197,-0.062 -0.149,-0.138 0.047,-0.077 0.012,-0.139 -0.077,-0.139 -0.09,0 -0.188,0.074 -0.218,0.166 -0.031,0.091 -0.393,0.179 -0.805,0.196 -0.412,0.016 -0.849,0.128 -0.971,0.25 -0.131,0.132 -0.419,0.187 -0.709,0.136 -0.275,-0.049 -0.488,-0.013 -0.488,0.083 0,0.093 -0.258,0.169 -0.573,0.169 -0.316,0 -0.62,0.075 -0.677,0.166 -0.056,0.092 -0.288,0.167 -0.515,0.167 -0.227,0 -0.597,0.121 -0.823,0.268 -0.225,0.148 -0.513,0.229 -0.64,0.18 -0.127,-0.049 -0.314,-0.005 -0.416,0.097 -0.183,0.182 -0.318,0.226 -1.231,0.404 -0.252,0.049 -0.458,0.19 -0.458,0.315 0,0.125 -0.104,0.186 -0.233,0.136 -0.128,-0.049 -0.283,-0.009 -0.343,0.089 -0.061,0.098 -0.339,0.178 -0.618,0.178 -0.385,0 -0.485,0.061 -0.412,0.252 0.074,0.192 0.009,0.23 -0.275,0.158 -0.245,-0.061 -0.5,0.026 -0.746,0.255 -0.239,0.223 -0.375,0.27 -0.378,0.133 -0.004,-0.15 -0.067,-0.135 -0.209,0.05 -0.111,0.145 -0.289,0.235 -0.395,0.199 -0.106,-0.035 -0.313,0.106 -0.459,0.314 -0.176,0.252 -0.267,0.297 -0.271,0.134 -0.004,-0.206 -0.037,-0.203 -0.208,0.019 -0.112,0.146 -0.283,0.238 -0.382,0.205 -0.098,-0.034 -0.316,0.091 -0.484,0.277 -0.168,0.185 -0.436,0.337 -0.595,0.337 -0.159,0 -0.335,0.117 -0.39,0.261 -0.055,0.143 -0.176,0.213 -0.269,0.156 -0.167,-0.104 -0.713,0.314 -0.582,0.445 0.037,0.037 -0.077,0.079 -0.254,0.092 -0.177,0.014 -0.487,0.179 -0.691,0.369 -0.203,0.189 -0.467,0.344 -0.587,0.344 -0.121,0 -0.219,0.117 -0.219,0.26 0,0.142 -0.066,0.219 -0.146,0.169 -0.08,-0.049 -0.28,0.089 -0.444,0.308 -0.164,0.219 -0.399,0.359 -0.521,0.312 -0.122,-0.047 -0.222,-0.011 -0.222,0.08 0,0.091 -0.15,0.204 -0.334,0.252 -0.183,0.048 -0.333,0.207 -0.333,0.353 0,0.146 -0.137,0.266 -0.305,0.266 -0.168,0 -0.404,0.185 -0.525,0.411 -0.121,0.226 -0.265,0.388 -0.32,0.359 -0.155,-0.079 -0.669,0.521 -0.55,0.641 0.059,0.059 -0.004,0.067 -0.138,0.019 -0.279,-0.1 -0.947,0.341 -0.776,0.511 0.062,0.062 -0.038,0.217 -0.22,0.345 -0.183,0.128 -0.333,0.336 -0.333,0.463 0,0.127 -0.074,0.277 -0.164,0.333 -0.095,0.058 -0.123,-0.009 -0.066,-0.157 0.055,-0.142 0.05,-0.259 -0.009,-0.259 -0.205,0 -0.887,0.778 -1.003,1.142 -0.063,0.2 -0.179,0.324 -0.256,0.276 -0.078,-0.048 -0.296,0.119 -0.485,0.372 -0.188,0.253 -0.465,0.586 -0.613,0.74 -0.152,0.158 -0.216,0.37 -0.145,0.485 0.081,0.131 0.057,0.161 -0.068,0.084 -0.205,-0.127 -0.691,0.26 -0.691,0.55 0,0.095 -0.15,0.253 -0.333,0.351 -0.183,0.098 -0.333,0.289 -0.333,0.423 0,0.134 -0.075,0.244 -0.167,0.244 -0.092,0 -0.167,0.11 -0.167,0.244 0,0.134 -0.15,0.325 -0.333,0.423 -0.183,0.098 -0.333,0.271 -0.333,0.385 0,0.114 -0.15,0.316 -0.334,0.448 -0.183,0.132 -0.333,0.339 -0.333,0.46 0,0.122 -0.15,0.382 -0.333,0.578 -0.184,0.197 -0.334,0.457 -0.334,0.577 0,0.12 -0.075,0.218 -0.166,0.218 -0.092,0 -0.167,0.15 -0.167,0.334 0,0.183 -0.075,0.333 -0.167,0.333 -0.091,0 -0.166,0.102 -0.166,0.228 0,0.125 -0.155,0.424 -0.344,0.665 -0.19,0.24 -0.303,0.505 -0.251,0.588 0.051,0.083 -0.024,0.196 -0.167,0.25 -0.143,0.055 -0.212,0.176 -0.155,0.269 0.057,0.093 -0.013,0.214 -0.156,0.269 -0.143,0.055 -0.261,0.242 -0.261,0.415 0,0.174 -0.075,0.316 -0.166,0.316 -0.092,0 -0.167,0.183 -0.167,0.407 0,0.224 -0.076,0.454 -0.169,0.511 -0.094,0.058 -0.124,0.18 -0.067,0.271 0.056,0.092 -0.017,0.255 -0.164,0.364 -0.146,0.108 -0.282,0.4 -0.302,0.647 -0.02,0.248 -0.069,0.418 -0.109,0.378 -0.111,-0.111 -0.522,0.753 -0.522,1.098 0,0.167 -0.075,0.351 -0.167,0.407 -0.092,0.057 -0.167,0.282 -0.167,0.5 0,0.219 -0.075,0.444 -0.166,0.5 -0.092,0.057 -0.167,0.282 -0.167,0.5 0,0.219 -0.075,0.444 -0.167,0.5 -0.091,0.057 -0.166,0.282 -0.166,0.5 0,0.219 -0.076,0.444 -0.169,0.501 -0.092,0.058 -0.152,0.317 -0.132,0.577 0.02,0.26 -0.064,0.592 -0.186,0.739 -0.146,0.177 -0.158,0.267 -0.034,0.267 0.103,0 0.186,0.131 0.185,0.291 -0.002,0.25 -0.026,0.256 -0.164,0.042 -0.127,-0.196 -0.162,-0.152 -0.164,0.198 -0.002,0.247 -0.081,0.497 -0.176,0.556 -0.095,0.058 -0.155,0.401 -0.134,0.76 0.022,0.36 -0.051,0.744 -0.16,0.853 -0.11,0.11 -0.2,0.555 -0.2,0.99 0,0.434 -0.075,0.836 -0.166,0.893 -0.241,0.149 -0.206,1.373 0.041,1.473 0.167,0.067 0.167,0.087 0,0.097 -0.114,0.007 -0.208,0.159 -0.208,0.337 0,0.178 -0.073,0.369 -0.163,0.424 -0.091,0.056 -0.144,0.755 -0.121,1.593 0.028,1.031 -0.018,1.493 -0.149,1.493 -0.252,0 -0.245,3.531 0.006,3.705 0.123,0.086 0.122,0.124 -0.005,0.125 -0.152,0.003 -0.284,3.318 -0.27,6.795 0.033,8.29 0.072,10.205 0.21,10.12 0.191,-0.118 0.197,-0.05 0.175,1.755 -0.017,1.341 0.158,2.072 0.567,2.372 0.103,0.076 0.088,0.124 -0.042,0.125 -0.252,0.003 -0.289,1.266 -0.041,1.419 0.091,0.057 0.166,0.459 0.166,0.894 0,0.434 0.07,0.861 0.156,0.948 0.086,0.087 0.188,0.458 0.227,0.825 0.039,0.367 0.123,0.787 0.187,0.935 0.063,0.148 0.135,0.448 0.159,0.667 0.024,0.219 0.135,0.567 0.247,0.773 0.111,0.206 0.153,0.375 0.093,0.375 -0.06,0 -0.032,0.094 0.063,0.208 0.096,0.115 0.18,0.265 0.187,0.334 0.008,0.068 0.023,0.181 0.032,0.25 0.01,0.068 0.004,0.331 -0.012,0.583 -0.02,0.294 0.052,0.458 0.2,0.458 0.153,0 0.219,0.169 0.196,0.5 -0.019,0.275 0.027,0.461 0.103,0.414 0.186,-0.115 0.361,0.475 0.237,0.798 -0.065,0.171 0.025,0.298 0.269,0.375 0.286,0.091 0.316,0.148 0.137,0.26 -0.188,0.116 -0.192,0.206 -0.022,0.479 0.114,0.185 0.208,0.45 0.208,0.589 0,0.138 0.11,0.252 0.245,0.252 0.152,0 0.207,0.097 0.146,0.256 -0.054,0.141 0.024,0.391 0.172,0.555 0.149,0.165 0.227,0.343 0.174,0.396 -0.053,0.054 0.022,0.279 0.167,0.5 0.145,0.222 0.207,0.465 0.138,0.541 -0.069,0.076 -0.032,0.085 0.083,0.019 0.187,-0.107 0.295,0.182 0.228,0.608 -0.011,0.069 0.074,0.106 0.189,0.083 0.128,-0.025 0.188,0.102 0.156,0.334 -0.029,0.206 0.027,0.375 0.125,0.375 0.097,0 0.177,0.115 0.177,0.255 0,0.14 0.108,0.296 0.239,0.347 0.132,0.051 0.202,0.191 0.156,0.311 -0.047,0.121 0.007,0.276 0.119,0.346 0.139,0.085 0.161,0.056 0.069,-0.093 -0.09,-0.145 -0.069,-0.178 0.061,-0.097 0.107,0.066 0.147,0.197 0.089,0.291 -0.144,0.234 0.27,0.973 0.545,0.973 0.122,0 0.208,0.056 0.192,0.125 -0.069,0.286 0.625,1.541 0.812,1.469 0.121,-0.046 0.164,0.019 0.109,0.163 -0.051,0.132 0.027,0.286 0.174,0.342 0.147,0.057 0.233,0.157 0.192,0.223 -0.041,0.067 0.147,0.363 0.417,0.66 0.271,0.296 0.493,0.614 0.493,0.707 0,0.268 0.481,0.676 0.663,0.563 0.096,-0.059 0.124,0.007 0.067,0.156 -0.064,0.168 -0.005,0.259 0.169,0.259 0.147,0 0.251,0.056 0.232,0.125 -0.063,0.223 0.381,0.887 0.532,0.794 0.08,-0.05 0.189,0.046 0.242,0.213 0.094,0.295 2.837,3.201 3.022,3.201 0.051,0 0.045,-0.094 -0.013,-0.208 -0.058,-0.115 0.012,-0.063 0.157,0.115 0.144,0.178 0.262,0.392 0.262,0.476 0,0.205 0.846,0.86 1.115,0.864 0.118,0.002 0.226,0.078 0.239,0.17 0.037,0.249 0.855,0.91 1.009,0.815 0.073,-0.046 0.084,0.047 0.023,0.205 -0.084,0.218 -0.045,0.262 0.162,0.183 0.172,-0.066 0.384,0.032 0.571,0.263 0.164,0.202 0.504,0.473 0.756,0.603 0.252,0.131 0.458,0.299 0.458,0.375 0,0.077 0.099,0.139 0.219,0.139 0.12,0 0.379,0.15 0.576,0.333 0.39,0.363 0.626,0.443 0.445,0.15 -0.076,-0.123 0.007,-0.119 0.254,0.014 0.203,0.108 0.325,0.239 0.273,0.292 -0.13,0.13 0.424,0.533 0.744,0.539 0.143,0.003 0.408,0.143 0.588,0.312 0.181,0.168 0.528,0.356 0.77,0.416 0.243,0.061 0.542,0.212 0.665,0.335 0.124,0.123 0.389,0.199 0.589,0.169 0.286,-0.044 0.343,0.007 0.261,0.234 -0.057,0.159 -0.043,0.235 0.03,0.169 0.126,-0.114 1.065,0.314 1.26,0.574 0.05,0.067 0.313,0.104 0.584,0.084 0.334,-0.026 0.478,0.033 0.447,0.183 -0.026,0.121 0.024,0.177 0.109,0.125 0.209,-0.129 0.706,0.07 0.601,0.241 -0.046,0.074 0.101,0.114 0.327,0.089 0.225,-0.025 0.394,0.034 0.375,0.13 -0.018,0.096 0.107,0.205 0.278,0.242 0.224,0.049 0.275,0.004 0.182,-0.157 -0.072,-0.123 0.066,-0.046 0.305,0.173 0.28,0.254 0.558,0.364 0.777,0.307 0.225,-0.059 0.341,-0.009 0.341,0.145 0,0.156 0.192,0.234 0.574,0.234 0.315,0 0.624,0.082 0.685,0.182 0.062,0.099 0.25,0.145 0.419,0.1 0.169,-0.044 0.442,0.022 0.606,0.147 0.165,0.125 0.531,0.23 0.814,0.233 0.282,0.003 0.563,0.055 0.624,0.115 0.061,0.061 0.352,0.137 0.647,0.17 0.295,0.032 0.61,0.132 0.701,0.223 0.214,0.214 0.48,0.212 0.347,-0.002 -0.067,-0.11 0.041,-0.112 0.318,-0.007 0.266,0.101 0.456,0.102 0.518,0.001 0.055,-0.088 0.249,-0.018 0.436,0.156 0.243,0.227 0.598,0.318 1.269,0.326 0.513,0.006 0.985,0.097 1.049,0.201 0.087,0.141 0.214,0.138 0.492,-0.011 0.206,-0.11 0.328,-0.124 0.271,-0.031 -0.067,0.107 0.305,0.171 1.019,0.177 0.619,0.005 1.15,0.086 1.182,0.181 0.077,0.233 0.461,0.218 0.87,-0.036 0.251,-0.155 0.366,-0.159 0.456,-0.016 0.087,0.139 1.757,0.197 6.005,0.208 3.882,0.011 5.85,-0.04 5.782,-0.15 -0.057,-0.092 -0.03,-0.167 0.059,-0.167 0.09,0 0.194,0.094 0.233,0.209 0.054,0.16 0.137,0.153 0.36,-0.032 0.205,-0.169 0.66,-0.229 1.55,-0.206 0.731,0.019 1.353,-0.045 1.483,-0.153 0.123,-0.102 0.669,-0.197 1.214,-0.21 0.544,-0.013 0.977,-0.088 0.961,-0.165 -0.015,-0.077 0.348,-0.169 0.806,-0.205 1.497,-0.116 2.499,-0.274 2.584,-0.407 0.045,-0.072 0.345,-0.155 0.666,-0.185 0.321,-0.03 0.625,-0.112 0.675,-0.181 0.051,-0.07 0.362,-0.146 0.692,-0.17 0.331,-0.025 0.566,-0.101 0.524,-0.17 -0.042,-0.068 0.19,-0.125 0.516,-0.125 0.326,0 0.593,-0.056 0.593,-0.126 0,-0.135 1.173,-0.54 1.562,-0.54 0.128,0 0.443,-0.109 0.699,-0.242 0.256,-0.133 0.539,-0.196 0.628,-0.141 0.09,0.056 0.114,0.022 0.055,-0.074 -0.131,-0.211 0.297,-0.402 0.623,-0.277 0.128,0.049 0.282,0.01 0.343,-0.088 0.06,-0.098 0.256,-0.178 0.434,-0.178 0.177,0 0.323,-0.106 0.323,-0.235 0,-0.152 0.117,-0.204 0.333,-0.147 0.23,0.06 0.334,0.005 0.334,-0.177 0,-0.159 0.093,-0.228 0.234,-0.174 0.129,0.049 0.533,-0.099 0.899,-0.329 0.365,-0.231 0.709,-0.374 0.765,-0.318 0.056,0.056 0.102,-0.016 0.102,-0.16 0,-0.18 0.104,-0.235 0.333,-0.175 0.186,0.048 0.333,0.005 0.333,-0.099 0,-0.103 0.117,-0.186 0.26,-0.186 0.154,0 0.212,-0.079 0.141,-0.193 -0.065,-0.106 -0.051,-0.152 0.032,-0.103 0.22,0.131 0.939,-0.175 0.829,-0.352 -0.051,-0.083 0.023,-0.195 0.165,-0.25 0.157,-0.06 0.215,-0.03 0.148,0.079 -0.098,0.157 0.55,-0.139 0.759,-0.348 0.045,-0.046 0.233,-0.17 0.416,-0.276 0.184,-0.106 0.315,-0.275 0.292,-0.375 -0.023,-0.1 0.015,-0.173 0.083,-0.163 0.478,0.076 0.875,-0.055 0.875,-0.287 0,-0.163 0.093,-0.232 0.237,-0.177 0.13,0.05 0.466,-0.13 0.748,-0.399 0.282,-0.269 0.634,-0.49 0.782,-0.49 0.175,0 0.234,-0.09 0.17,-0.258 -0.06,-0.156 -0.03,-0.216 0.074,-0.152 0.096,0.059 0.31,-0.049 0.476,-0.241 0.166,-0.192 0.428,-0.349 0.582,-0.349 0.172,0 0.261,-0.11 0.23,-0.288 -0.027,-0.158 0.045,-0.299 0.16,-0.312 0.114,-0.014 0.283,-0.034 0.375,-0.045 0.091,-0.012 0.166,-0.13 0.166,-0.264 0,-0.133 0.267,-0.368 0.592,-0.522 0.655,-0.311 1.949,-1.499 2.121,-1.948 0.061,-0.158 0.193,-0.287 0.294,-0.287 0.359,0 0.707,-0.493 0.513,-0.727 -0.135,-0.162 -0.12,-0.218 0.059,-0.218 0.132,0 0.198,0.081 0.146,0.181 -0.052,0.099 0.094,-0.045 0.325,-0.32 0.23,-0.275 0.376,-0.575 0.324,-0.666 -0.051,-0.092 -0.035,-0.114 0.036,-0.05 0.168,0.151 0.514,-0.197 0.664,-0.669 0.064,-0.203 0.192,-0.323 0.283,-0.267 0.194,0.12 0.63,-0.402 0.638,-0.764 0.003,-0.138 0.306,-0.588 0.672,-1 0.366,-0.413 0.665,-0.825 0.664,-0.917 -10e-4,-0.092 -0.075,-0.054 -0.164,0.083 -0.123,0.19 -0.162,0.196 -0.164,0.026 -0.002,-0.123 0.147,-0.263 0.331,-0.311 0.183,-0.048 0.333,-0.227 0.333,-0.399 0,-0.172 0.15,-0.407 0.333,-0.521 0.184,-0.115 0.334,-0.34 0.334,-0.501 0,-0.162 0.083,-0.294 0.184,-0.294 0.102,0 0.14,-0.116 0.085,-0.258 -0.056,-0.146 -0.028,-0.215 0.063,-0.159 0.089,0.055 0.293,-0.204 0.454,-0.575 0.161,-0.371 0.35,-0.674 0.42,-0.674 0.07,0 0.127,-0.146 0.127,-0.324 0,-0.178 0.075,-0.37 0.167,-0.426 0.091,-0.057 0.166,-0.253 0.166,-0.437 0,-0.209 0.072,-0.289 0.193,-0.214 0.107,0.066 0.147,0.046 0.091,-0.045 -0.055,-0.09 0.083,-0.526 0.308,-0.97 0.224,-0.444 0.408,-0.949 0.408,-1.122 0,-0.174 0.063,-0.277 0.139,-0.23 0.077,0.048 0.14,-0.004 0.141,-0.115 10e-4,-0.11 0.056,-0.369 0.122,-0.576 0.081,-0.25 0.053,-0.375 -0.083,-0.375 -0.112,0 0.005,-0.179 0.26,-0.398 0.255,-0.219 0.425,-0.463 0.379,-0.542 -0.047,-0.079 -0.006,-0.33 0.091,-0.56 0.16,-0.376 0.216,-0.741 0.272,-1.75 0.015,-0.278 0.045,-0.292 0.182,-0.083 0.114,0.175 0.147,-0.043 0.109,-0.725 -0.039,-0.71 0.008,-0.998 0.174,-1.062 0.284,-0.109 0.258,-3.045 -0.026,-3.049 -0.097,-0.001 -0.066,-0.072 0.069,-0.158 0.21,-0.132 0.203,-0.171 -0.045,-0.266 -0.159,-0.061 -0.269,-0.234 -0.245,-0.384 0.025,-0.15 -0.046,-0.255 -0.158,-0.233 -0.114,0.022 -0.162,-0.065 -0.11,-0.199 0.108,-0.283 -0.972,-1.424 -1.348,-1.424 -0.141,0 -0.256,-0.075 -0.256,-0.167 0,-0.091 -0.15,-0.166 -0.333,-0.166 -0.184,0 -0.334,-0.09 -0.334,-0.199 0,-0.109 -0.112,-0.053 -0.25,0.125 -0.209,0.27 -0.234,0.275 -0.149,0.032 0.083,-0.237 0.005,-0.292 -0.416,-0.292 -0.285,0 -0.518,-0.075 -0.518,-0.166 0,-0.11 -3.309,-0.167 -9.593,-0.167 -7.209,0 -9.564,0.048 -9.474,0.192 0.075,0.122 0.045,0.147 -0.081,0.069 -0.11,-0.068 -0.393,0.004 -0.63,0.159 -0.236,0.154 -0.379,0.198 -0.316,0.097 0.069,-0.111 -0.022,-0.184 -0.229,-0.184 -0.2,0 -0.344,0.109 -0.344,0.26 0,0.154 -0.078,0.212 -0.192,0.141 -0.105,-0.065 -0.296,0.024 -0.423,0.199 -0.128,0.174 -0.285,0.317 -0.35,0.317 -0.065,0 -0.108,0.094 -0.095,0.208 0.02,0.183 -0.176,0.284 -0.327,0.167 -0.092,-0.072 -0.519,0.439 -0.766,0.917 -0.13,0.252 -0.299,0.458 -0.375,0.458 -0.076,0 -0.138,0.15 -0.138,0.333 0,0.184 -0.075,0.334 -0.167,0.334 -0.092,0 -0.167,0.15 -0.167,0.333 0,0.183 -0.075,0.333 -0.166,0.333 -0.092,0 -0.167,0.267 -0.167,0.594 0,0.326 -0.062,0.554 -0.138,0.507 -0.076,-0.047 -0.126,0.078 -0.112,0.278 0.015,0.2 -0.148,0.552 -0.361,0.782 -0.214,0.231 -0.389,0.514 -0.389,0.629 0,0.116 -0.075,0.21 -0.167,0.21 -0.244,0 -0.204,0.498 0.042,0.511 0.115,0.006 0.041,0.078 -0.164,0.16 -0.241,0.097 -0.337,0.24 -0.274,0.406 0.064,0.165 0.003,0.257 -0.169,0.257 -0.157,0 -0.268,0.138 -0.268,0.333 0,0.183 -0.062,0.333 -0.139,0.333 -0.076,0 -0.244,0.207 -0.375,0.459 -0.13,0.252 -0.367,0.603 -0.528,0.781 -0.16,0.178 -0.291,0.405 -0.291,0.505 0,0.1 -0.15,0.29 -0.334,0.422 -0.183,0.132 -0.333,0.374 -0.333,0.537 0,0.163 -0.067,0.296 -0.149,0.296 -0.083,0 -0.675,0.525 -1.317,1.167 -0.641,0.642 -1.249,1.167 -1.35,1.167 -0.101,0 -0.184,0.066 -0.184,0.147 0,0.081 -0.152,0.187 -0.338,0.236 -0.186,0.048 -0.317,0.188 -0.292,0.311 0.03,0.142 -0.149,0.241 -0.495,0.275 -0.333,0.032 -0.542,0.143 -0.542,0.289 0,0.148 -0.25,0.278 -0.666,0.344 -0.367,0.059 -0.667,0.172 -0.667,0.252 0,0.08 -0.15,0.146 -0.333,0.146 -0.184,0 -0.334,0.075 -0.334,0.166 0,0.092 -0.218,0.167 -0.486,0.167 -0.267,0 -0.512,0.079 -0.544,0.176 -0.033,0.096 -0.17,0.192 -0.306,0.213 -0.136,0.02 -0.342,0.096 -0.458,0.169 -0.115,0.072 -0.434,0.137 -0.708,0.145 -0.274,0.008 -0.498,0.078 -0.498,0.156 0,0.077 -0.368,0.141 -0.819,0.141 -0.451,0 -0.847,0.082 -0.88,0.182 -0.041,0.123 -0.872,0.176 -2.531,0.161 -1.795,-0.016 -2.543,0.036 -2.735,0.192 -0.165,0.134 -0.221,0.142 -0.149,0.021 0.085,-0.142 -0.268,-0.191 -1.316,-0.181 -0.788,0.007 -1.483,-0.06 -1.543,-0.149 -0.061,-0.089 -0.507,-0.168 -0.993,-0.174 -0.485,-0.007 -0.935,-0.07 -1,-0.142 -0.064,-0.072 -0.012,-0.069 0.117,0.006 0.158,0.091 0.195,0.073 0.115,-0.057 -0.065,-0.106 -0.377,-0.192 -0.692,-0.192 -0.316,0 -0.574,-0.075 -0.574,-0.167 0,-0.092 -0.225,-0.167 -0.5,-0.167 -0.275,0 -0.5,-0.075 -0.5,-0.166 0,-0.092 -0.183,-0.167 -0.406,-0.167 -0.224,0 -0.457,-0.081 -0.519,-0.18 -0.061,-0.099 -0.288,-0.136 -0.505,-0.081 -0.306,0.076 -0.372,0.042 -0.297,-0.154 0.066,-0.172 -0.008,-0.252 -0.234,-0.252 -0.182,0 -0.423,-0.111 -0.536,-0.246 -0.239,-0.288 -1.125,-0.754 -1.434,-0.754 -0.117,0 -0.26,-0.15 -0.319,-0.333 -0.107,-0.337 -0.33,-0.438 -0.458,-0.208 -0.039,0.068 -0.046,0.028 -0.017,-0.09 0.029,-0.118 -0.072,-0.263 -0.226,-0.322 -0.375,-0.144 -2.293,-2.055 -2.43,-2.422 -0.059,-0.16 -0.223,-0.291 -0.363,-0.291 -0.145,0 -0.256,-0.145 -0.256,-0.334 0,-0.183 -0.108,-0.333 -0.24,-0.333 -0.132,0 -0.294,-0.087 -0.359,-0.192 -0.078,-0.127 -0.039,-0.151 0.115,-0.071 0.139,0.072 0.127,0.032 -0.03,-0.1 -0.146,-0.121 -0.233,-0.314 -0.195,-0.429 0.039,-0.114 -0.04,-0.208 -0.176,-0.208 -0.135,0 -0.29,-0.116 -0.345,-0.259 -0.067,-0.175 -0.033,-0.219 0.107,-0.134 0.253,0.151 -0.165,-0.407 -0.61,-0.815 -0.216,-0.198 -0.246,-0.292 -0.094,-0.292 0.147,0 0.118,-0.078 -0.083,-0.225 -0.193,-0.141 -0.257,-0.305 -0.173,-0.442 0.089,-0.144 0.07,-0.178 -0.058,-0.099 -0.129,0.08 -0.192,-0.045 -0.192,-0.381 0,-0.275 -0.075,-0.546 -0.167,-0.603 -0.091,-0.057 -0.166,-0.249 -0.166,-0.427 0,-0.177 -0.075,-0.323 -0.167,-0.323 -0.092,0 -0.167,-0.132 -0.167,-0.293 0,-0.162 -0.19,-0.499 -0.423,-0.75 -0.233,-0.252 -0.337,-0.457 -0.232,-0.457 0.118,0 0.144,-0.112 0.068,-0.292 -0.068,-0.16 -0.119,-0.421 -0.112,-0.58 0.006,-0.158 -0.059,-0.332 -0.145,-0.385 -0.085,-0.053 -0.156,-0.382 -0.156,-0.732 0,-0.35 -0.093,-0.715 -0.208,-0.81 -0.115,-0.095 -0.199,-0.46 -0.187,-0.812 0.012,-0.351 -0.056,-0.736 -0.151,-0.854 -0.095,-0.119 -0.16,-0.587 -0.143,-1.042 0.016,-0.469 -0.045,-0.826 -0.141,-0.826 -0.103,0 -0.17,-0.609 -0.17,-1.55 0,-0.933 -0.075,-1.626 -0.189,-1.739 -0.132,-0.133 -0.181,-1.491 -0.165,-4.545 0.014,-2.395 -0.039,-4.316 -0.116,-4.268 -0.077,0.048 -0.141,-0.019 -0.141,-0.148 0,-0.13 0.051,-0.204 0.114,-0.166 0.062,0.039 0.106,-1.876 0.097,-4.255 -0.013,-3.319 0.032,-4.344 0.192,-4.406 0.247,-0.094 0.282,-0.59 0.042,-0.59 -0.092,0 -0.167,-0.079 -0.167,-0.177 0,-0.097 0.067,-0.135 0.149,-0.084 0.082,0.051 0.149,-0.437 0.149,-1.089 0,-0.65 0.083,-1.264 0.184,-1.366 0.102,-0.101 0.185,-0.569 0.185,-1.04 0,-0.47 0.054,-0.909 0.12,-0.975 0.065,-0.066 0.129,-0.385 0.14,-0.71 0.011,-0.325 0.118,-0.65 0.236,-0.724 0.127,-0.078 0.182,-0.311 0.133,-0.566 -0.046,-0.239 0.01,-0.51 0.123,-0.604 0.113,-0.094 0.206,-0.373 0.206,-0.62 0,-0.246 0.084,-0.476 0.188,-0.51 0.103,-0.035 0.187,-0.282 0.187,-0.549 0,-0.267 0.075,-0.486 0.167,-0.486 0.091,0 0.166,-0.151 0.166,-0.335 0,-0.313 0.619,-1.814 0.824,-1.998 0.315,-0.283 0.636,-1.308 0.464,-1.48 -0.139,-0.138 -0.13,-0.187 0.035,-0.187 0.265,0 1.016,-0.772 0.882,-0.906 -0.051,-0.052 0.019,-0.094 0.156,-0.094 0.137,0 0.356,-0.206 0.486,-0.458 0.13,-0.252 0.407,-0.632 0.615,-0.844 0.208,-0.213 0.328,-0.468 0.266,-0.568 -0.067,-0.109 -0.035,-0.134 0.08,-0.063 0.106,0.066 0.192,0.035 0.192,-0.067 0,-0.102 0.077,-0.139 0.171,-0.081 0.094,0.058 0.15,0.009 0.125,-0.109 -0.025,-0.118 0.124,-0.292 0.332,-0.386 0.207,-0.094 0.342,-0.262 0.3,-0.373 -0.047,-0.121 0.019,-0.164 0.164,-0.108 0.153,0.059 0.242,-0.012 0.242,-0.191 0,-0.156 0.15,-0.322 0.333,-0.37 0.183,-0.048 0.333,-0.154 0.333,-0.235 0,-0.081 0.114,-0.147 0.252,-0.147 0.138,0 0.487,-0.225 0.775,-0.5 0.287,-0.275 0.632,-0.5 0.766,-0.5 0.142,0 0.205,-0.099 0.152,-0.237 -0.067,-0.176 0.015,-0.218 0.316,-0.164 0.223,0.041 0.406,-0.002 0.406,-0.096 0,-0.093 0.103,-0.17 0.23,-0.17 0.126,0 0.319,-0.108 0.428,-0.24 0.11,-0.132 0.307,-0.199 0.438,-0.149 0.13,0.051 0.237,0.009 0.237,-0.093 0,-0.101 0.081,-0.184 0.179,-0.184 0.098,0 0.291,-0.113 0.429,-0.25 0.15,-0.151 0.402,-0.213 0.632,-0.155 0.253,0.064 0.414,0.012 0.477,-0.153 0.053,-0.137 0.232,-0.227 0.398,-0.201 0.166,0.027 0.41,-0.035 0.542,-0.138 0.192,-0.149 0.212,-0.136 0.101,0.063 -0.114,0.204 -0.098,0.211 0.085,0.042 0.123,-0.115 0.456,-0.208 0.741,-0.208 0.284,0 0.598,-0.082 0.699,-0.183 0.1,-0.1 0.64,-0.185 1.2,-0.19 0.559,-0.004 1.017,-0.059 1.017,-0.121 0,-0.287 4.972,-0.321 5.151,-0.035 0.055,0.088 0.586,0.166 1.182,0.174 0.595,0.008 1.107,0.091 1.138,0.185 0.032,0.093 0.351,0.17 0.71,0.17 0.359,0 0.653,0.067 0.653,0.15 0,0.082 0.278,0.15 0.619,0.15 0.341,0 0.647,0.082 0.681,0.183 0.033,0.101 0.205,0.183 0.38,0.183 0.176,0 0.32,0.084 0.32,0.186 0,0.111 0.2,0.156 0.5,0.112 0.348,-0.051 0.5,-0.004 0.5,0.155 0,0.126 0.093,0.216 0.208,0.202 0.442,-0.058 0.64,0.019 0.525,0.205 -0.081,0.132 -0.006,0.163 0.241,0.099 0.215,-0.057 0.359,-0.017 0.359,0.1 0,0.2 0.978,0.714 1.221,0.641 0.075,-0.023 0.09,0.036 0.032,0.13 -0.059,0.093 -0.017,0.17 0.093,0.17 0.109,0 0.336,0.159 0.504,0.353 0.176,0.203 0.415,0.312 0.56,0.256 0.148,-0.056 0.236,-0.013 0.213,0.106 -0.022,0.111 0.093,0.18 0.255,0.152 0.162,-0.027 0.277,0.011 0.257,0.084 -0.056,0.202 1.063,1.383 1.219,1.287 0.075,-0.047 0.184,0.106 0.243,0.339 0.058,0.233 0.215,0.423 0.348,0.423 0.133,0 0.197,0.072 0.143,0.16 -0.127,0.206 0.265,0.84 0.519,0.84 0.107,0 0.275,0.234 0.375,0.519 0.107,0.309 0.266,0.486 0.393,0.437 0.141,-0.054 0.22,0.084 0.234,0.407 0.011,0.269 0.152,0.586 0.314,0.705 0.184,0.134 0.244,0.297 0.16,0.433 -0.089,0.144 -0.069,0.177 0.058,0.099 0.123,-0.076 0.192,0.011 0.192,0.239 0,0.197 0.169,0.507 0.375,0.689 0.207,0.182 0.263,0.282 0.125,0.223 -0.137,-0.06 -0.104,0.009 0.074,0.154 0.178,0.144 0.262,0.262 0.188,0.262 -0.075,0 -0.033,0.124 0.093,0.276 0.126,0.151 0.205,0.414 0.177,0.583 -0.029,0.169 0.027,0.308 0.125,0.308 0.097,0 0.177,0.158 0.177,0.351 0,0.225 0.08,0.32 0.224,0.265 0.162,-0.062 0.201,0.03 0.142,0.34 -0.056,0.293 -0.021,0.39 0.11,0.309 0.187,-0.116 0.252,0.066 0.205,0.574 -0.013,0.14 0.129,0.418 0.314,0.618 0.186,0.199 0.338,0.441 0.338,0.538 0,0.32 0.745,1.319 1.042,1.397 0.16,0.042 0.291,0.196 0.291,0.342 0,0.242 0.227,0.331 0.79,0.311 0.114,-0.004 0.166,0.059 0.115,0.14 -0.05,0.081 0.051,0.148 0.224,0.148 0.174,0 0.362,0.046 0.417,0.102 0.194,0.193 21.121,0.162 21.121,-0.032 0,-0.099 0.169,-0.174 0.375,-0.167 0.228,0.008 0.357,-0.073 0.329,-0.207 -0.031,-0.152 0.06,-0.188 0.292,-0.114 0.234,0.074 0.337,0.032 0.337,-0.138 0,-0.135 0.209,-0.317 0.463,-0.406 0.702,-0.245 1.904,-2.871 1.315,-2.871 -0.113,0 -0.105,-0.073 0.022,-0.2 0.243,-0.243 0.266,-1.335 0.033,-1.568 -0.092,-0.092 -0.187,-0.688 -0.211,-1.325 -0.024,-0.636 -0.115,-1.27 -0.202,-1.407 -0.086,-0.138 -0.137,-0.449 -0.111,-0.692 0.025,-0.243 -0.034,-0.491 -0.131,-0.552 -0.098,-0.06 -0.178,-0.337 -0.178,-0.615 0,-0.279 -0.164,-0.738 -0.366,-1.021 -0.201,-0.282 -0.276,-0.458 -0.166,-0.391 0.109,0.068 0.199,0.049 0.199,-0.043 0,-0.092 -0.075,-0.213 -0.167,-0.27 -0.091,-0.056 -0.166,-0.277 -0.166,-0.489 0,-0.213 -0.112,-0.479 -0.248,-0.592 -0.137,-0.114 -0.204,-0.279 -0.149,-0.368 0.055,-0.088 -0.061,-0.273 -0.256,-0.41 -0.196,-0.137 -0.345,-0.337 -0.332,-0.445 0.053,-0.427 -0.022,-0.794 -0.147,-0.718 -0.072,0.045 -0.147,-0.116 -0.167,-0.357 -0.02,-0.242 -0.111,-0.514 -0.202,-0.605 -0.091,-0.091 -0.166,-0.301 -0.166,-0.466 0,-0.165 -0.057,-0.3 -0.128,-0.3 -0.219,0 -1.205,-1.628 -1.205,-1.99 0,-0.19 -0.109,-0.343 -0.245,-0.343 -0.135,0 -0.208,-0.096 -0.163,-0.214 0.046,-0.118 -0.069,-0.377 -0.255,-0.577 -0.185,-0.199 -0.338,-0.421 -0.338,-0.494 0,-0.072 -0.225,-0.394 -0.499,-0.715 -0.275,-0.321 -0.5,-0.669 -0.5,-0.774 0,-0.104 -0.191,-0.238 -0.423,-0.296 -0.237,-0.059 -0.402,-0.207 -0.375,-0.336 0.069,-0.333 -0.913,-1.602 -1.169,-1.51 -0.12,0.044 -0.172,0.005 -0.116,-0.085 0.127,-0.206 -0.578,-0.922 -1.059,-1.074 -0.2,-0.064 -0.321,-0.184 -0.269,-0.268 0.108,-0.174 -0.871,-1.204 -1.301,-1.369 -0.159,-0.061 -0.288,-0.213 -0.288,-0.338 0,-0.125 -0.207,-0.333 -0.459,-0.462 -0.252,-0.13 -0.571,-0.349 -0.708,-0.487 -0.508,-0.511 -0.914,-0.781 -0.755,-0.501 0.078,0.137 -0.176,-0.069 -0.564,-0.458 -0.389,-0.39 -0.781,-0.709 -0.872,-0.709 -0.092,0 -0.279,-0.113 -0.418,-0.251 -0.138,-0.139 -0.339,-0.202 -0.446,-0.14 -0.107,0.061 -0.139,0.05 -0.071,-0.025 0.182,-0.201 -0.193,-0.579 -0.47,-0.473 -0.145,0.056 -0.237,-0.013 -0.237,-0.176 0,-0.147 -0.116,-0.268 -0.257,-0.268 -0.142,0 -0.418,-0.15 -0.615,-0.333 -0.197,-0.184 -0.485,-0.334 -0.639,-0.334 -0.155,0 -0.375,-0.111 -0.488,-0.248 -0.113,-0.136 -0.269,-0.209 -0.345,-0.162 -0.077,0.048 -0.221,-0.066 -0.321,-0.252 -0.099,-0.186 -0.29,-0.338 -0.425,-0.338 -0.134,0 -0.244,-0.075 -0.244,-0.166 0,-0.092 -0.15,-0.167 -0.333,-0.167 -0.183,0 -0.333,-0.078 -0.333,-0.174 0,-0.096 -0.094,-0.152 -0.209,-0.126 -0.115,0.026 -0.453,-0.125 -0.75,-0.337 -0.298,-0.212 -0.541,-0.331 -0.541,-0.265 0,0.066 -0.148,-0.013 -0.327,-0.176 -0.18,-0.163 -0.437,-0.254 -0.571,-0.203 -0.133,0.052 -0.44,-0.089 -0.681,-0.313 -0.241,-0.223 -0.547,-0.406 -0.68,-0.406 -0.133,0 -0.241,-0.081 -0.241,-0.179 0,-0.101 -0.236,-0.158 -0.542,-0.131 -0.384,0.035 -0.528,-0.016 -0.493,-0.174 0.034,-0.156 -0.078,-0.2 -0.367,-0.145 -0.244,0.047 -0.401,0.006 -0.382,-0.1 0.019,-0.099 -0.154,-0.207 -0.383,-0.241 -0.229,-0.034 -0.507,-0.136 -0.618,-0.227 -0.11,-0.091 -0.273,-0.12 -0.361,-0.066 -0.089,0.055 -0.274,-0.014 -0.412,-0.152 -0.305,-0.305 -0.68,-0.337 -0.504,-0.043 0.086,0.141 0.035,0.135 -0.156,-0.021 -0.155,-0.126 -0.285,-0.163 -0.287,-0.083 -0.003,0.08 -0.082,0.014 -0.175,-0.146 -0.094,-0.161 -0.35,-0.292 -0.569,-0.292 -0.219,0 -0.445,-0.076 -0.502,-0.168 -0.058,-0.093 -0.317,-0.153 -0.577,-0.133 -0.26,0.02 -0.574,-0.047 -0.697,-0.149 -0.124,-0.102 -0.516,-0.185 -0.872,-0.184 -0.355,0 -0.7,-0.086 -0.765,-0.192 -0.125,-0.202 -0.775,-0.174 -1.13,0.048 -0.12,0.075 -0.208,0.053 -0.208,-0.053 0,-0.101 -0.094,-0.171 -0.209,-0.157 -0.423,0.055 -0.641,-0.017 -0.541,-0.179 0.063,-0.102 -0.218,-0.166 -0.731,-0.166 -0.458,0 -0.879,-0.075 -0.936,-0.167 -0.192,-0.311 -0.917,-0.2 -0.816,0.125 0.087,0.278 0.082,0.278 -0.096,0 -0.133,-0.206 -0.406,-0.292 -0.93,-0.292 -0.408,0 -0.741,-0.075 -0.741,-0.166 0,-0.092 -0.15,-0.167 -0.334,-0.167 -0.183,0 -0.333,0.084 -0.333,0.187 0,0.124 -0.07,0.133 -0.208,0.026 -0.115,-0.088 -0.835,-0.17 -1.601,-0.181 -0.766,-0.011 -1.481,-0.093 -1.588,-0.182 -0.346,-0.288 -3.14,-0.188 -3.517,0.125 -0.31,0.258 -0.316,0.257 -0.107,-0.014 0.21,-0.271 0.08,-0.289 -2.116,-0.284 -1.662,0.004 -2.364,0.064 -2.422,0.206 -0.061,0.151 -0.085,0.149 -0.095,-0.008 -0.007,-0.115 -0.128,-0.208 -0.268,-0.208 -0.14,0 -0.291,0.093 -0.335,0.208 m 108.3,-0.018 c -0.116,0.116 -0.732,0.184 -1.566,0.174 -0.777,-0.01 -1.47,0.061 -1.594,0.164 -0.121,0.1 -0.646,0.172 -1.167,0.16 -0.541,-0.012 -0.996,0.058 -1.062,0.165 -0.063,0.102 -0.405,0.196 -0.759,0.208 -0.355,0.012 -0.726,0.075 -0.826,0.14 -0.1,0.065 -0.475,0.135 -0.833,0.157 -0.359,0.021 -0.803,0.111 -0.986,0.199 -0.183,0.089 -0.472,0.23 -0.642,0.314 -0.212,0.105 -0.275,0.097 -0.199,-0.026 0.061,-0.098 0.029,-0.179 -0.071,-0.179 -0.1,0 -0.224,0.111 -0.276,0.245 -0.06,0.158 -0.265,0.225 -0.574,0.189 -0.264,-0.031 -0.445,10e-4 -0.402,0.071 0.116,0.188 -0.335,0.319 -0.737,0.214 -0.2,-0.052 -0.349,-0.012 -0.349,0.095 0,0.103 -0.244,0.189 -0.542,0.192 -0.298,0.003 -0.684,0.113 -0.858,0.244 -0.173,0.132 -0.391,0.193 -0.484,0.136 -0.095,-0.059 -0.116,-0.021 -0.049,0.089 0.073,0.116 10e-4,0.2 -0.182,0.211 -0.515,0.033 -0.607,0.06 -1.635,0.481 -0.183,0.075 -0.469,0.18 -0.636,0.234 -0.166,0.053 -0.259,0.166 -0.208,0.249 0.052,0.084 -0.065,0.111 -0.26,0.06 -0.227,-0.06 -0.409,0.004 -0.505,0.175 -0.082,0.148 -0.26,0.226 -0.395,0.174 -0.135,-0.052 -0.246,-0.011 -0.246,0.09 0,0.102 -0.119,0.185 -0.265,0.185 -0.146,0 -0.414,0.168 -0.596,0.375 -0.182,0.206 -0.277,0.262 -0.211,0.125 0.098,-0.203 0.079,-0.211 -0.104,-0.042 -0.123,0.115 -0.359,0.208 -0.524,0.208 -0.165,0 -0.3,0.075 -0.3,0.167 0,0.092 -0.098,0.167 -0.219,0.167 -0.12,0 -0.379,0.15 -0.576,0.333 -0.197,0.183 -0.481,0.333 -0.633,0.333 -0.171,0 -0.239,0.091 -0.182,0.242 0.065,0.169 0.013,0.211 -0.176,0.138 -0.193,-0.074 -0.23,-0.041 -0.132,0.118 0.089,0.144 0.072,0.181 -0.05,0.105 -0.103,-0.063 -0.337,0.036 -0.522,0.22 -0.184,0.185 -0.524,0.383 -0.756,0.441 -0.231,0.058 -0.421,0.207 -0.421,0.33 0,0.123 -0.281,0.355 -0.625,0.515 -0.343,0.16 -0.737,0.408 -0.875,0.551 -0.137,0.142 -0.456,0.365 -0.709,0.495 -0.252,0.13 -0.44,0.346 -0.416,0.48 0.023,0.134 -0.073,0.262 -0.214,0.285 -0.3,0.047 -1.827,1.493 -1.827,1.73 0,0.088 -0.149,0.208 -0.33,0.266 -0.182,0.058 -0.313,0.194 -0.292,0.303 0.021,0.109 -0.055,0.179 -0.17,0.156 -0.115,-0.023 -0.208,0.063 -0.208,0.189 0,0.127 -0.207,0.366 -0.459,0.531 -0.588,0.385 -0.784,0.586 -0.92,0.947 -0.061,0.16 -0.198,0.292 -0.305,0.292 -0.273,0 -1,0.877 -0.914,1.104 0.039,0.103 -0.11,0.284 -0.33,0.402 -0.221,0.118 -0.496,0.427 -0.611,0.687 -0.115,0.261 -0.264,0.473 -0.33,0.473 -0.067,0 -0.073,0.125 -0.014,0.278 0.071,0.187 0.042,0.238 -0.09,0.156 -0.209,-0.129 -0.801,0.348 -0.636,0.513 0.053,0.053 -0.163,0.401 -0.48,0.772 -0.318,0.371 -0.578,0.844 -0.578,1.05 0,0.223 -0.129,0.416 -0.317,0.476 -0.275,0.087 -0.852,1.003 -0.868,1.377 -0.003,0.071 -0.12,0.255 -0.26,0.409 -0.14,0.155 -0.205,0.361 -0.145,0.459 0.06,0.097 -0.012,0.177 -0.161,0.177 -0.19,0 -0.242,0.094 -0.172,0.314 0.061,0.193 0.007,0.349 -0.142,0.406 -0.151,0.058 -0.208,0.224 -0.152,0.439 0.073,0.279 0.033,0.324 -0.207,0.232 -0.194,-0.075 -0.258,-0.051 -0.185,0.067 0.062,0.1 -0.006,0.3 -0.15,0.444 -0.144,0.144 -0.215,0.338 -0.158,0.431 0.058,0.093 -0.016,0.216 -0.163,0.272 -0.147,0.056 -0.246,0.226 -0.221,0.376 0.025,0.151 -0.121,0.509 -0.326,0.797 -0.205,0.288 -0.373,0.723 -0.373,0.966 0,0.26 -0.071,0.399 -0.171,0.337 -0.094,-0.058 -0.15,-0.044 -0.125,0.032 0.067,0.204 -0.405,1.554 -0.543,1.554 -0.066,0 -0.119,0.203 -0.119,0.451 0,0.248 -0.085,0.48 -0.188,0.514 -0.103,0.034 -0.187,0.281 -0.187,0.549 0,0.267 -0.07,0.486 -0.156,0.486 -0.085,0 -0.149,0.222 -0.141,0.494 0.007,0.272 -0.079,0.606 -0.192,0.743 -0.114,0.136 -0.172,0.308 -0.129,0.38 0.043,0.073 0.002,0.32 -0.09,0.549 -0.093,0.23 -0.201,0.676 -0.239,0.993 -0.038,0.317 -0.132,0.655 -0.208,0.75 -0.077,0.096 -0.185,0.474 -0.242,0.841 -0.056,0.366 -0.144,0.927 -0.194,1.245 -0.051,0.318 -0.154,0.618 -0.229,0.666 -0.076,0.049 -0.148,0.572 -0.161,1.163 -0.012,0.591 -0.093,1.118 -0.178,1.171 -0.086,0.053 -0.153,0.484 -0.149,0.957 0.003,0.474 -0.051,0.953 -0.12,1.066 -0.07,0.113 -0.142,0.913 -0.161,1.778 -0.018,0.865 -0.109,1.621 -0.201,1.68 -0.258,0.164 -0.249,10.566 0.009,10.411 0.148,-0.089 0.148,-0.056 -0.002,0.129 -0.232,0.287 -0.263,2.311 -0.039,2.581 0.083,0.1 0.162,1.092 0.176,2.204 0.014,1.113 0.09,1.983 0.169,1.934 0.116,-0.072 0.235,1.592 0.184,2.582 -0.007,0.129 0.085,0.332 0.204,0.451 0.141,0.141 0.187,0.472 0.133,0.952 -0.05,0.449 -0.01,0.781 0.103,0.851 0.102,0.063 0.186,0.471 0.186,0.905 0,0.435 0.082,0.873 0.183,0.973 0.1,0.1 0.19,0.472 0.199,0.825 0.009,0.353 0.115,0.742 0.236,0.864 0.12,0.122 0.173,0.295 0.119,0.383 -0.055,0.089 0.019,0.414 0.165,0.722 0.146,0.308 0.221,0.675 0.167,0.817 -0.054,0.142 0.015,0.42 0.154,0.618 0.138,0.198 0.215,0.456 0.17,0.574 -0.045,0.118 -0.002,0.263 0.096,0.324 0.098,0.06 0.178,0.331 0.178,0.6 0,0.27 0.075,0.49 0.166,0.49 0.092,0 0.167,0.225 0.167,0.5 0,0.311 0.086,0.5 0.227,0.5 0.152,0 0.201,0.137 0.148,0.415 -0.053,0.275 0.007,0.448 0.179,0.514 0.142,0.054 0.217,0.205 0.168,0.335 -0.051,0.132 0.009,0.237 0.135,0.239 0.187,0.002 0.186,0.028 -0.005,0.149 -0.189,0.12 -0.166,0.216 0.125,0.529 0.196,0.21 0.356,0.532 0.356,0.715 0,0.183 0.169,0.519 0.375,0.745 0.207,0.227 0.282,0.359 0.167,0.293 -0.131,-0.076 -0.208,-0.017 -0.208,0.158 0,0.168 0.091,0.242 0.231,0.189 0.159,-0.061 0.206,0.006 0.152,0.213 -0.043,0.166 0.002,0.352 0.102,0.414 0.1,0.062 0.181,0.258 0.181,0.436 0,0.177 0.075,0.323 0.167,0.323 0.092,0 0.167,0.15 0.167,0.333 0,0.184 0.075,0.334 0.166,0.334 0.092,0 0.167,0.142 0.167,0.315 0,0.174 0.113,0.359 0.252,0.412 0.138,0.053 0.238,0.155 0.223,0.226 -0.053,0.248 0.227,0.711 0.376,0.619 0.082,-0.051 0.149,0.018 0.149,0.152 0,0.323 0.691,1.609 0.864,1.609 0.075,0 0.136,0.098 0.136,0.219 0,0.12 0.131,0.364 0.292,0.541 0.16,0.178 0.397,0.528 0.526,0.779 0.13,0.25 0.373,0.499 0.542,0.553 0.187,0.059 0.307,0.255 0.307,0.503 0,0.223 0.079,0.405 0.176,0.405 0.097,0 0.123,-0.094 0.057,-0.208 -0.07,-0.121 -0.057,-0.15 0.032,-0.07 0.083,0.077 0.151,0.189 0.151,0.25 0,0.107 0.166,0.314 1.002,1.249 0.209,0.234 0.348,0.457 0.31,0.495 -0.038,0.038 0.046,0.166 0.188,0.284 0.22,0.183 0.241,0.168 0.144,-0.101 -0.062,-0.174 -0.062,-0.27 0.002,-0.213 0.063,0.056 0.146,0.264 0.184,0.461 0.091,0.475 0.535,0.905 0.778,0.755 0.116,-0.072 0.149,-0.048 0.083,0.06 -0.145,0.234 2.198,2.575 2.432,2.43 0.099,-0.061 0.132,-0.034 0.075,0.058 -0.168,0.272 0.657,0.938 1.039,0.839 0.184,-0.049 0.329,-0.04 0.321,0.02 -0.053,0.408 0.064,0.691 0.286,0.691 0.153,0 0.211,0.078 0.14,0.192 -0.068,0.111 -0.046,0.148 0.053,0.087 0.094,-0.058 0.372,0.08 0.618,0.307 0.245,0.228 0.505,0.414 0.578,0.414 0.073,0 0.266,0.148 0.43,0.329 0.164,0.182 0.364,0.29 0.443,0.241 0.079,-0.05 0.144,0.019 0.144,0.151 0,0.215 0.555,0.51 0.875,0.464 0.069,-0.01 0.125,0.088 0.125,0.218 0,0.131 0.219,0.285 0.486,0.344 0.268,0.059 0.528,0.215 0.579,0.347 0.05,0.131 0.206,0.239 0.347,0.239 0.14,0 0.255,0.083 0.255,0.185 0,0.101 0.116,0.14 0.259,0.085 0.142,-0.055 0.214,-0.028 0.161,0.059 -0.096,0.154 1.369,0.937 1.626,0.869 0.072,-0.019 0.173,0.079 0.226,0.217 0.054,0.139 0.235,0.252 0.403,0.252 0.168,0 0.352,0.075 0.408,0.167 0.057,0.091 0.328,0.166 0.603,0.166 0.34,0 0.462,0.063 0.38,0.195 -0.082,0.132 -0.029,0.16 0.163,0.086 0.176,-0.067 0.32,-0.014 0.378,0.139 0.054,0.139 0.305,0.247 0.577,0.247 0.266,0 0.483,0.075 0.483,0.167 0,0.091 0.145,0.166 0.323,0.166 0.178,0 0.373,0.08 0.434,0.178 0.06,0.098 0.212,0.139 0.338,0.091 0.126,-0.048 0.338,0.021 0.471,0.155 0.134,0.134 0.436,0.243 0.672,0.243 0.235,0 0.428,0.084 0.428,0.186 0,0.103 0.146,0.148 0.326,0.101 0.179,-0.047 0.46,0.017 0.625,0.142 0.352,0.267 0.782,0.313 0.63,0.067 -0.058,-0.094 0.165,-0.019 0.495,0.167 0.331,0.185 0.824,0.337 1.096,0.337 0.272,0 0.495,0.073 0.495,0.162 0,0.088 0.277,0.151 0.616,0.138 0.34,-0.013 0.644,0.064 0.68,0.172 0.04,0.119 0.447,0.195 1.051,0.195 0.543,0 0.986,0.067 0.986,0.149 0,0.082 0.426,0.155 0.945,0.161 0.52,0.006 0.992,0.088 1.05,0.181 0.062,0.1 0.647,0.15 1.408,0.121 0.891,-0.033 1.371,0.018 1.516,0.163 0.245,0.246 13.36,0.308 13.661,0.065 0.094,-0.076 0.478,-0.172 0.855,-0.214 0.376,-0.043 0.755,-0.121 0.841,-0.174 0.086,-0.053 0.263,-0.031 0.393,0.049 0.144,0.089 0.324,0.074 0.458,-0.037 0.121,-0.101 0.574,-0.178 1.005,-0.172 0.432,0.007 0.862,-0.052 0.957,-0.13 0.094,-0.078 0.559,-0.16 1.033,-0.182 0.474,-0.021 0.823,-0.101 0.777,-0.176 -0.047,-0.076 0.332,-0.138 0.841,-0.138 0.51,0 0.927,-0.075 0.927,-0.166 0,-0.092 0.15,-0.167 0.333,-0.167 0.184,0 0.335,-0.094 0.336,-0.208 0.002,-0.139 0.057,-0.125 0.164,0.041 0.139,0.215 0.225,0.141 0.199,-0.17 -0.004,-0.048 0.285,-0.079 0.641,-0.069 0.356,0.011 0.608,-0.044 0.56,-0.121 -0.083,-0.134 0.383,-0.208 0.961,-0.151 0.152,0.015 0.325,-0.051 0.384,-0.147 0.06,-0.096 0.27,-0.175 0.468,-0.175 0.198,0 0.531,-0.199 0.74,-0.443 0.21,-0.243 0.381,-0.347 0.381,-0.232 0,0.137 0.102,0.167 0.291,0.087 0.161,-0.068 0.441,-0.117 0.623,-0.108 0.181,0.008 0.512,-0.151 0.735,-0.353 0.222,-0.202 0.344,-0.255 0.27,-0.118 -0.11,0.204 -0.093,0.211 0.09,0.042 0.123,-0.115 0.373,-0.208 0.555,-0.208 0.182,0 0.517,-0.169 0.743,-0.375 0.227,-0.207 0.351,-0.263 0.274,-0.125 -0.112,0.202 -0.077,0.198 0.182,-0.02 0.176,-0.149 0.414,-0.236 0.528,-0.195 0.115,0.042 0.209,-0.005 0.209,-0.105 0,-0.099 0.082,-0.18 0.182,-0.18 0.101,0 0.382,-0.142 0.625,-0.315 0.441,-0.314 0.534,-0.352 0.869,-0.352 0.097,0 0.14,-0.059 0.095,-0.132 -0.045,-0.073 0.072,-0.144 0.259,-0.158 0.187,-0.014 0.469,-0.142 0.627,-0.285 0.157,-0.142 0.342,-0.203 0.41,-0.135 0.069,0.068 0.196,-0.004 0.283,-0.159 0.088,-0.157 0.268,-0.242 0.404,-0.19 0.135,0.052 0.246,0.012 0.246,-0.09 0,-0.101 0.115,-0.184 0.255,-0.184 0.14,0 0.296,-0.108 0.347,-0.24 0.051,-0.132 0.2,-0.198 0.333,-0.147 0.135,0.052 0.394,-0.082 0.586,-0.302 0.189,-0.217 0.449,-0.373 0.578,-0.346 0.129,0.027 0.234,-0.029 0.234,-0.125 0,-0.095 0.094,-0.174 0.208,-0.174 0.115,0 0.432,-0.192 0.705,-0.427 0.272,-0.234 0.76,-0.549 1.083,-0.7 0.323,-0.151 0.685,-0.409 0.805,-0.573 0.12,-0.165 0.315,-0.3 0.434,-0.3 0.118,0 0.451,-0.225 0.739,-0.5 0.288,-0.275 0.593,-0.5 0.678,-0.5 0.086,0 0.846,-0.675 1.69,-1.5 0.845,-0.825 1.606,-1.5 1.692,-1.5 0.283,0 0.635,-0.471 0.739,-0.987 0.055,-0.279 0.17,-0.465 0.255,-0.412 0.226,0.14 0.639,-0.26 0.639,-0.621 0,-0.183 0.12,-0.317 0.291,-0.322 0.321,-0.01 1.098,-0.896 1.098,-1.252 0,-0.123 0.048,-0.195 0.106,-0.158 0.152,0.094 0.753,-0.746 0.762,-1.065 0.005,-0.146 0.088,-0.251 0.185,-0.232 0.097,0.018 0.281,-0.169 0.409,-0.417 0.127,-0.248 0.363,-0.596 0.524,-0.773 0.16,-0.178 0.291,-0.422 0.291,-0.542 0,-0.12 0.08,-0.219 0.177,-0.219 0.098,0 0.162,-0.131 0.142,-0.291 -0.019,-0.161 0.082,-0.555 0.225,-0.875 0.142,-0.321 0.265,-0.641 0.271,-0.71 0.007,-0.07 0.126,-0.348 0.265,-0.617 0.14,-0.27 0.254,-0.644 0.254,-0.832 0,-0.188 0.077,-0.341 0.172,-0.341 0.272,0 0.184,-3.835 -0.091,-3.941 -0.12,-0.046 -0.266,-0.275 -0.325,-0.508 -0.157,-0.626 -1.281,-1.416 -2.108,-1.482 -0.148,-0.012 -0.467,-0.071 -0.709,-0.132 -0.555,-0.139 -20.535,-0.168 -20.758,-0.03 -0.091,0.056 -0.437,0.112 -0.771,0.125 -0.602,0.023 -1.744,0.879 -1.744,1.308 0,0.099 -0.071,0.135 -0.159,0.081 -0.088,-0.055 -0.277,0.129 -0.421,0.407 -0.144,0.278 -0.34,0.505 -0.436,0.505 -0.215,0 -0.65,0.421 -0.65,0.629 0,0.084 -0.149,0.287 -0.33,0.451 -0.181,0.164 -0.289,0.363 -0.24,0.442 0.049,0.08 0.007,0.145 -0.095,0.145 -0.265,0 -1.026,0.799 -1.079,1.133 -0.026,0.17 -0.163,0.262 -0.34,0.229 -0.206,-0.038 -0.266,0.022 -0.197,0.2 0.06,0.157 0.02,0.225 -0.104,0.177 -0.111,-0.043 -0.275,0.093 -0.366,0.3 -0.092,0.208 -0.336,0.452 -0.543,0.543 -0.208,0.091 -0.343,0.256 -0.3,0.366 0.049,0.128 -0.021,0.164 -0.194,0.098 -0.211,-0.082 -0.244,-0.035 -0.149,0.211 0.066,0.174 0.068,0.263 0.004,0.199 -0.065,-0.065 -0.219,0.012 -0.343,0.171 -0.208,0.267 -0.216,0.264 -0.11,-0.044 0.124,-0.36 -0.034,-0.275 -0.852,0.458 -0.179,0.161 -0.416,0.292 -0.526,0.292 -0.11,0 -0.246,0.117 -0.301,0.261 -0.055,0.143 -0.176,0.213 -0.269,0.156 -0.234,-0.145 -0.715,0.37 -0.568,0.607 0.078,0.126 0.047,0.149 -0.088,0.065 -0.115,-0.07 -0.37,-0.052 -0.568,0.041 -0.197,0.093 -0.637,0.292 -0.977,0.441 -0.34,0.149 -0.661,0.341 -0.714,0.426 -0.052,0.085 -0.198,0.116 -0.323,0.068 -0.125,-0.048 -0.285,0.004 -0.354,0.116 -0.086,0.139 -0.056,0.161 0.092,0.069 0.134,-0.083 0.178,-0.069 0.113,0.035 -0.057,0.094 -0.294,0.134 -0.526,0.09 -0.232,-0.045 -0.544,0.021 -0.694,0.145 -0.15,0.124 -0.449,0.203 -0.666,0.174 -0.216,-0.028 -0.393,0.029 -0.393,0.127 0,0.101 -0.325,0.179 -0.74,0.179 -0.408,0 -0.787,0.075 -0.844,0.167 -0.056,0.091 -0.271,0.166 -0.476,0.166 -0.206,0 -0.475,0.094 -0.598,0.209 -0.18,0.166 -0.201,0.166 -0.107,0 0.148,-0.262 -0.588,-0.29 -0.845,-0.033 -0.245,0.246 -4.182,0.233 -4.48,-0.014 -0.137,-0.114 -0.659,-0.168 -1.299,-0.135 -0.805,0.043 -1.05,0.005 -0.989,-0.152 0.056,-0.146 -0.125,-0.208 -0.605,-0.208 -0.376,0 -0.684,-0.075 -0.684,-0.167 0,-0.091 -0.229,-0.166 -0.508,-0.166 -0.279,0 -0.804,-0.143 -1.166,-0.318 -0.4,-0.193 -0.698,-0.254 -0.76,-0.155 -0.055,0.09 -0.212,0.004 -0.349,-0.19 -0.136,-0.195 -0.328,-0.328 -0.426,-0.295 -0.098,0.032 -0.364,-0.114 -0.592,-0.325 -0.228,-0.211 -0.516,-0.384 -0.64,-0.384 -0.124,0 -0.226,-0.063 -0.226,-0.14 0,-0.077 -0.3,-0.239 -0.666,-0.36 -0.476,-0.157 -0.667,-0.313 -0.667,-0.546 0,-0.244 -0.084,-0.304 -0.334,-0.239 -0.183,0.048 -0.297,0.029 -0.253,-0.042 0.106,-0.172 -0.493,-0.704 -0.635,-0.562 -0.061,0.061 -0.111,0.018 -0.111,-0.095 0,-0.249 -0.41,-0.683 -0.646,-0.683 -0.093,0 -0.272,-0.206 -0.398,-0.458 -0.126,-0.252 -0.336,-0.433 -0.467,-0.403 -0.132,0.031 -0.183,-10e-4 -0.114,-0.07 0.167,-0.167 -0.184,-0.702 -1.398,-2.134 -0.241,-0.285 -0.457,-0.593 -0.479,-0.685 -0.1,-0.408 -0.21,-0.575 -0.33,-0.501 -0.072,0.045 -0.233,-0.045 -0.358,-0.199 -0.156,-0.193 -0.162,-0.241 -0.019,-0.155 0.115,0.069 0.209,0.048 0.209,-0.046 0,-0.093 -0.15,-0.251 -0.334,-0.349 -0.183,-0.098 -0.333,-0.255 -0.333,-0.349 0,-0.094 0.094,-0.116 0.208,-0.049 0.115,0.067 0.077,-0.028 -0.083,-0.212 -0.161,-0.183 -0.244,-0.382 -0.185,-0.441 0.059,-0.059 -0.018,-0.156 -0.171,-0.214 -0.182,-0.07 -0.244,-0.216 -0.179,-0.421 0.055,-0.173 0.02,-0.314 -0.079,-0.314 -0.098,0 -0.178,-0.095 -0.178,-0.212 0,-0.116 -0.23,-0.491 -0.512,-0.833 -0.281,-0.342 -0.431,-0.621 -0.333,-0.621 0.273,0 0.213,-0.498 -0.074,-0.608 -0.139,-0.053 -0.236,-0.182 -0.215,-0.286 0.021,-0.104 -0.053,-0.353 -0.163,-0.553 -0.111,-0.199 -0.156,-0.48 -0.101,-0.625 0.055,-0.144 0.018,-0.262 -0.084,-0.262 -0.101,0 -0.184,-0.239 -0.184,-0.531 0,-0.317 -0.151,-0.697 -0.375,-0.943 -0.207,-0.227 -0.282,-0.359 -0.167,-0.293 0.115,0.066 0.208,0.047 0.208,-0.042 0,-0.09 -0.089,-0.193 -0.198,-0.229 -0.126,-0.042 -0.183,-0.383 -0.157,-0.946 0.022,-0.484 -0.023,-0.841 -0.1,-0.793 -0.077,0.047 -0.146,-0.04 -0.153,-0.193 -0.007,-0.154 -0.034,-0.863 -0.06,-1.577 -0.026,-0.713 -0.111,-1.336 -0.189,-1.384 -0.079,-0.049 -0.143,-0.759 -0.143,-1.579 v -1.49 h 33.217 c 19.869,0 33.28,-0.061 33.375,-0.152 0.087,-0.084 0.346,-0.178 0.575,-0.209 0.273,-0.036 0.409,-0.154 0.394,-0.343 -0.018,-0.227 0.041,-0.253 0.281,-0.125 0.405,0.217 2.23,-1.544 2.104,-2.028 -0.045,-0.171 -0.012,-0.267 0.073,-0.214 0.094,0.058 0.151,-2.357 0.144,-6.167 -0.008,-4.766 -0.059,-6.262 -0.212,-6.264 -0.135,-0.002 -0.126,-0.05 0.029,-0.148 0.181,-0.115 0.201,-0.388 0.096,-1.289 -0.074,-0.629 -0.12,-1.203 -0.103,-1.276 0.018,-0.072 -0.052,-0.288 -0.154,-0.478 -0.133,-0.249 -0.133,-0.315 -0.002,-0.234 0.236,0.146 0.249,-0.774 0.014,-1.008 -0.093,-0.093 -0.177,-0.56 -0.188,-1.037 -0.011,-0.478 -0.085,-0.909 -0.165,-0.958 -0.079,-0.049 -0.144,-0.464 -0.144,-0.923 0,-0.513 -0.064,-0.793 -0.167,-0.73 -0.097,0.06 -0.172,-0.126 -0.181,-0.448 -0.007,-0.304 -0.046,-0.702 -0.086,-0.885 -0.04,-0.184 -0.117,-0.695 -0.171,-1.137 -0.053,-0.442 -0.194,-0.841 -0.311,-0.886 -0.118,-0.045 -0.176,-0.227 -0.13,-0.405 0.05,-0.189 0,-0.322 -0.119,-0.322 -0.113,0 -0.162,-0.11 -0.11,-0.245 0.051,-0.135 0.032,-0.283 -0.044,-0.329 -0.075,-0.047 -0.099,-0.282 -0.053,-0.523 0.048,-0.253 -0.003,-0.493 -0.122,-0.566 -0.113,-0.07 -0.217,-0.324 -0.231,-0.564 -0.014,-0.24 -0.11,-0.469 -0.213,-0.508 -0.107,-0.042 -0.151,-0.267 -0.101,-0.527 0.06,-0.315 0.028,-0.418 -0.104,-0.337 -0.13,0.081 -0.191,-0.072 -0.191,-0.475 0,-0.326 -0.075,-0.593 -0.166,-0.593 -0.092,0 -0.167,-0.225 -0.167,-0.5 0,-0.275 -0.075,-0.5 -0.167,-0.5 -0.091,0 -0.166,-0.15 -0.166,-0.333 0,-0.184 -0.075,-0.334 -0.167,-0.334 -0.092,0 -0.167,-0.183 -0.167,-0.406 0,-0.224 -0.075,-0.454 -0.166,-0.51 -0.092,-0.057 -0.167,-0.249 -0.167,-0.427 0,-0.178 -0.075,-0.323 -0.167,-0.323 -0.091,0 -0.166,-0.15 -0.166,-0.334 0,-0.183 -0.075,-0.333 -0.167,-0.333 -0.092,0 -0.167,-0.15 -0.167,-0.333 0,-0.184 -0.075,-0.334 -0.166,-0.334 -0.092,0 -0.167,-0.15 -0.167,-0.333 0,-0.183 -0.075,-0.333 -0.167,-0.333 -0.091,0 -0.166,-0.15 -0.166,-0.334 0,-0.183 -0.075,-0.333 -0.167,-0.333 -0.092,0 -0.167,-0.15 -0.167,-0.333 0,-0.191 -0.111,-0.334 -0.26,-0.334 -0.142,0 -0.216,-0.07 -0.163,-0.156 0.092,-0.148 -0.484,-1.334 -0.733,-1.51 -0.065,-0.046 -0.168,-0.22 -0.23,-0.386 -0.064,-0.175 -0.193,-0.252 -0.305,-0.182 -0.118,0.072 -0.149,0.047 -0.079,-0.066 0.123,-0.199 -0.128,-0.723 -0.605,-1.264 -0.16,-0.183 -0.291,-0.43 -0.291,-0.55 0,-0.121 -0.125,-0.219 -0.278,-0.219 -0.153,0 -0.229,-0.049 -0.169,-0.108 0.059,-0.06 -0.074,-0.277 -0.296,-0.483 -0.222,-0.206 -0.363,-0.415 -0.313,-0.465 0.139,-0.138 -0.724,-0.94 -0.87,-0.809 -0.07,0.063 -0.075,0.024 -0.011,-0.088 0.066,-0.116 -0.022,-0.289 -0.207,-0.405 -0.178,-0.111 -0.292,-0.283 -0.253,-0.384 0.074,-0.193 -0.83,-0.809 -0.975,-0.665 -0.046,0.047 -0.054,-0.086 -0.017,-0.296 0.079,-0.45 -1.182,-1.87 -1.5,-1.688 -0.107,0.061 -0.139,0.05 -0.071,-0.025 0.177,-0.196 -0.192,-0.584 -0.556,-0.584 -0.197,0 -0.275,-0.085 -0.216,-0.237 0.054,-0.141 -0.067,-0.318 -0.297,-0.436 -0.213,-0.11 -0.515,-0.359 -0.67,-0.555 -0.155,-0.195 -0.38,-0.355 -0.5,-0.355 -0.12,0 -0.292,-0.169 -0.383,-0.375 -0.09,-0.207 -0.226,-0.375 -0.302,-0.375 -0.077,0 -0.565,-0.343 -1.086,-0.761 -0.521,-0.419 -1.172,-0.942 -1.447,-1.164 -0.275,-0.221 -0.559,-0.404 -0.632,-0.406 -0.073,-10e-4 -0.293,-0.153 -0.49,-0.336 -0.389,-0.362 -0.72,-0.451 -0.529,-0.141 0.074,0.119 0.046,0.147 -0.073,0.074 -0.106,-0.066 -0.193,-0.235 -0.193,-0.377 0,-0.144 -0.096,-0.221 -0.217,-0.175 -0.119,0.046 -0.389,-0.096 -0.601,-0.316 -0.211,-0.219 -0.488,-0.398 -0.616,-0.398 -0.128,0 -0.232,-0.075 -0.232,-0.167 0,-0.092 -0.15,-0.167 -0.334,-0.167 -0.183,0 -0.333,-0.075 -0.333,-0.166 0,-0.092 -0.15,-0.167 -0.333,-0.167 -0.184,0 -0.334,-0.084 -0.334,-0.186 0,-0.104 -0.147,-0.148 -0.333,-0.099 -0.217,0.057 -0.333,0.005 -0.333,-0.147 0,-0.129 -0.15,-0.235 -0.334,-0.235 -0.183,0 -0.333,-0.075 -0.333,-0.166 0,-0.092 -0.146,-0.167 -0.323,-0.167 -0.178,0 -0.37,-0.075 -0.427,-0.167 -0.057,-0.091 -0.328,-0.166 -0.603,-0.166 -0.291,0 -0.457,-0.07 -0.397,-0.167 0.057,-0.092 -0.047,-0.167 -0.23,-0.167 -0.184,0 -0.38,-0.075 -0.437,-0.166 -0.056,-0.092 -0.286,-0.167 -0.51,-0.167 -0.223,0 -0.406,-0.084 -0.406,-0.186 0,-0.109 -0.174,-0.153 -0.421,-0.106 -0.27,0.052 -0.472,-0.01 -0.562,-0.172 -0.09,-0.16 -0.275,-0.218 -0.506,-0.157 -0.219,0.057 -0.398,0.01 -0.447,-0.118 -0.045,-0.117 -0.262,-0.193 -0.482,-0.169 -0.22,0.024 -0.488,-0.062 -0.595,-0.191 -0.107,-0.129 -0.406,-0.234 -0.665,-0.234 -0.258,0 -0.508,-0.063 -0.556,-0.141 -0.048,-0.077 -0.39,-0.131 -0.76,-0.12 -0.445,0.012 -0.673,-0.053 -0.673,-0.193 0,-0.117 -0.075,-0.213 -0.167,-0.213 -0.091,0 -0.167,0.094 -0.169,0.208 -0.002,0.146 -0.039,0.153 -0.125,0.023 -0.141,-0.214 -0.93,-0.392 -2.122,-0.481 -0.459,-0.034 -0.909,-0.068 -1,-0.075 -0.092,-0.008 -0.054,-0.086 0.083,-0.175 0.176,-0.114 -0.054,-0.162 -0.782,-0.164 -0.567,-0.002 -1.078,-0.078 -1.135,-0.169 -0.056,-0.092 -0.29,-0.167 -0.519,-0.167 -0.23,0 -0.376,0.067 -0.325,0.149 0.051,0.082 -0.016,0.191 -0.148,0.242 -0.162,0.062 -0.21,0.012 -0.146,-0.155 0.078,-0.203 -0.082,-0.242 -0.902,-0.217 -0.548,0.016 -1.101,-0.038 -1.228,-0.12 -0.447,-0.288 -1.966,-0.22 -1.856,0.083 0.086,0.235 0.058,0.233 -0.228,-0.016 -0.397,-0.348 -6.124,-0.41 -6.555,-0.072 -0.184,0.145 -0.211,0.141 -0.115,-0.019 0.069,-0.115 0.061,-0.208 -0.018,-0.208 -0.079,0 -0.244,0.093 -0.367,0.208 -0.124,0.115 -0.178,0.125 -0.121,0.022 0.143,-0.256 -1.759,-0.293 -2.012,-0.04 m -192.148,5.429 c -0.153,0.112 -0.343,0.163 -0.424,0.113 -0.08,-0.05 -0.125,0.009 -0.1,0.13 0.025,0.123 -0.073,0.202 -0.222,0.178 -0.147,-0.024 -0.473,0.162 -0.725,0.414 -0.562,0.562 -1.154,1.379 -1,1.379 0.063,0 -0.007,0.184 -0.154,0.41 -0.322,0.491 -0.424,93.757 -0.103,93.757 0.092,0 0.166,0.15 0.166,0.333 0,0.183 0.075,0.333 0.167,0.333 0.092,0 0.167,0.157 0.167,0.348 0,0.204 0.086,0.318 0.208,0.277 0.115,-0.039 0.343,0.15 0.508,0.42 0.165,0.27 0.447,0.529 0.625,0.576 0.179,0.047 0.325,0.151 0.325,0.232 0,0.081 0.15,0.147 0.334,0.147 0.183,0 0.333,0.057 0.333,0.125 0,0.069 4.575,0.125 10.167,0.125 5.591,0 10.166,-0.056 10.166,-0.125 0,-0.068 0.114,-0.125 0.253,-0.125 0.358,0 1.409,-0.71 1.412,-0.954 0.001,-0.113 0.193,-0.33 0.427,-0.483 0.558,-0.366 1.233,-1.611 0.7,-1.291 -0.143,0.087 -0.137,0.038 0.019,-0.155 0.125,-0.154 0.294,-0.238 0.375,-0.188 0.087,0.054 0.148,-19.278 0.147,-46.413 -0.002,-42.354 -0.025,-46.495 -0.266,-46.403 -0.203,0.078 -0.251,0.008 -0.21,-0.309 0.108,-0.824 -1.695,-2.804 -2.554,-2.804 -0.269,0 -0.454,-0.056 -0.412,-0.125 0.141,-0.228 -20.016,-0.151 -20.329,0.078 m 195.981,13.32 c 0.154,-0.022 0.333,-0.093 0.397,-0.157 0.176,-0.176 3.471,-0.138 3.652,0.041 0.087,0.087 0.662,0.174 1.277,0.193 0.615,0.02 1.08,0.099 1.032,0.176 -0.048,0.078 0.175,0.141 0.496,0.141 0.321,0 0.625,0.067 0.675,0.148 0.051,0.082 0.355,0.131 0.677,0.109 0.377,-0.025 0.585,0.035 0.585,0.169 0,0.127 0.193,0.194 0.5,0.173 0.275,-0.019 0.594,0.033 0.708,0.115 0.143,0.103 0.114,0.12 -0.092,0.054 -0.176,-0.057 -0.258,-0.029 -0.198,0.067 0.056,0.091 0.289,0.165 0.518,0.165 0.229,0 0.373,0.071 0.319,0.158 -0.054,0.087 0.049,0.13 0.227,0.095 0.179,-0.034 0.366,0.045 0.416,0.176 0.05,0.131 0.206,0.238 0.346,0.238 0.141,0 0.256,0.075 0.256,0.166 0,0.092 0.155,0.167 0.345,0.167 0.19,0 0.458,0.113 0.597,0.252 0.138,0.138 0.339,0.201 0.446,0.139 0.107,-0.061 0.142,-0.053 0.078,0.019 -0.159,0.176 0.322,0.637 0.53,0.509 0.1,-0.062 0.122,0.012 0.056,0.185 -0.085,0.222 -0.045,0.262 0.175,0.178 0.18,-0.069 0.322,-0.015 0.384,0.147 0.054,0.141 0.197,0.219 0.318,0.172 0.121,-0.046 0.264,0.055 0.318,0.224 0.134,0.424 0.926,1.191 1.11,1.077 0.083,-0.052 0.13,0.006 0.105,0.127 -0.025,0.122 0.08,0.211 0.234,0.2 0.169,-0.013 0.364,0.186 0.49,0.5 0.115,0.286 0.42,0.701 0.678,0.92 0.258,0.22 0.469,0.546 0.469,0.726 0,0.217 0.081,0.296 0.242,0.235 0.153,-0.059 0.21,-0.013 0.157,0.127 -0.047,0.121 0.031,0.264 0.172,0.319 0.148,0.056 0.215,0.206 0.158,0.354 -0.085,0.222 0.059,0.317 0.438,0.29 0.045,-0.003 0.093,0.17 0.106,0.384 0.013,0.215 0.182,0.56 0.375,0.768 0.194,0.208 0.352,0.551 0.352,0.763 0,0.22 0.101,0.385 0.234,0.385 0.148,0 0.204,0.116 0.153,0.315 -0.046,0.173 -10e-4,0.364 0.098,0.426 0.1,0.062 0.182,0.26 0.182,0.441 0,0.181 0.114,0.372 0.255,0.426 0.157,0.061 0.218,0.215 0.158,0.401 -0.053,0.167 -0.026,0.439 0.059,0.606 0.415,0.807 0.562,1.209 0.586,1.597 0.014,0.232 0.081,0.388 0.15,0.346 0.125,-0.078 0.191,0.423 0.132,0.994 -0.017,0.165 0.064,0.416 0.18,0.556 0.119,0.144 0.192,0.575 0.166,0.99 -0.03,0.492 0.028,0.764 0.176,0.821 0.161,0.062 0.214,0.445 0.195,1.416 -0.015,0.732 0.041,1.373 0.125,1.425 0.083,0.051 0.151,0.726 0.151,1.5 v 1.407 h -21.386 -21.386 l 0.077,-1.042 c 0.043,-0.573 0.085,-1.203 0.094,-1.401 0.01,-0.197 0.074,-0.324 0.143,-0.282 0.068,0.043 0.125,-0.197 0.125,-0.533 0,-0.506 -0.049,-0.593 -0.283,-0.503 -0.255,0.098 -0.258,0.079 -0.03,-0.19 0.138,-0.165 0.272,-0.599 0.297,-0.966 0.025,-0.367 0.114,-0.692 0.197,-0.722 0.084,-0.031 0.152,-0.425 0.152,-0.875 0,-0.457 0.077,-0.82 0.173,-0.82 0.097,0 0.157,-0.281 0.136,-0.633 -0.02,-0.348 0.026,-0.735 0.103,-0.859 0.077,-0.124 0.16,-0.416 0.186,-0.648 0.042,-0.388 0.194,-0.791 0.588,-1.566 0.081,-0.159 0.147,-0.44 0.147,-0.625 0,-0.184 0.075,-0.335 0.167,-0.335 0.092,0 0.167,-0.15 0.167,-0.334 0,-0.183 0.083,-0.333 0.186,-0.333 0.108,0 0.153,-0.173 0.106,-0.417 -0.044,-0.229 -0.01,-0.416 0.074,-0.416 0.084,0 0.114,-0.064 0.066,-0.142 -0.048,-0.078 0.06,-0.299 0.24,-0.493 0.18,-0.193 0.328,-0.509 0.328,-0.702 0,-0.192 0.075,-0.303 0.166,-0.247 0.092,0.057 0.167,0.03 0.167,-0.059 0,-0.09 -0.056,-0.194 -0.125,-0.233 -0.069,-0.038 -0.035,-0.048 0.075,-0.022 0.204,0.048 0.717,-0.811 0.717,-1.2 0,-0.117 0.15,-0.261 0.333,-0.319 0.183,-0.058 0.333,-0.203 0.333,-0.321 0,-0.118 0.375,-0.619 0.834,-1.112 0.784,-0.844 1.073,-1.318 0.641,-1.051 -0.12,0.074 -0.148,0.046 -0.074,-0.074 0.065,-0.105 0.227,-0.192 0.359,-0.192 0.132,0 0.24,-0.113 0.24,-0.25 0,-0.138 0.113,-0.25 0.25,-0.25 0.138,0 0.25,-0.079 0.25,-0.177 0,-0.097 0.076,-0.129 0.168,-0.072 0.214,0.132 0.686,-0.33 0.627,-0.613 -0.025,-0.117 0.124,-0.239 0.33,-0.271 0.207,-0.031 0.375,-0.127 0.375,-0.212 0,-0.085 0.134,-0.155 0.297,-0.155 0.163,0 0.405,-0.15 0.537,-0.333 0.132,-0.184 0.338,-0.334 0.458,-0.334 0.12,0 0.264,-0.116 0.318,-0.259 0.055,-0.143 0.2,-0.221 0.323,-0.174 0.123,0.047 0.268,0.014 0.322,-0.074 0.054,-0.088 0.236,-0.159 0.404,-0.159 0.168,0 0.351,-0.118 0.406,-0.261 0.055,-0.143 0.176,-0.213 0.269,-0.156 0.093,0.057 0.211,-0.005 0.262,-0.138 0.055,-0.143 0.224,-0.207 0.415,-0.157 0.178,0.046 0.323,0 0.323,-0.102 0,-0.103 0.192,-0.186 0.426,-0.186 0.235,0 0.39,-0.059 0.346,-0.132 -0.045,-0.072 0.107,-0.147 0.338,-0.166 0.231,-0.019 0.506,-0.089 0.613,-0.155 0.106,-0.067 0.336,-0.143 0.51,-0.17 0.175,-0.027 0.419,-0.18 0.542,-0.338 0.213,-0.274 0.22,-0.274 0.124,0.002 -0.123,0.352 -0.092,0.355 0.622,0.06 0.309,-0.128 0.843,-0.209 1.186,-0.181 0.343,0.029 0.668,-0.021 0.723,-0.109 0.063,-0.103 0.171,-0.101 0.299,0.004 0.109,0.091 0.325,0.147 0.48,0.124"
       stroke="none"
       fill="#8c04bc"
       fill-rule="evenodd" />
    <path
       id="path1"
       d="m 160.5,22.327 c 0,0.095 0.117,0.173 0.26,0.173 0.161,0 0.214,0.079 0.14,0.208 -0.066,0.115 -0.059,0.154 0.015,0.086 0.075,-0.067 0.241,0.008 0.369,0.167 0.211,0.26 0.216,0.252 0.055,-0.082 -0.202,-0.417 -0.839,-0.836 -0.839,-0.552 M 44.042,35.29 c 0.527,0.033 1.389,0.033 1.916,0 0.527,-0.033 0.096,-0.06 -0.958,-0.06 -1.054,0 -1.485,0.027 -0.958,0.06 M 354.5,35.24 c 0,0.221 0.472,0.407 0.546,0.215 0.05,-0.131 -0.044,-0.23 -0.231,-0.244 -0.173,-0.013 -0.315,0 -0.315,0.029 M 33.5,36 c 0.326,0.211 0.667,0.211 0.667,0 0,-0.092 -0.207,-0.166 -0.459,-0.164 C 33.351,35.838 33.305,35.874 33.5,36 m 220.927,0.316 c -0.05,0.082 0.02,0.192 0.157,0.245 0.152,0.058 0.249,-10e-4 0.249,-0.15 0,-0.269 -0.26,-0.33 -0.406,-0.095 M 219.5,38.99 c 0,0.086 0.145,0.145 0.322,0.132 0.177,-0.014 0.285,-0.084 0.24,-0.157 C 219.948,38.781 219.5,38.8 219.5,38.99 m 46.76,1.08 c 0.349,0.255 0.507,0.227 0.33,-0.059 -0.06,-0.098 -0.232,-0.178 -0.382,-0.178 -0.227,0 -0.219,0.039 0.052,0.237 m -106.54,0.555 c 2.367,0.026 6.192,0.026 8.5,0 2.308,-0.026 0.372,-0.048 -4.303,-0.048 -4.675,0 -6.564,0.022 -4.197,0.048 m 110.87,1.719 c 0.061,0.098 0.153,0.136 0.205,0.083 0.052,-0.052 0.251,0.037 0.441,0.198 0.347,0.291 0.347,0.291 0.03,-0.083 -0.315,-0.372 -0.887,-0.539 -0.676,-0.198 m 111.808,2.368 c -0.065,0.112 -0.056,0.148 0.02,0.079 0.076,-0.069 0.276,-10e-4 0.443,0.151 0.168,0.152 0.306,0.208 0.306,0.124 0,-0.289 -0.638,-0.583 -0.769,-0.354 m -175.993,2.672 c -0.234,0.268 -0.418,0.977 -0.223,0.856 0.083,-0.051 0.151,-0.197 0.151,-0.324 0,-0.127 0.167,-0.347 0.371,-0.49 0.24,-0.168 0.284,-0.257 0.125,-0.253 -0.135,0.003 -0.326,0.099 -0.424,0.211 m 182.561,3.711 c 0.205,0.144 0.323,0.343 0.261,0.442 -0.066,0.107 -0.034,0.133 0.077,0.064 0.251,-0.155 -0.119,-0.768 -0.465,-0.768 -0.164,0 -0.122,0.088 0.127,0.262 M 84.353,53.083 c 0.149,0.184 0.312,0.446 0.362,0.584 0.078,0.212 0.094,0.209 0.105,-0.016 0.007,-0.146 -0.155,-0.409 -0.362,-0.584 -0.371,-0.314 -0.372,-0.314 -0.105,0.016 m 274.566,2.079 c -0.131,0.213 0.142,0.34 0.395,0.184 0.167,-0.104 0.157,-0.155 -0.045,-0.232 -0.142,-0.055 -0.299,-0.033 -0.35,0.048 m -48.752,0.588 c 0,0.137 0.075,0.25 0.166,0.25 0.092,0 0.167,-0.113 0.167,-0.25 0,-0.138 -0.075,-0.25 -0.167,-0.25 -0.091,0 -0.166,0.112 -0.166,0.25 m -68.542,0.704 c 0.298,0.037 0.785,0.037 1.083,0 0.298,-0.037 0.054,-0.067 -0.541,-0.067 -0.596,0 -0.84,0.03 -0.542,0.067 m 95.708,2.379 c 0,0.092 -0.112,0.167 -0.25,0.167 -0.137,0 -0.25,0.078 -0.25,0.173 0,0.117 0.108,0.115 0.334,-0.006 0.296,-0.159 0.467,-0.5 0.25,-0.5 -0.046,0 -0.084,0.075 -0.084,0.166 M 62.658,62.407 c 0.22,0.235 0.425,0.426 0.456,0.426 0.15,0 -0.39,-0.672 -0.606,-0.756 -0.138,-0.052 -0.07,0.096 0.15,0.33 m 22.141,1.594 c -0.156,0.274 -0.24,0.499 -0.186,0.499 0.192,0 0.712,-0.712 0.624,-0.855 -0.124,-0.2 -0.119,-0.204 -0.438,0.356 m 174.09,0.927 c -0.055,0.144 -0.03,0.331 0.056,0.417 0.096,0.096 0.155,-0.004 0.155,-0.262 0,-0.479 -0.067,-0.528 -0.211,-0.155 m -34.27,0.289 c -0.06,0.156 -0.233,0.283 -0.384,0.283 -0.212,0 -0.233,0.052 -0.09,0.224 0.102,0.123 0.13,0.285 0.062,0.36 -0.068,0.075 -0.03,0.082 0.085,0.016 0.114,-0.066 0.208,-0.221 0.208,-0.346 0,-0.124 0.086,-0.255 0.192,-0.29 0.105,-0.035 0.156,-0.169 0.114,-0.297 -0.061,-0.182 -0.102,-0.171 -0.187,0.05 m 173.16,3.27 c 0.107,0.121 0.155,0.324 0.107,0.45 -0.049,0.126 -0.005,0.23 0.096,0.23 0.286,0 0.218,-0.434 -0.107,-0.68 -0.242,-0.183 -0.258,-0.183 -0.096,0 m -125.892,6.305 c 2.458,0.026 6.433,0.026 8.833,0 2.4,-0.026 0.388,-0.048 -4.47,-0.048 -4.858,0 -6.822,0.022 -4.363,0.048 M 4.733,78.201 c 0.148,0.225 0.212,0.471 0.143,0.547 -0.069,0.076 -0.032,0.085 0.083,0.019 0.225,-0.13 0.039,-0.646 -0.311,-0.862 -0.1,-0.062 -0.062,0.071 0.085,0.296 M 81.1,90.027 c 0.047,0.076 0.25,0.217 0.451,0.315 0.33,0.159 0.337,0.153 0.077,-0.058 -0.159,-0.128 -0.253,-0.27 -0.209,-0.314 0.045,-0.045 -0.028,-0.081 -0.162,-0.081 -0.133,0 -0.204,0.062 -0.157,0.138 m -61.984,1.582 c 0.095,0.247 0.717,0.313 0.717,0.077 0,-0.081 -0.18,-0.182 -0.401,-0.224 -0.288,-0.055 -0.377,-0.013 -0.316,0.147 m 311.318,12.96 c 0.056,0.146 0.175,0.264 0.264,0.264 0.219,0 0.082,-0.378 -0.167,-0.462 -0.122,-0.04 -0.159,0.036 -0.097,0.198 m -108.188,2.091 c 0.071,0.116 0.056,0.258 -0.033,0.317 -0.094,0.061 -0.015,0.248 0.187,0.44 0.192,0.183 0.294,0.262 0.225,0.175 -0.069,-0.087 -0.125,-0.327 -0.125,-0.532 0,-0.206 -0.087,-0.427 -0.192,-0.493 -0.126,-0.077 -0.147,-0.045 -0.062,0.093 m 109.838,2.841 c 0.167,0.184 0.337,0.3 0.379,0.258 0.091,-0.09 -0.385,-0.592 -0.56,-0.592 -0.067,0 0.015,0.15 0.181,0.334 m -137.251,0.867 c 0,0.142 0.132,0.361 0.292,0.487 0.27,0.211 0.273,0.204 0.042,-0.089 -0.138,-0.174 -0.225,-0.349 -0.195,-0.389 0.031,-0.039 0.012,-0.115 -0.041,-0.169 -0.054,-0.053 -0.098,0.019 -0.098,0.16 m 184.375,0.59 c 2.544,0.026 6.707,0.026 9.25,0 2.544,-0.026 0.463,-0.047 -4.625,-0.047 -5.087,0 -7.168,0.021 -4.625,0.047 m -370.738,1 c 2.229,0.026 5.829,0.026 8,0 2.171,-0.026 0.347,-0.048 -4.053,-0.048 -4.4,0 -6.176,0.022 -3.947,0.048 m 279.732,2.142 c -0.149,0.162 -0.156,0.233 -0.024,0.233 0.113,0 0.146,0.119 0.08,0.292 -0.083,0.218 -0.063,0.244 0.08,0.103 0.104,-0.104 0.165,-0.341 0.134,-0.525 -0.047,-0.285 -0.088,-0.3 -0.27,-0.103 m -31.166,0.737 c -0.195,0.313 -0.186,0.322 0.127,0.127 0.185,-0.116 0.337,-0.268 0.337,-0.337 0,-0.241 -0.254,-0.126 -0.464,0.21 m -197.119,4.108 c -0.367,0.329 -0.502,0.513 -0.301,0.409 0.201,-0.104 0.412,-0.265 0.47,-0.358 0.057,-0.092 0.192,-0.117 0.301,-0.055 0.108,0.062 0.141,0.051 0.073,-0.024 -0.068,-0.075 -0.04,-0.237 0.062,-0.36 0.315,-0.38 0.091,-0.236 -0.605,0.388 m 223.2,5.154 c -0.333,0.446 -0.233,0.54 0.158,0.15 0.139,-0.139 0.227,-0.319 0.197,-0.402 -0.031,-0.082 -0.19,0.031 -0.355,0.252 m 108.175,2.653 c -0.095,0.498 -0.031,0.527 0.203,0.091 0.098,-0.183 0.108,-0.362 0.025,-0.414 -0.082,-0.051 -0.184,0.095 -0.228,0.323 m -1.625,1.715 c -0.321,0.322 -0.434,0.5 -0.25,0.396 0.434,-0.249 1.083,-0.806 1.083,-0.931 0,-0.205 -0.269,-0.032 -0.833,0.535 m -170.562,9.779 c 0.045,0.117 0.276,0.212 0.514,0.212 0.394,0 0.404,-0.015 0.115,-0.181 -0.46,-0.262 -0.723,-0.276 -0.629,-0.031 m 152.263,0.689 c -0.179,0.193 -0.146,0.232 0.199,0.232 0.227,0 0.467,-0.087 0.532,-0.193 0.078,-0.125 0.046,-0.147 -0.092,-0.062 -0.116,0.072 -0.259,0.054 -0.317,-0.039 -0.068,-0.108 -0.185,-0.085 -0.322,0.062 m -211.648,1.19 c 2.367,0.026 6.192,0.026 8.5,0 2.308,-0.026 0.372,-0.048 -4.303,-0.048 -4.675,0 -6.564,0.022 -4.197,0.048 m 75.885,1.84 c -0.045,0.073 0.063,0.143 0.24,0.157 0.177,0.013 0.322,-0.046 0.322,-0.132 0,-0.19 -0.448,-0.209 -0.562,-0.025"
       stroke="none"
       fill="#8c04c4"
       fill-rule="evenodd" />
  </g>
</svg>
